<?xml version="1.0" encoding="UTF-8"?> <svg xmlns="http://www.w3.org/2000/svg" width="500" height="281" viewBox="0 0 500 281" fill="none"><path d="M82.2532 156.578L111.488 138.376H126.66C127.128 138.376 127.556 138.746 127.556 139.273C127.556 139.701 127.361 139.877 127.128 140.013L112.773 148.627C111.838 149.192 111.507 150.303 111.507 151.141L111.488 156.578H129.738V125.026C129.738 124.422 129.27 123.896 128.569 123.896H111.157L82 142.02V156.578H82.2532Z" fill="black"></path><path d="M321.973 156.579H348.267V149.504H330.309V143.58H344.761V136.486H330.309V130.971H348.267V123.896H321.973V156.579Z" fill="black"></path><path d="M156.752 123.896L144.228 156.579H152.837L155.018 150.459H169.003L171.145 156.579H180.046L167.367 123.896H156.752ZM157.492 143.502L162.069 130.698L166.568 143.502H157.492Z" fill="black"></path><path d="M215.766 130.971H226.303V156.579H234.62V130.971H245.118V123.896H215.766V130.971Z" fill="black"></path><path d="M203.652 143.989C203.652 148.238 201.042 149.953 196.582 149.953C192.258 149.953 189.434 148.16 189.434 143.989V123.779H181.098V144.944C181.098 154.376 189.512 157.319 196.562 157.319C203.574 157.319 211.949 154.376 211.949 144.944V123.779H203.613V143.989H203.652Z" fill="black"></path><path d="M417 123.896H407.086L395.206 137.168V123.896H386.869L386.908 156.579H395.206V144.165L406.463 156.579H417L401.808 140.442L417 123.896Z" fill="black"></path><path d="M302.379 123.896H287.109V156.579H302.379C314.085 156.579 317.318 152.213 317.318 139.994C317.318 128.515 314.221 123.896 302.379 123.896ZM302.048 149.504H295.426V130.971H302.048C307.268 130.971 308.826 132.393 308.826 139.994C308.826 146.932 307.073 149.504 302.048 149.504Z" fill="black"></path><path d="M373.45 137.344L365.854 136.486C361.413 135.999 360.303 134.888 360.303 133.387C360.303 131.711 362.582 130.211 367.042 130.211C371.327 130.211 373.567 131.809 373.976 134.206H382.137C381.727 127.287 375.943 123 367.49 123C357.44 123 352.396 126.995 352.396 134.07C352.396 139.819 355.746 142.528 362.679 143.268L370.392 144.087C373.333 144.418 374.677 145.548 374.677 147.029C374.677 148.705 372.71 150.206 367.977 150.206C362.504 150.206 360.303 148.822 359.933 146.035H351.928C352.298 153.558 357.187 157.397 367.685 157.397C377.267 157.397 382.623 153.188 382.623 146.854C382.623 141.339 379.449 138.026 373.45 137.344Z" fill="black"></path><path d="M264.497 123C252.616 123 246.462 130.308 246.462 140.15C246.462 150.031 252.616 157.378 264.497 157.378C276.417 157.378 282.572 150.031 282.572 140.15C282.591 130.308 276.417 123 264.497 123ZM264.497 150.031C258.342 150.031 254.954 146.269 254.954 140.15C254.954 134.147 258.342 130.347 264.497 130.347C270.71 130.347 274.041 134.147 274.041 140.15C274.06 146.289 270.71 150.031 264.497 150.031Z" fill="black"></path></svg> 