<svg width="132" height="22" viewBox="0 0 132 22" fill="none" xmlns="http://www.w3.org/2000/svg"><path d="M18.3176 9.27479L9.68663 14.1339L0.444511 8.94223L0 9.18241V12.9515L9.68663 18.3833L18.3176 13.5427V15.5381L9.68663 20.3972L0.444511 15.2055L0 15.4457V16.0923L9.68663 21.5242L19.3547 16.0923V12.3233L18.9102 12.0831L9.68663 17.2563L1.03719 12.4157V10.4203L9.68663 15.2609L19.3547 9.82906V6.11545L18.8732 5.83831L9.68663 10.993L1.4817 6.41106L9.68663 1.81061L16.4284 5.59813L17.0211 5.26557V4.80367L9.68663 0.683594L0 6.11545V6.70667L9.68663 12.1385L18.3176 7.27942V9.27479Z" fill="#EE3D2C"></path><path d="M37.449 18.4427V1.85156H34.8931V8.0594C34.8931 8.15177 34.8375 8.22568 34.7449 8.26263C34.6523 8.29958 34.5597 8.26263 34.5041 8.2072C33.6336 7.19104 32.2816 6.61829 30.7999 6.61829C27.6327 6.61829 25.1509 9.27879 25.1509 12.6783C25.1509 14.3411 25.725 15.8746 26.7808 17.0016C27.8365 18.1287 29.2626 18.7383 30.7999 18.7383C32.2631 18.7383 33.6151 18.1287 34.5041 17.0755C34.5597 17.0016 34.6708 16.9832 34.7449 17.0016C34.8375 17.0386 34.8931 17.1125 34.8931 17.2049V18.4427H37.449ZM31.3555 16.4289C29.3182 16.4289 27.7253 14.7845 27.7253 12.6783C27.7253 10.5721 29.3182 8.92775 31.3555 8.92775C33.3928 8.92775 34.9857 10.5721 34.9857 12.6783C34.9857 14.7845 33.3928 16.4289 31.3555 16.4289Z" fill="black"></path><path d="M51.118 18.4435V6.8962H48.5806V8.06017C48.5806 8.15254 48.525 8.22645 48.4324 8.2634C48.3398 8.30035 48.2472 8.2634 48.1916 8.1895C47.3397 7.17333 46.0061 6.60059 44.4874 6.60059C41.3202 6.60059 38.8384 9.26109 38.8384 12.6606C38.8384 16.0601 41.3202 18.7206 44.4874 18.7206C45.9506 18.7206 47.3026 18.1109 48.1916 17.0394C48.2472 16.9655 48.3583 16.947 48.4324 16.9655C48.525 17.0024 48.5806 17.0763 48.5806 17.1687V18.425H51.118V18.4435ZM45.0615 16.4297C43.0242 16.4297 41.4314 14.7853 41.4314 12.6791C41.4314 10.5729 43.0242 8.92852 45.0615 8.92852C47.0989 8.92852 48.6917 10.5729 48.6917 12.6791C48.6917 14.7853 47.0989 16.4297 45.0615 16.4297Z" fill="black"></path><path d="M72.8426 18.4435V6.8962H70.3052V8.06017C70.3052 8.15254 70.2496 8.22645 70.157 8.2634C70.0644 8.30035 69.9718 8.2634 69.9162 8.1895C69.0643 7.17333 67.7307 6.60059 66.212 6.60059C63.0263 6.60059 60.563 9.26109 60.563 12.6791C60.563 16.0971 63.0448 18.7391 66.212 18.7391C67.6752 18.7391 69.0272 18.1294 69.9162 17.0578C69.9718 16.9839 70.0829 16.9655 70.157 16.9839C70.2496 17.0209 70.3052 17.0948 70.3052 17.1872V18.4435H72.8426ZM66.7861 16.4297C64.7488 16.4297 63.156 14.7853 63.156 12.6791C63.156 10.5729 64.7488 8.92852 66.7861 8.92852C68.8235 8.92852 70.4163 10.5729 70.4163 12.6791C70.4163 14.7853 68.8235 16.4297 66.7861 16.4297Z" fill="black"></path><path d="M77.4922 17.0755C77.5107 17.0755 77.5478 17.0571 77.5663 17.0571C77.6218 17.0571 77.6959 17.094 77.733 17.131C78.6035 18.1471 79.9555 18.7199 81.4372 18.7199C84.6044 18.7199 87.0862 16.0594 87.0862 12.6598C87.0862 10.997 86.5121 9.46355 85.4564 8.33653C84.4006 7.20951 82.9745 6.59982 81.4372 6.59982C79.9741 6.59982 78.622 7.20951 77.733 8.26263C77.6774 8.33653 77.5848 8.35501 77.4922 8.33653C77.3996 8.29958 77.344 8.22568 77.344 8.1333V1.85156H74.7881V18.4427H77.344V17.2788C77.344 17.1864 77.3996 17.1125 77.4922 17.0755ZM77.2329 12.6783C77.2329 10.5721 78.8257 8.92775 80.8631 8.92775C82.9004 8.92775 84.4932 10.5721 84.4932 12.6783C84.4932 14.7845 82.9004 16.4289 80.8631 16.4289C78.8257 16.4289 77.2329 14.7661 77.2329 12.6783Z" fill="black"></path><path d="M94.4766 9.26328C94.7173 9.26328 94.9396 9.28175 95.0878 9.3187V6.69515C94.9951 6.67668 94.8285 6.6582 94.6618 6.6582C93.3282 6.6582 92.1058 7.3418 91.4576 8.43187C91.402 8.52425 91.3094 8.5612 91.2168 8.52425C91.1242 8.50577 91.0501 8.41339 91.0501 8.32102V6.89839H88.5127V18.4642H91.0686V13.3649C91.0686 10.8337 92.3651 9.26328 94.4766 9.26328Z" fill="black"></path><path d="M99.2917 6.89746H96.6987V18.4632H99.2917V6.89746Z" fill="black"></path><path d="M97.9576 1.87012C97.0871 1.87012 96.3833 2.57219 96.3833 3.44055C96.3833 4.30891 97.0871 5.01099 97.9576 5.01099C98.8281 5.01099 99.5319 4.30891 99.5319 3.44055C99.5319 2.57219 98.8281 1.87012 97.9576 1.87012Z" fill="black"></path><path d="M106.886 6.60059C103.33 6.60059 100.755 9.15023 100.755 12.6791C100.755 14.3973 101.367 15.9308 102.459 17.0394C103.571 18.1479 105.126 18.7576 106.867 18.7576C108.312 18.7576 109.423 18.4805 111.535 16.9285L110.072 15.395C109.034 16.0786 108.071 16.4112 107.127 16.4112C104.978 16.4112 103.367 14.8038 103.367 12.6791C103.367 10.5544 104.978 8.947 107.127 8.947C108.145 8.947 109.09 9.27956 110.035 9.96316L111.664 8.42968C109.757 6.80382 108.034 6.60059 106.886 6.60059Z" fill="black"></path><path d="M116.035 13.362C116.072 13.325 116.128 13.3066 116.184 13.3066H116.202C116.258 13.3066 116.313 13.3435 116.369 13.3805L120.462 18.4428H123.611L118.314 12.0502C118.239 11.9578 118.239 11.8285 118.332 11.7546L123.203 6.89551H120.073L115.869 11.108C115.813 11.1634 115.721 11.1819 115.628 11.1634C115.554 11.1264 115.498 11.0525 115.498 10.9602V1.87012H112.924V18.4613H115.48V13.9532C115.48 13.8978 115.498 13.8239 115.554 13.7869L116.035 13.362Z" fill="black"></path><path d="M127.776 18.739C129.869 18.739 131.999 17.4642 131.999 15.0439C131.999 13.455 130.999 12.3649 128.962 11.6998L127.572 11.2379C126.628 10.9238 126.183 10.4804 126.183 9.8707C126.183 9.16863 126.813 8.68826 127.702 8.68826C128.554 8.68826 129.313 9.24253 129.795 10.2033L131.851 9.09473C131.092 7.54277 129.517 6.58203 127.702 6.58203C125.405 6.58203 123.739 8.06009 123.739 10.0739C123.739 11.6813 124.702 12.7529 126.683 13.3811L128.11 13.843C129.11 14.1571 129.536 14.5635 129.536 15.2102C129.536 16.1894 128.628 16.5404 127.85 16.5404C126.813 16.5404 125.887 15.8753 125.443 14.7852L123.35 15.8938C124.035 17.649 125.72 18.739 127.776 18.739Z" fill="black"></path><path d="M58.2304 18.628C59.0453 18.628 59.7677 18.5541 60.1751 18.4986V16.2815C59.8418 16.3185 59.2491 16.3554 58.8972 16.3554C57.86 16.3554 57.0636 16.1707 57.0636 13.9351V9.18687C57.0636 9.05754 57.1562 8.96517 57.2858 8.96517H59.7862V6.87741H57.2858C57.1562 6.87741 57.0636 6.78503 57.0636 6.6557V3.33008H54.5076V6.67418C54.5076 6.80351 54.415 6.89589 54.2854 6.89589H52.5073V8.98364H54.2854C54.415 8.98364 54.5076 9.07602 54.5076 9.20535V14.5818C54.5076 18.628 57.2117 18.628 58.2304 18.628Z" fill="black"></path></svg>