<?xml version="1.0" encoding="utf-8"?>
<!-- Generator: Adobe Illustrator 24.3.0, SVG Export Plug-In . SVG Version: 6.00 Build 0)  -->
<svg version="1.1" id="Layer_1" xmlns="http://www.w3.org/2000/svg" xmlns:xlink="http://www.w3.org/1999/xlink" x="0px" y="0px"
	 viewBox="0 0 594.75 242.17" style="enable-background:new 0 0 594.75 242.17;" xml:space="preserve">
<g>
	<path d="M93.38,57.58h26.38v1.91h-1.42c-2.8,0-4.62,0.23-5.49,0.69c-0.87,0.47-1.44,1.33-1.71,2.58c-0.28,1.27-0.43,4.26-0.43,8.99
		V91.2c0,4.83-0.18,8.48-0.56,11.01c-0.39,2.52-1.43,4.98-3.17,7.38c-1.73,2.38-4.04,4.23-6.93,5.52
		c-2.89,1.29-6.25,1.92-10.08,1.92c-4.3,0-7.61-0.8-9.93-2.38c-2.32-1.59-3.48-3.49-3.48-5.67c0-1.32,0.42-2.43,1.24-3.34
		c0.83-0.9,1.85-1.34,3.07-1.34c1.24,0,2.28,0.39,3.11,1.2c0.84,0.81,1.25,1.8,1.25,2.98c0,0.7-0.17,1.42-0.51,2.18
		c-0.31,0.66-0.46,1.16-0.46,1.49c0,0.89,0.53,1.59,1.58,2.09c1.07,0.49,2.37,0.75,3.94,0.75c3.18,0,5.86-1.02,8.04-3.04
		c2.17-2.03,3.48-4.42,3.93-7.18c0.44-2.75,0.67-7.3,0.67-13.64V71.73c0-4.53-0.14-7.44-0.4-8.76c-0.27-1.31-0.83-2.22-1.69-2.73
		c-0.85-0.5-2.73-0.75-5.61-0.75h-1.35V57.58z"/>
	<path d="M143.08,87.64v12.02c0,4.51,0.11,7.45,0.32,8.84c0.21,1.39,0.78,2.43,1.71,3.1c0.92,0.68,2.67,1.02,5.24,1.02h1.9v1.91
		h-26.24v-1.91h1.52c2.45,0,4.15-0.32,5.09-0.92c0.94-0.63,1.55-1.59,1.8-2.9c0.25-1.29,0.38-4.32,0.38-9.09V71.76
		c0-4.54-0.13-7.46-0.38-8.78c-0.25-1.32-0.82-2.22-1.69-2.73c-0.87-0.5-2.76-0.75-5.65-0.75h-1.06v-1.91l7.16-0.29
		c5.73-0.23,10.2-0.34,13.4-0.34c5.9,0,10.45,0.46,13.63,1.38c3.19,0.93,5.8,2.56,7.84,4.92c2.04,2.34,3.06,5.31,3.06,8.9
		c0,3.11-0.7,5.85-2.09,8.23c-1.39,2.38-3.37,4.19-5.97,5.42c-2.6,1.23-7.16,1.85-13.7,1.85H143.08z M143.08,85.59h4.08
		c3.29,0,5.94-0.32,7.96-0.99c2.02-0.65,3.7-2.04,5.05-4.14c1.35-2.11,2.02-4.7,2.02-7.79c0-4.72-1.16-8.17-3.47-10.39
		c-2.31-2.21-6.06-3.31-11.26-3.31c-1.91,0-3.37,0.06-4.38,0.18V85.59z"/>
	<path d="M218.65,104.7l20.71-47.12h17.58v1.91h-2.1c-2.81,0-4.65,0.23-5.52,0.69c-0.87,0.47-1.45,1.33-1.74,2.58
		c-0.3,1.27-0.44,4.27-0.44,9v27.95c0,4.48,0.11,7.41,0.33,8.81c0.22,1.38,0.79,2.41,1.7,3.08c0.91,0.68,2.67,1.02,5.25,1.02h2.52
		v1.91h-27.39v-1.91h2.03c2.43,0,4.11-0.32,5.06-0.92c0.93-0.63,1.54-1.59,1.81-2.89c0.27-1.3,0.4-4.33,0.4-9.1V63.46l-22.43,51.06
		h-2.04l-22.65-51.06v33.37c0,4.57,0.14,7.67,0.42,9.33c0.28,1.65,1.14,3.1,2.6,4.34c1.46,1.24,3.51,1.95,6.15,2.12v1.91h-20.51
		v-1.91c2.45-0.13,4.44-0.8,5.98-1.99c1.54-1.19,2.48-2.66,2.81-4.38c0.35-1.75,0.52-4.96,0.52-9.67V71.76
		c0-4.53-0.13-7.46-0.4-8.78c-0.27-1.32-0.83-2.22-1.69-2.73c-0.85-0.5-2.74-0.75-5.64-0.75h-1.56v-1.91h17.38L218.65,104.7z"/>
	<path d="M260.18,92.25c0-6.76,2.25-12.18,6.77-16.28c4.51-4.08,10.14-6.13,16.89-6.13c6.81,0,12.5,2.02,17.07,6.07
		c4.56,4.05,6.85,9.57,6.85,16.57c0,6.78-2.19,12.27-6.55,16.46c-4.38,4.21-10.13,6.3-17.27,6.3c-6.95,0-12.64-2.09-17.09-6.3
		C262.4,104.74,260.18,99.17,260.18,92.25z M267.63,92.48c0,7.04,1.39,12.33,4.2,15.87c2.79,3.52,6.98,5.28,12.57,5.28
		c4.91,0,8.79-1.76,11.63-5.28c2.85-3.54,4.28-8.8,4.28-15.8c0-6.81-1.41-12.03-4.21-15.66c-2.81-3.62-6.88-5.44-12.21-5.44
		c-5.26,0-9.27,1.77-12.07,5.32C269.02,80.3,267.63,85.53,267.63,92.48z"/>
	<path d="M359.66,114.44h-11.72c-2.07-1.48-5.25-5.27-9.52-11.44c-1.38-1.97-2.8-3.85-4.28-5.65c-1.48-1.8-2.5-2.91-3.05-3.31
		c-0.57-0.4-1.42-0.59-2.6-0.59h-1.73v9.64c0,3.43,0.08,5.67,0.24,6.72c0.16,1.06,0.6,1.85,1.3,2.37c0.71,0.52,2.05,0.77,4.03,0.77
		h2.12v1.49h-20.98v-1.49h1.42c1.88,0,3.17-0.23,3.9-0.71c0.72-0.48,1.18-1.21,1.37-2.22c0.2-1,0.31-3.33,0.31-6.98V81.56
		c0-3.49-0.1-5.74-0.31-6.76c-0.19-1.01-0.63-1.7-1.31-2.09c-0.68-0.38-2.15-0.57-4.4-0.57h-0.76v-1.5l6.25-0.3
		c4.17-0.17,7.48-0.27,9.92-0.27c4.17,0,7.56,0.38,10.17,1.15c2.6,0.79,4.72,2.06,6.34,3.83c1.6,1.76,2.4,3.88,2.4,6.34
		c0,2.87-1.05,5.31-3.13,7.35c-2.09,2.02-5.16,3.29-9.22,3.78c1.84,0.86,4.77,4.04,8.82,9.52c3.31,4.44,5.88,7.33,7.76,8.72
		c1.88,1.37,4.1,2.11,6.66,2.19V114.44z M326.76,91.85c1.59-0.05,3.23-0.11,4.94-0.19c1.7-0.08,3.17-0.32,4.42-0.72
		c1.26-0.39,2.27-0.96,3.04-1.69c0.78-0.75,1.39-1.73,1.82-2.93c0.45-1.21,0.68-2.7,0.68-4.46c0-3.09-0.76-5.55-2.28-7.4
		c-1.51-1.85-4.82-2.78-9.92-2.78c-0.78,0-1.7,0.04-2.71,0.13V91.85z"/>
	<path d="M389.98,95.74h18.93v1.49c-2.09,0-3.51,0.23-4.24,0.65c-0.75,0.42-1.25,1.12-1.48,2.1c-0.23,0.99-0.35,3.37-0.35,7.15v4.67
		c-0.51-0.08-0.99-0.13-1.39-0.13c-1.66,0-3.83,0.51-6.51,1.52c-3.66,1.37-7.05,2.06-10.16,2.06c-6.26,0-11.47-2.07-15.62-6.19
		c-4.15-4.12-6.23-9.34-6.23-15.67c0-6.26,2-11.76,5.96-16.46c3.98-4.72,9.36-7.07,16.18-7.07c5.86,0,10.71,2.14,14.56,6.44
		c0.73-1.52,1.18-3.18,1.37-4.94h1.5V86h-1.5c-0.62-4.48-2.33-8.02-5.11-10.64c-2.79-2.6-6.17-3.92-10.16-3.92
		c-4.11,0-7.69,1.53-10.74,4.59c-3.05,3.04-4.58,8.47-4.58,16.26c0,7.76,1.46,13.25,4.39,16.5c2.94,3.23,6.58,4.85,10.93,4.85
		c2.24,0,4.26-0.45,6.09-1.37c1.82-0.91,3.07-2.02,3.72-3.34c0.67-1.32,1-2.98,1-4.99c0-2.34-0.17-3.92-0.48-4.69
		c-0.31-0.79-0.8-1.31-1.45-1.59c-0.65-0.26-1.84-0.41-3.57-0.41h-1.05V95.74z"/>
	<path d="M440.67,98.27h-16.61l-1.15,2.78c-1.68,4.04-2.52,6.66-2.52,7.89c0,1.32,0.44,2.31,1.34,3c0.9,0.68,2.05,1.02,3.47,1.02
		v1.49h-13.18v-1.49c1.94-0.31,3.39-0.99,4.35-2.06c0.95-1.07,2.1-3.31,3.44-6.74c0.14-0.32,0.67-1.57,1.59-3.76l12.78-30.32h1.28
		l14.58,34.75l1.99,4.58c0.46,1.03,1.07,1.84,1.83,2.43c0.77,0.61,1.91,0.98,3.44,1.13v1.49h-17.19v-1.49c2.1,0,3.53-0.16,4.27-0.47
		c0.74-0.32,1.11-0.94,1.11-1.86c0-0.47-0.5-1.88-1.49-4.23L440.67,98.27z M440.01,96.66l-7.64-18.52l-7.64,18.52H440.01z"/>
	<path d="M502.18,115.46l-31.07-41.08v30.39c0,2.52,0.13,4.18,0.36,4.99c0.25,0.78,0.94,1.52,2.11,2.19c1.16,0.67,2.9,1,5.22,1v1.49
		h-16.29v-1.49c2.07-0.15,3.65-0.53,4.75-1.15c1.09-0.61,1.73-1.27,1.94-1.98c0.21-0.71,0.3-2.39,0.3-5.03V81.56
		c0-3.35-0.16-5.61-0.47-6.76c-0.31-1.12-0.81-1.87-1.49-2.19c-0.69-0.32-2.21-0.48-4.57-0.48v-1.5h13.06l25.92,34.27v-26.2
		c0-1.93-0.2-3.29-0.6-4.07c-0.4-0.78-1.21-1.38-2.43-1.84c-1.23-0.45-2.7-0.67-4.42-0.67v-1.5h15.83v1.5
		c-1.84,0.14-3.28,0.5-4.32,1.06c-1.05,0.56-1.73,1.22-2.01,2.01c-0.29,0.79-0.44,2.12-0.44,4v36.25H502.18z"/>
</g>
<g>
	<path d="M457.88,162.63c0-6.45,2.16-11.63,6.46-15.54c4.31-3.9,9.7-5.85,16.14-5.85c6.49,0,11.93,1.93,16.29,5.79
		c4.37,3.86,6.54,9.14,6.54,15.82c0,6.47-2.09,11.71-6.27,15.72c-4.17,4.02-9.65,6.02-16.46,6.02c-6.63,0-12.07-2-16.31-6.02
		C460,174.56,457.88,169.24,457.88,162.63z M465,162.85c0,6.72,1.34,11.77,4.01,15.15c2.67,3.36,6.67,5.04,12,5.04
		c4.68,0,8.39-1.68,11.11-5.04c2.72-3.38,4.08-8.4,4.08-15.09c0-6.5-1.34-11.49-4.03-14.95c-2.66-3.46-6.56-5.19-11.64-5.19
		c-5.02,0-8.85,1.69-11.52,5.08C466.33,151.22,465,156.21,465,162.85z"/>
	<path d="M126.17,163.65h1.82v19.1h-1.82c-0.48-2.17-1.35-4.09-2.61-5.75c-4.75,5.39-10.83,8.06-18.22,8.06
		c-7.81,0-14.2-2.48-19.16-7.45c-4.95-4.96-7.44-11.52-7.44-19.7c0-5.37,1.14-10.42,3.42-15.16c2.29-4.74,5.49-8.26,9.58-10.55
		c4.09-2.3,8.58-3.45,13.46-3.45c4.04,0,7.7,0.83,10.99,2.5c3.28,1.65,5.74,3.49,7.36,5.51c1.17-2.27,1.89-4.61,2.12-7.03h1.83
		l0.49,20.55h-1.82c-1.2-7.29-3.64-12.39-7.33-15.26c-3.68-2.88-7.84-4.32-12.47-4.32c-5.66,0-10.16,2.31-13.5,6.94
		c-3.34,4.62-4.99,11.23-4.99,19.84c0,8.15,1.8,14.4,5.45,18.76c3.66,4.33,8.2,6.51,13.61,6.51c2.9,0,5.87-0.7,8.91-2.12
		c3.03-1.42,5.43-3.81,7.2-7.19C124.8,170.06,125.85,166.8,126.17,163.65z"/>
	<path d="M172.03,162.69h-21.77v10.11c0,3.3,0.09,5.46,0.24,6.48c0.16,1.02,0.6,1.77,1.26,2.27c0.68,0.5,1.97,0.74,3.86,0.74h1.09
		v1.42h-18.94v-1.42h1.09c1.8,0,3.04-0.22,3.73-0.68c0.7-0.45,1.15-1.15,1.34-2.1c0.19-0.96,0.29-3.18,0.29-6.68v-20.5
		c0-3.33-0.1-5.48-0.29-6.45c-0.19-0.96-0.62-1.62-1.25-2c-0.62-0.37-2.01-0.56-4.14-0.56h-0.78v-1.42h18.94v1.42h-0.78
		c-2.07,0-3.42,0.17-4.06,0.51c-0.65,0.34-1.08,0.97-1.3,1.89c-0.23,0.93-0.32,3.13-0.32,6.6v8.29h21.77v-8.29
		c0-3.33-0.09-5.48-0.27-6.45c-0.19-0.96-0.59-1.62-1.22-2c-0.62-0.37-1.98-0.56-4.09-0.56h-1.1v-1.42h18.93v1.42h-0.6
		c-2.07,0-3.41,0.17-4.03,0.51c-0.64,0.34-1.07,0.97-1.28,1.89c-0.22,0.93-0.33,3.13-0.33,6.6v20.5c0,3.28,0.08,5.44,0.24,6.46
		c0.14,1.02,0.56,1.77,1.23,2.27c0.69,0.5,1.95,0.74,3.82,0.74h0.94v1.42h-18.93v-1.42h1.44c1.76,0,2.98-0.22,3.66-0.68
		c0.68-0.46,1.12-1.16,1.31-2.11c0.18-0.96,0.27-3.19,0.27-6.69V162.69z"/>
	<path d="M215.78,168.28h-15.83l-1.11,2.66c-1.6,3.84-2.4,6.34-2.4,7.51c0,1.26,0.42,2.21,1.28,2.85c0.86,0.65,1.96,0.98,3.32,0.98
		v1.42h-12.6v-1.42c1.87-0.29,3.25-0.94,4.17-1.96c0.9-1.02,2-3.17,3.29-6.45c0.13-0.3,0.62-1.5,1.5-3.57l12.2-28.96h1.23
		l13.92,33.17l1.9,4.38c0.43,0.98,1.02,1.76,1.75,2.33c0.72,0.56,1.82,0.91,3.28,1.06v1.42h-16.42v-1.42c2,0,3.37-0.15,4.07-0.44
		c0.7-0.31,1.07-0.9,1.07-1.77c0-0.46-0.48-1.8-1.43-4.05L215.78,168.28z M215.15,166.74l-7.28-17.69l-7.3,17.69H215.15z"/>
	<path d="M237.01,183.27V169.8h1.53c1.75,8.76,5.9,13.14,12.42,13.14c2.93,0,5.22-0.85,6.83-2.51c1.62-1.68,2.42-3.55,2.42-5.62
		c0-2.09-0.7-3.85-2.12-5.27c-1.41-1.4-4-2.9-7.76-4.49c-3.36-1.44-5.88-2.7-7.57-3.78c-1.7-1.08-3.04-2.48-4-4.21
		c-0.95-1.73-1.42-3.57-1.42-5.52c0-2.98,1.03-5.46,3.11-7.44c2.07-1.99,4.69-2.98,7.88-2.98c1.78,0,3.45,0.28,5.02,0.87
		c1.56,0.57,3.17,1.76,4.82,3.57c0.95-1.13,1.49-2.35,1.61-3.66h1.3v10.93h-1.3c-0.79-3.15-2.19-5.64-4.18-7.45
		c-1.99-1.82-4.31-2.72-6.95-2.72c-2.5,0-4.34,0.66-5.51,2c-1.16,1.33-1.75,2.8-1.75,4.38c0,1.92,0.74,3.54,2.21,4.85
		c1.44,1.35,4.05,2.88,7.82,4.57c3.6,1.61,6.22,2.91,7.86,3.89c1.64,0.98,2.95,2.34,3.95,4.06c0.98,1.73,1.48,3.72,1.48,5.98
		c0,3.57-1.19,6.48-3.59,8.72c-2.38,2.24-5.57,3.36-9.57,3.36c-4.59,0-8.43-1.76-11.5-5.27c-0.69,0.96-1.19,2.32-1.51,4.08H237.01z"
		/>
	<path d="M305.79,170.68h1.43l-0.91,13.02h-34.44v-1.42h0.86c2.05,0,3.39-0.27,3.99-0.83c0.61-0.56,0.98-1.26,1.14-2.11
		c0.16-0.85,0.24-3.02,0.24-6.52v-20.5c0-3.2-0.08-5.29-0.26-6.3c-0.18-1.01-0.58-1.71-1.2-2.1c-0.64-0.41-1.97-0.61-4.01-0.61
		v-1.42h29.76l0.99,10.38h-1.42c-0.66-2.9-1.46-4.96-2.41-6.18c-0.95-1.23-2.06-2-3.38-2.31c-1.31-0.32-3.4-0.48-6.3-0.48h-5.75
		v17.51h4.4c2.03,0,3.44-0.17,4.23-0.52c0.81-0.35,1.34-0.88,1.59-1.59c0.26-0.71,0.38-2.09,0.38-4.13h1.42v14.22h-1.42
		c0-2.32-0.19-3.87-0.58-4.67c-0.38-0.78-0.94-1.3-1.69-1.54c-0.75-0.23-2-0.36-3.78-0.36h-4.55v9.89c0,4.94,0.3,7.86,0.95,8.72
		c0.64,0.88,2.34,1.31,5.14,1.31h3.09c2.2,0,4-0.26,5.42-0.76c1.4-0.52,2.75-1.64,4.03-3.4
		C304.05,176.25,305.06,173.81,305.79,170.68z"/>
	<path d="M360.89,149.59h18v1.95c-2.26,0.61-4.24,1.69-5.93,3.25c-1.69,1.56-3.44,4.5-5.23,8.82c-1.5,3.57-2.89,6.17-4.15,7.85
		c3,4.29,5.35,7,7.05,8.15c1.71,1.15,3.53,1.72,5.46,1.72c2.63,0,4.66-1.26,6.08-3.77h1.94c-0.58,2.3-1.84,4.15-3.76,5.55
		c-1.92,1.4-4.14,2.11-6.64,2.11c-5.47,0-10.26-2.73-14.41-8.2c-4.92,5.47-10.13,8.2-15.62,8.2c-2.69,0-5.24-0.65-7.69-1.95
		c-2.46-1.3-4.45-3.12-5.99-5.46c-1.55-2.33-2.31-5.05-2.31-8.12c0-3.52,0.96-6.46,2.88-8.85c1.91-2.39,5.59-5.4,11.03-9.02
		c-3.28-4.55-4.91-8.67-4.91-12.35c0-2.91,1.12-5.5,3.35-7.77c2.24-2.27,5.05-3.41,8.43-3.41c3.01,0,5.73,0.86,8.18,2.56
		c2.42,1.71,3.64,3.94,3.64,6.7c0,4.3-4.02,8.47-12.05,12.51c4.99,6.72,9.69,13.23,14.11,19.51c1.59-2.22,2.85-4.53,3.78-6.92
		c0.9-2.37,1.38-4.23,1.38-5.57c0-3.2-2.2-5.05-6.6-5.55V149.59z M342.87,153.55c-2.94,1.79-5.22,3.88-6.81,6.26
		c-1.61,2.4-2.41,4.71-2.41,6.94c0,3.44,1.39,6.7,4.17,9.75c2.77,3.07,5.91,4.6,9.42,4.6c3.91,0,7.51-1.93,10.82-5.79
		C352.18,166.34,347.11,159.1,342.87,153.55z M347.04,148.48c5.58-3.25,8.36-6.77,8.36-10.55c0-2.25-0.61-4.08-1.86-5.47
		c-1.24-1.39-2.91-2.08-4.94-2.08c-2.01,0-3.64,0.67-4.86,2c-1.22,1.32-1.83,2.98-1.83,4.96
		C341.91,140.07,343.63,143.79,347.04,148.48z"/>
	<path d="M445.81,163.46h1.83v19.09h-1.83c-0.48-2.16-1.36-4.08-2.62-5.75c-4.75,5.38-10.84,8.06-18.21,8.06
		c-7.82,0-14.21-2.48-19.17-7.44c-4.97-4.97-7.44-11.54-7.44-19.71c0-5.37,1.15-10.43,3.44-15.16c2.28-4.74,5.49-8.25,9.58-10.55
		c4.08-2.29,8.57-3.44,13.46-3.44c4.05,0,7.71,0.82,10.99,2.49c3.28,1.65,5.74,3.5,7.36,5.51c1.18-2.26,1.88-4.61,2.14-7.04h1.81
		l0.49,20.55h-1.83c-1.2-7.29-3.64-12.38-7.33-15.26c-3.68-2.89-7.83-4.33-12.46-4.33c-5.67,0-10.16,2.31-13.51,6.95
		c-3.33,4.61-4.99,11.23-4.99,19.85c0,8.16,1.82,14.41,5.46,18.76c3.64,4.33,8.18,6.51,13.61,6.51c2.9,0,5.87-0.71,8.9-2.13
		c3.02-1.4,5.44-3.8,7.19-7.17C444.46,169.88,445.5,166.61,445.81,163.46z"/>
	<path d="M506.82,180.35c0-1.26,0.45-2.33,1.35-3.23c0.9-0.9,1.97-1.34,3.23-1.34c1.28,0,2.37,0.44,3.27,1.34
		c0.9,0.9,1.35,1.97,1.35,3.23c0,1.29-0.46,2.37-1.36,3.28c-0.92,0.9-2,1.35-3.25,1.35c-1.28,0-2.36-0.47-3.25-1.39
		C507.26,182.64,506.82,181.57,506.82,180.35z"/>
</g>
</svg>
