<?xml version="1.0" encoding="UTF-8" standalone="no"?>
<!-- Generator: Adobe Illustrator 26.5.0, SVG Export Plug-In . SVG Version: 6.00 Build 0)  -->

<svg
   version="1.0"
   id="katman_1"
   x="0px"
   y="0px"
   viewBox="0 0 1190.55 841.89"
   style="enable-background:new 0 0 1190.55 841.89;"
   xml:space="preserve"
   sodipodi:docname="nreal-logo.svg"
   inkscape:version="1.3 (0e150ed, 2023-07-21)"
   xmlns:inkscape="http://www.inkscape.org/namespaces/inkscape"
   xmlns:sodipodi="http://sodipodi.sourceforge.net/DTD/sodipodi-0.dtd"
   xmlns="http://www.w3.org/2000/svg"
   xmlns:svg="http://www.w3.org/2000/svg"><defs
   id="defs4" /><sodipodi:namedview
   id="namedview4"
   pagecolor="#ffffff"
   bordercolor="#000000"
   borderopacity="0.25"
   inkscape:showpageshadow="2"
   inkscape:pageopacity="0.0"
   inkscape:pagecheckerboard="0"
   inkscape:deskcolor="#d1d1d1"
   inkscape:zoom="0.65263951"
   inkscape:cx="595.27502"
   inkscape:cy="420.59973"
   inkscape:window-width="1392"
   inkscape:window-height="1212"
   inkscape:window-x="48"
   inkscape:window-y="25"
   inkscape:window-maximized="0"
   inkscape:current-layer="katman_1" />&#10;<g
   id="g1">&#10;	<path
   d="M659.18,465.9c-10.71,11.35-25.9,18.38-42.68,18.38c-24.94,0-46.52-15.82-54.83-37.88h95.43h14.39h49.07   c1.44-6.71,2.08-13.91,2.08-20.94c0-58.66-47.63-105.98-105.98-105.98c-58.34,0-106.14,47.47-106.14,105.98   c0,58.66,47.63,105.98,105.98,105.98c37.24,0,70.01-19.34,88.88-48.27L659.18,465.9z M616.66,366.63   c26.06,0,48.27,16.94,55.95,40.6H560.87C568.39,383.73,590.6,366.63,616.66,366.63z"
   id="path1" />&#10;</g>&#10;<path
   d="M237.98,319.32c-58.5,0-105.98,47.47-105.98,105.98v105.98h53.07V425.3c0-29.41,23.82-53.07,53.07-53.07  s53.07,23.82,53.07,53.07v105.98h53.07V425.3C344.12,366.95,296.48,319.32,237.98,319.32z"
   id="path2" />&#10;<path
   d="M489.58,319.32c-58.5,0-105.98,47.63-105.98,105.98v105.98h53.07V425.3c0-29.41,23.82-53.07,53.07-53.07h1.6v-53.07  L489.58,319.32L489.58,319.32L489.58,319.32z"
   id="path3" />&#10;<path
   d="M859.63,319.32c-58.66,0-105.98,47.63-105.98,105.98c0,58.66,47.63,105.98,105.98,105.98c21.74,0,42.04-6.55,58.82-17.9l0,0  l47.16,17.9V425.3C965.77,366.79,918.29,319.32,859.63,319.32z M859.63,484.44c-32.45,0-58.82-26.37-58.82-58.82  s26.37-58.82,58.82-58.82s58.82,26.37,58.82,58.82S892.08,484.44,859.63,484.44z"
   id="path4" />&#10;<polygon
   points="1058,329.55 1005.09,309.41 1005.09,531.59 1058,531.59 "
   id="polygon4" />&#10;</svg>
