<?xml version="1.0" encoding="utf-8"?>
<!-- Generator: Adobe Illustrator 26.0.3, SVG Export Plug-In . SVG Version: 6.00 Build 0)  -->
<svg version="1.1" id="Layer_1" xmlns="http://www.w3.org/2000/svg" xmlns:xlink="http://www.w3.org/1999/xlink" x="0px" y="0px"
	 viewBox="0 0 520 203.1" style="enable-background:new 0 0 520 203.1;" xml:space="preserve">
<style type="text/css">
	.st0{fill:#FFFFFF;}
</style>
<g>
	<g>
		<path class="st0" d="M202,30.8h3.1v16.4H202V30.8z"/>
		<path class="st0" d="M208.8,30.8h12v2.7h-8.9v4.1h8v2.7h-8v4.1h9.2v2.7h-12.3V30.8z"/>
		<path class="st0" d="M223.9,30.8h12v2.7H227v4.1h8v2.7h-8v4.1h9.2v2.7h-12.3V30.8z"/>
		<path class="st0" d="M239,30.8h12v2.7h-8.9v4.1h8v2.7h-8v4.1h9.2v2.7H239V30.8z"/>
		<path class="st0" d="M269.9,34c-0.8-0.4-1.6-0.6-2.4-0.6c-1,0-1.9,0.2-2.8,0.7c-0.8,0.5-1.5,1.2-2,2C262.2,37,262,38,262,39
			c0,1,0.2,2,0.7,2.8c0.5,0.9,1.2,1.5,2,2c0.8,0.5,1.8,0.7,2.8,0.7c0.8,0,1.6-0.2,2.4-0.5c0.8-0.3,1.5-0.8,2.1-1.4l1.9,2.1
			c-0.9,0.9-1.9,1.6-3,2.1c-1.1,0.5-2.3,0.8-3.5,0.8c-1.6,0-3-0.4-4.3-1.1c-1.3-0.8-2.3-1.8-3.1-3.1c-0.8-1.3-1.1-2.7-1.1-4.3
			c0-1.6,0.4-3,1.2-4.3c0.8-1.3,1.8-2.3,3.1-3c1.3-0.7,2.8-1.1,4.4-1.1c1.2,0,2.3,0.2,3.5,0.7s2.1,1.1,2.9,1.9l-1.8,2.3
			C271.4,34.9,270.7,34.4,269.9,34z"/>
		<path class="st0" d="M287.7,31.7c1.3,0.7,2.4,1.7,3.2,3c0.8,1.3,1.2,2.7,1.2,4.3c0,1.6-0.4,3-1.2,4.3c-0.8,1.3-1.8,2.3-3.2,3.1
			c-1.3,0.8-2.8,1.1-4.4,1.1c-1.6,0-3.1-0.4-4.4-1.1c-1.3-0.8-2.4-1.8-3.2-3.1c-0.8-1.3-1.2-2.7-1.2-4.3c0-1.6,0.4-3,1.2-4.3
			c0.8-1.3,1.8-2.3,3.2-3c1.3-0.7,2.8-1.1,4.4-1.1C284.8,30.6,286.3,31,287.7,31.7z M280.5,34.2c-0.9,0.5-1.5,1.2-2,2
			c-0.5,0.9-0.8,1.8-0.8,2.8c0,1,0.3,2,0.8,2.8c0.5,0.9,1.2,1.5,2,2c0.9,0.5,1.8,0.8,2.8,0.8c1,0,1.9-0.3,2.7-0.8
			c0.8-0.5,1.5-1.2,2-2c0.5-0.9,0.7-1.8,0.7-2.8c0-1-0.2-2-0.7-2.8c-0.5-0.9-1.2-1.5-2-2c-0.8-0.5-1.8-0.7-2.7-0.7
			C282.3,33.4,281.3,33.7,280.5,34.2z"/>
		<path class="st0" d="M294.4,30.8h3.6l5.4,10.6l5.4-10.6h3.6v16.4h-2.9V35.5l-5.1,10.1h-2l-5.1-10.1v11.8h-2.9V30.8z"/>
		<path class="st0" d="M327.6,32.3c1.1,1,1.7,2.4,1.7,4.2c0,1.9-0.6,3.3-1.7,4.4c-1.1,1-2.7,1.6-4.8,1.6h-3.6v4.8h-3.1V30.8h6.7
			C324.9,30.8,326.5,31.3,327.6,32.3z M325.4,38.9c0.6-0.5,1-1.3,1-2.3c0-1-0.3-1.8-1-2.3c-0.6-0.5-1.5-0.8-2.7-0.8h-3.4v6.1h3.4
			C323.8,39.7,324.7,39.4,325.4,38.9z"/>
		<path class="st0" d="M335.5,43.6c0.7,0.7,1.7,1.1,3,1.1c1.2,0,2.2-0.4,2.9-1.1c0.7-0.7,1.1-1.8,1.1-3.1v-9.7h3.1v9.7
			c0,1.4-0.3,2.7-0.9,3.7c-0.6,1.1-1.4,1.9-2.5,2.4c-1.1,0.6-2.3,0.8-3.8,0.8c-1.5,0-2.8-0.3-3.8-0.8c-1.1-0.6-1.9-1.4-2.5-2.4
			c-0.6-1.1-0.9-2.3-0.9-3.7v-9.7h3.1v9.7C334.4,41.8,334.7,42.8,335.5,43.6z"/>
		<path class="st0" d="M347.1,30.8h13.4v2.8h-5.1v13.6h-3.2V33.6h-5.1V30.8z"/>
		<path class="st0" d="M362.2,30.8h12v2.7h-8.9v4.1h8v2.7h-8v4.1h9.2v2.7h-12.3V30.8z"/>
		<path class="st0" d="M387.6,47.3l-2.8-4.9c-0.1,0-0.3,0-0.6,0h-3.7v4.8h-3.1V30.8h6.9c2.1,0,3.8,0.5,4.9,1.5
			c1.2,1,1.7,2.4,1.7,4.2c0,1.3-0.3,2.4-0.8,3.3c-0.6,0.9-1.4,1.6-2.4,2l3.6,5.4H387.6z M380.5,39.7h3.7c1.2,0,2.1-0.3,2.7-0.8
			c0.6-0.5,0.9-1.3,0.9-2.3c0-1-0.3-1.8-0.9-2.3c-0.6-0.5-1.5-0.8-2.7-0.8h-3.7V39.7z"/>
		<path class="st0" d="M407.6,33.9c-0.9-0.3-1.7-0.4-2.3-0.4c-0.8,0-1.3,0.1-1.8,0.4c-0.4,0.3-0.7,0.7-0.7,1.2
			c0,0.5,0.2,0.8,0.5,1.1c0.3,0.3,0.7,0.6,1.2,0.8c0.5,0.2,1.1,0.4,1.9,0.6c1.1,0.3,2,0.7,2.7,1c0.7,0.3,1.3,0.8,1.8,1.5
			c0.5,0.6,0.8,1.5,0.8,2.5c0,1-0.3,1.9-0.8,2.6c-0.5,0.7-1.3,1.3-2.2,1.7c-0.9,0.4-2,0.6-3.3,0.6c-1.3,0-2.5-0.2-3.8-0.7
			c-1.2-0.5-2.3-1.1-3.2-1.9l1.3-2.7c0.8,0.8,1.8,1.4,2.8,1.8c1,0.4,2,0.7,2.9,0.7c0.9,0,1.6-0.2,2.1-0.5c0.5-0.3,0.8-0.8,0.8-1.4
			c0-0.5-0.2-0.9-0.5-1.2c-0.3-0.3-0.7-0.6-1.2-0.7c-0.5-0.2-1.1-0.4-1.9-0.6c-1.1-0.3-2-0.6-2.7-1c-0.7-0.3-1.3-0.8-1.8-1.4
			c-0.5-0.6-0.8-1.5-0.8-2.5c0-1,0.3-1.8,0.8-2.5c0.5-0.7,1.2-1.3,2.2-1.7c0.9-0.4,2-0.6,3.2-0.6c1.1,0,2.1,0.2,3.2,0.5
			c1,0.3,2,0.7,2.8,1.3l-1.3,2.7C409.4,34.5,408.5,34.1,407.6,33.9z"/>
		<path class="st0" d="M426.1,31.7c1.3,0.7,2.4,1.7,3.2,3c0.8,1.3,1.2,2.7,1.2,4.3c0,1.6-0.4,3-1.2,4.3c-0.8,1.3-1.8,2.3-3.2,3.1
			c-1.3,0.8-2.8,1.1-4.4,1.1s-3.1-0.4-4.4-1.1c-1.3-0.8-2.4-1.8-3.2-3.1c-0.8-1.3-1.2-2.7-1.2-4.3c0-1.6,0.4-3,1.2-4.3
			c0.8-1.3,1.8-2.3,3.2-3c1.3-0.7,2.8-1.1,4.4-1.1S424.8,31,426.1,31.7z M419,34.2c-0.9,0.5-1.5,1.2-2,2c-0.5,0.9-0.8,1.8-0.8,2.8
			c0,1,0.3,2,0.8,2.8c0.5,0.9,1.2,1.5,2,2c0.9,0.5,1.8,0.8,2.8,0.8c1,0,1.9-0.3,2.7-0.8c0.8-0.5,1.5-1.2,2-2
			c0.5-0.9,0.7-1.8,0.7-2.8c0-1-0.2-2-0.7-2.8c-0.5-0.9-1.2-1.5-2-2c-0.8-0.5-1.8-0.7-2.7-0.7C420.7,33.4,419.8,33.7,419,34.2z"/>
		<path class="st0" d="M442.9,34c-0.8-0.4-1.6-0.6-2.4-0.6c-1,0-1.9,0.2-2.8,0.7c-0.8,0.5-1.5,1.2-2,2C435.2,37,435,38,435,39
			c0,1,0.2,2,0.7,2.8c0.5,0.9,1.2,1.5,2,2c0.8,0.5,1.8,0.7,2.8,0.7c0.8,0,1.6-0.2,2.4-0.5s1.5-0.8,2.1-1.4l1.9,2.1
			c-0.9,0.9-1.9,1.6-3,2.1c-1.1,0.5-2.3,0.8-3.5,0.8c-1.6,0-3-0.4-4.3-1.1c-1.3-0.8-2.3-1.8-3.1-3.1c-0.8-1.3-1.1-2.7-1.1-4.3
			c0-1.6,0.4-3,1.2-4.3c0.8-1.3,1.8-2.3,3.1-3c1.3-0.7,2.8-1.1,4.4-1.1c1.2,0,2.3,0.2,3.5,0.7c1.1,0.5,2.1,1.1,2.9,1.9l-1.8,2.3
			C444.4,34.9,443.7,34.4,442.9,34z"/>
		<path class="st0" d="M448.9,30.8h3.1v16.4h-3.1V30.8z"/>
		<path class="st0" d="M455.7,30.8h12v2.7h-8.9v4.1h8v2.7h-8v4.1h9.2v2.7h-12.3V30.8z"/>
		<path class="st0" d="M469.2,30.8h13.4v2.8h-5.1v13.6h-3.2V33.6h-5.1V30.8z"/>
		<path class="st0" d="M498.5,30.8l-6,11.1v5.4h-3.1V42l-6.1-11.2h3.2l4.5,7.7l4.4-7.7H498.5z"/>
	</g>
	<path class="st0" d="M152.8,142.8c-0.1,0-0.5,0-0.6,0c-0.6-0.1-0.9-0.6-0.8-1.1l25.2-118.1c0.1-0.5,0.9-0.7,1.5-0.6
		c0.6,0.1,0.9,0.6,0.8,1.1L153.8,142C153.7,142.5,153.3,142.8,152.8,142.8"/>
	<path class="st0" d="M89.7,102.8c0,7.1,0.5,7.3,5.4,7.6l5.1,0.3l0.2,0.1c1.1,0.6,1.4,2,1.3,3.1c-0.2,1.2-0.8,2.1-1.8,2.3l-0.2,0
		l-0.2,0c-4-0.2-11-0.3-18.6-0.3c-8.1,0-15,0.1-19.1,0.3l-0.2,0l-0.2,0c-1-0.2-1.6-1.1-1.8-2.3c-0.1-1.1,0.2-2.5,1.3-3.1l0.2-0.1
		l5.1-0.3c4.9-0.3,5.4-0.6,5.4-7.7c-19.4-2.2-31.5-11.6-31.5-25.2c0-13.7,10.4-22.5,29-24.9c0.1,1.8,0.1,4.1,0.2,6.9
		c-1.1,0.3-2.2,0.6-3.2,1l-0.5,0.2c-3.9,1.5-6.5,4.2-7.7,7.9l0,0.1c-0.7,1.6-1,4.7-1,8.6l0,0.2l0,0.2c0,3.9,0.4,7,1,8.6l0,0.1
		c0.9,2.9,2.7,5.1,5.2,6.7c3.7,2.4,10.6,3.7,17.6,3.7c7.6,0,15.2-1.5,18.5-4.4c2-1.5,3.4-3.5,4.2-6l0-0.1c0.7-1.6,1-4.7,1-8.6v-0.1
		v-0.2c0-3.9-0.4-7-1-8.6l0-0.1c-1.2-3.7-3.8-6.4-7.6-7.8l-0.5-0.2c-1.7-0.7-3.7-1.2-5.8-1.6v34.5c-2.5,0.5-5.4,0.7-8.8,0.7
		c-3.5,0-6.5-0.3-9.1-0.8v-8c0.2-7.4,0.3-19.2,0.1-27.6l0,0c0-0.2-0.1-5.9-0.1-6c0-5.5-0.6-6-4.7-6.5l-5.8-0.7
		c-0.9-0.4-1.5-1.4-1.5-2.6c-0.1-1.2,0.4-2.3,1.2-2.7l0.2-0.1l0.2,0c4.2-0.5,9.6-1.4,15-2.7c2.9-0.7,5.5-1.6,7.5-2.2
		c1.9-0.6,2.8-0.9,3.3-0.9c1.1,0,2.3,0.6,2.7,1.8l0.1,0.2l0,0.2c-0.2,2-0.3,6.2-0.3,11.2v5.4c20.2,2,31.6,10.9,31.6,25.3
		C121.3,91.2,109.1,100.6,89.7,102.8 M80.7,22.9c-32.6,0-59,24.1-59,53.9c0,29.8,26.4,53.9,59,53.9s59-24.1,59-53.9
		C139.6,47.1,113.2,22.9,80.7,22.9"/>
	<path class="st0" d="M121.7,127.7h1.5l2.5,5.1l2.5-5.1h1.5v7.6h-1.2v-5.8l-2.4,5h-0.8l-2.4-5v5.8h-1.2V127.7z M114.7,127.7h5.8v1.1
		h-2.3v6.5H117v-6.5h-2.3V127.7z"/>
	<g>
		<path class="st0" d="M275.1,62.5l-33.7,77.3h-14.1l-33.8-77.3h15.6l25.7,59.6l25.9-59.6H275.1z"/>
		<path class="st0" d="M335.3,100.2h13.6V131c-8.1,6.5-19.3,9.8-30.2,9.8c-23.9,0-41.6-16.7-41.6-39.7s17.7-39.7,41.8-39.7
			c12.9,0,23.7,4.3,31,12.6l-9,8.8c-6.1-6.1-13-8.8-21.3-8.8c-16.4,0-28,11.1-28,27.1c0,15.7,11.6,27.1,27.9,27.1
			c5.5,0,10.9-1.1,15.9-4V100.2z"/>
		<path class="st0" d="M383.4,74.6h-25.6V62.5h65.6v12.1h-25.6v65.1h-14.3V74.6z"/>
		<path class="st0" d="M427.6,101.1c0-23.1,17.7-39.7,41.4-39.7c12.6,0,23.4,4.5,30.6,12.9l-9.3,8.7c-5.6-6.1-12.6-9-20.6-9
			c-16,0-27.6,11.3-27.6,27.1c0,15.9,11.6,27.1,27.6,27.1c8.1,0,15-3,20.6-9.2l9.3,8.8c-7.2,8.4-18,12.9-30.7,12.9
			C445.2,140.8,427.6,124.2,427.6,101.1z"/>
	</g>
	<g>
		<path class="st0" d="M33.4,164l-8.5,13.3h-1.9L19.9,164h2l2.6,11l7.1-11H33.4z"/>
		<path class="st0" d="M34.3,167.3h1.8l-2,10.1h-1.8L34.3,167.3z M34.6,164.2c0-0.7,0.5-1.3,1.3-1.3c0.7,0,1.2,0.5,1.2,1.1
			c0,0.8-0.6,1.3-1.3,1.3C35.1,165.3,34.6,164.8,34.6,164.2z"/>
		<path class="st0" d="M36.6,176.3l0.8-1.4c0.8,0.6,2.1,1,3.5,1c1.7,0,2.6-0.5,2.6-1.5c0-2-5.6-0.6-5.6-4c0-2,1.8-3.3,4.6-3.3
			c1.3,0,2.7,0.3,3.5,0.9l-0.7,1.4c-0.8-0.6-1.9-0.8-3-0.8c-1.7,0-2.6,0.6-2.6,1.5c0,2,5.6,0.6,5.6,4c0,2.1-1.9,3.3-4.6,3.3
			C39.1,177.5,37.4,177,36.6,176.3z"/>
		<path class="st0" d="M58.6,167.3l-2,10.1h-1.7l0.2-1.3c-0.9,1-2.2,1.4-3.6,1.4c-2.2,0-3.6-1.2-3.6-3.4c0-0.4,0-0.7,0.1-1.2
			l1.1-5.7h1.8l-1.1,5.7c-0.1,0.3-0.1,0.6-0.1,0.9c0,1.3,0.8,2,2.3,2c1.9,0,3.3-1.1,3.7-3.2l1.1-5.3H58.6z"/>
		<path class="st0" d="M71.6,167.3l-2,10.1h-1.7l0.2-1.2c-0.9,0.9-2.1,1.4-3.6,1.4c-2.6,0-4.5-1.6-4.5-4.4c0-3.5,2.4-5.9,5.7-5.9
			c1.7,0,3,0.6,3.6,1.8l0.3-1.7H71.6z M68.8,171.6c0-1.8-1.1-2.8-3-2.8c-2.3,0-3.9,1.8-3.9,4.3c0,1.8,1.1,2.8,3,2.8
			C67.2,175.9,68.8,174.1,68.8,171.6z"/>
		<path class="st0" d="M75.9,163.2h1.8l-2.8,14.1h-1.8L75.9,163.2z"/>
		<path class="st0" d="M80.4,167.3h1.8l-2,10.1h-1.8L80.4,167.3z M80.7,164.2c0-0.7,0.5-1.3,1.3-1.3c0.7,0,1.2,0.5,1.2,1.1
			c0,0.8-0.6,1.3-1.3,1.3C81.2,165.3,80.7,164.8,80.7,164.2z"/>
		<path class="st0" d="M92.8,168.5l-7.3,7.4h6l-0.3,1.5h-8.5l0.2-1.2l7.4-7.4h-5.7l0.3-1.5H93L92.8,168.5z"/>
		<path class="st0" d="M105,167.3l-2,10.1h-1.7l0.2-1.2c-0.9,0.9-2.1,1.4-3.6,1.4c-2.6,0-4.5-1.6-4.5-4.4c0-3.5,2.4-5.9,5.7-5.9
			c1.7,0,3,0.6,3.6,1.8l0.3-1.7H105z M102.3,171.6c0-1.8-1.1-2.8-3-2.8c-2.3,0-3.9,1.8-3.9,4.3c0,1.8,1.1,2.8,3,2.8
			C100.6,175.9,102.3,174.1,102.3,171.6z"/>
		<path class="st0" d="M109.2,174.1c0,0.2-0.1,0.4-0.1,0.5c0,0.8,0.4,1.3,1.3,1.3c0.5,0,1-0.2,1.4-0.5l0.4,1.4
			c-0.7,0.5-1.5,0.6-2.3,0.6c-1.6,0-2.7-1-2.7-2.5c0-0.2,0-0.5,0.1-0.8l1.1-5.4h-1.7l0.3-1.5h1.7l0.4-2.2h1.8l-0.4,2.2h2.9l-0.3,1.5
			h-2.9L109.2,174.1z"/>
		<path class="st0" d="M116.4,167.3h1.8l-2,10.1h-1.8L116.4,167.3z M116.7,164.2c0-0.7,0.5-1.3,1.3-1.3c0.7,0,1.2,0.5,1.2,1.1
			c0,0.8-0.5,1.3-1.3,1.3C117.2,165.3,116.7,164.8,116.7,164.2z"/>
		<path class="st0" d="M119.7,173.1c0-3.4,2.5-5.9,5.9-5.9c2.9,0,4.7,1.7,4.7,4.3c0,3.4-2.5,6-5.9,6
			C121.6,177.5,119.7,175.7,119.7,173.1z M128.5,171.6c0-1.8-1.1-2.8-3-2.8c-2.3,0-3.9,1.8-3.9,4.3c0,1.8,1.1,2.8,3,2.8
			C126.9,175.9,128.5,174.1,128.5,171.6z"/>
		<path class="st0" d="M142.7,170.5c0,0.4,0,0.8-0.1,1.2l-1.1,5.7h-1.8l1.1-5.7c0.1-0.3,0.1-0.6,0.1-0.8c0-1.3-0.8-2.1-2.3-2.1
			c-2,0-3.3,1-3.7,3.2l-1.1,5.3h-1.8l2-10.1h1.7l-0.2,1.3c0.9-1,2.2-1.4,3.7-1.4C141.3,167.2,142.7,168.4,142.7,170.5z"/>
		<path class="st0" d="M161.5,167.3l-2,10.1h-1.7l0.2-1.2c-0.9,0.9-2.1,1.4-3.6,1.4c-2.6,0-4.5-1.6-4.5-4.4c0-3.5,2.4-5.9,5.7-5.9
			c1.7,0,3,0.6,3.6,1.8l0.3-1.7H161.5z M158.7,171.6c0-1.8-1.1-2.8-3-2.8c-2.3,0-3.9,1.8-3.9,4.3c0,1.8,1.1,2.8,3,2.8
			C157.1,175.9,158.7,174.1,158.7,171.6z"/>
		<path class="st0" d="M173.8,170.5c0,0.4,0,0.8-0.1,1.2l-1.1,5.7h-1.8l1.1-5.7c0.1-0.3,0.1-0.6,0.1-0.8c0-1.3-0.8-2.1-2.3-2.1
			c-2,0-3.3,1-3.7,3.2l-1.1,5.3H163l2-10.1h1.7l-0.2,1.3c0.9-1,2.2-1.4,3.7-1.4C172.4,167.2,173.8,168.4,173.8,170.5z"/>
		<path class="st0" d="M188.3,163.2l-2.8,14.1h-1.7l0.2-1.2c-0.9,0.9-2.1,1.4-3.6,1.4c-2.6,0-4.5-1.6-4.5-4.4c0-3.5,2.4-5.9,5.7-5.9
			c1.7,0,3,0.6,3.7,1.8l1.1-5.8H188.3z M184.8,171.6c0-1.8-1.1-2.8-3-2.8c-2.3,0-3.9,1.8-3.9,4.3c0,1.8,1.1,2.8,3,2.8
			C183.1,175.9,184.8,174.1,184.8,171.6z"/>
		<path class="st0" d="M205,170.6h1.8l-1.1,5.2c-1.3,1-3,1.7-4.9,1.7c-4,0-6.4-2.3-6.4-5.6c0-4.4,3.2-8,8.2-8c2.3,0,4.1,0.7,5.1,2.1
			l-1.4,1.2c-0.9-1-2.1-1.5-3.8-1.5c-3.8,0-6.2,2.8-6.2,6.2c0,2.4,1.6,4,4.7,4c1.1,0,2.1-0.3,3-0.8L205,170.6z"/>
		<path class="st0" d="M216.4,167.2l-0.3,1.8c-0.2,0-0.3,0-0.5,0c-2,0-3.3,1.1-3.8,3.4l-1,5h-1.8l2-10.1h1.8l-0.3,1.5
			C213.3,167.6,214.5,167.2,216.4,167.2z"/>
		<path class="st0" d="M228,167.3l-2,10.1h-1.7l0.2-1.2c-0.9,0.9-2.1,1.4-3.6,1.4c-2.6,0-4.5-1.6-4.5-4.4c0-3.5,2.4-5.9,5.7-5.9
			c1.7,0,3,0.6,3.6,1.8l0.3-1.7H228z M225.3,171.6c0-1.8-1.1-2.8-3-2.8c-2.3,0-3.9,1.8-3.9,4.3c0,1.8,1.1,2.8,3,2.8
			C223.6,175.9,225.3,174.1,225.3,171.6z"/>
		<path class="st0" d="M241,171.5c0,3.5-2.4,6-5.7,6c-1.7,0-3-0.6-3.7-1.8l-1.1,5.4h-1.8l2.7-13.8h1.7l-0.2,1.3
			c0.9-0.9,2.1-1.4,3.6-1.4C239.1,167.2,241,168.8,241,171.5z M239.2,171.6c0-1.8-1.1-2.8-3-2.8c-2.3,0-3.9,1.8-3.9,4.3
			c0,1.8,1.1,2.8,3,2.8C237.5,175.9,239.2,174.1,239.2,171.6z"/>
		<path class="st0" d="M253.3,170.5c0,0.4,0,0.8-0.1,1.2l-1.1,5.7h-1.8l1.1-5.7c0.1-0.3,0.1-0.6,0.1-0.8c0-1.3-0.8-2.1-2.3-2.1
			c-2,0-3.3,1-3.7,3.2l-1.1,5.3h-1.8l2.8-14.1h1.8l-1.1,5.2c0.9-0.9,2.2-1.3,3.6-1.3C252,167.2,253.3,168.4,253.3,170.5z"/>
		<path class="st0" d="M257.5,167.3h1.8l-2,10.1h-1.8L257.5,167.3z M257.8,164.2c0-0.7,0.5-1.3,1.3-1.3c0.7,0,1.2,0.5,1.2,1.1
			c0,0.8-0.5,1.3-1.3,1.3C258.3,165.3,257.8,164.8,257.8,164.2z"/>
		<path class="st0" d="M260.8,173.1c0-3.4,2.5-5.9,5.9-5.9c1.9,0,3.4,0.7,4.1,2.2l-1.5,0.9c-0.5-1-1.4-1.4-2.7-1.4
			c-2.3,0-4,1.8-4,4.3c0,1.8,1.1,2.8,3,2.8c1.2,0,2.3-0.5,3-1.4l1.3,0.9c-0.9,1.3-2.6,2.1-4.4,2.1
			C262.7,177.5,260.8,175.7,260.8,173.1z"/>
		<path class="st0" d="M270.7,176.3l0.8-1.4c0.8,0.6,2.1,1,3.5,1c1.7,0,2.6-0.5,2.6-1.5c0-2-5.6-0.6-5.6-4c0-2,1.8-3.3,4.6-3.3
			c1.3,0,2.7,0.3,3.5,0.9l-0.7,1.4c-0.8-0.6-1.9-0.8-3-0.8c-1.7,0-2.6,0.6-2.6,1.5c0,2,5.6,0.6,5.6,4c0,2.1-1.9,3.3-4.6,3.3
			C273.2,177.5,271.6,177,270.7,176.3z"/>
		<path class="st0" d="M291.6,165.7h-4.6l0.3-1.7h11l-0.3,1.7h-4.6l-2.3,11.7h-1.9L291.6,165.7z"/>
		<path class="st0" d="M298.3,172.9v0.1c0,1.8,1,2.9,3.2,2.9c1.3,0,2.4-0.5,3.1-1.2l0.8,1.3c-1,0.9-2.5,1.4-4.1,1.4
			c-3,0-4.8-1.7-4.8-4.4c0-3.4,2.4-5.9,5.7-5.9c2.7,0,4.5,1.6,4.5,4.4c0,0.5-0.1,0.9-0.1,1.4H298.3z M298.5,171.5h6.5
			c0.1-1.8-1.1-2.9-2.9-2.9C300.3,168.7,299,169.8,298.5,171.5z"/>
		<path class="st0" d="M308.2,173.1c0-3.4,2.5-5.9,5.9-5.9c1.9,0,3.4,0.7,4.1,2.2l-1.5,0.9c-0.5-1-1.4-1.4-2.7-1.4
			c-2.3,0-4,1.8-4,4.3c0,1.8,1.1,2.8,3,2.8c1.2,0,2.3-0.5,3-1.4l1.3,0.9c-0.9,1.3-2.6,2.1-4.4,2.1
			C310,177.5,308.2,175.7,308.2,173.1z"/>
		<path class="st0" d="M329.8,170.5c0,0.4,0,0.8-0.1,1.2l-1.1,5.7h-1.8l1.1-5.7c0.1-0.3,0.1-0.6,0.1-0.8c0-1.3-0.8-2.1-2.3-2.1
			c-2,0-3.3,1-3.7,3.2l-1.1,5.3H319l2.8-14.1h1.8l-1.1,5.2c0.9-0.9,2.2-1.3,3.6-1.3C328.4,167.2,329.8,168.4,329.8,170.5z"/>
		<path class="st0" d="M342.8,170.5c0,0.4,0,0.8-0.1,1.2l-1.1,5.7h-1.8l1.1-5.7c0.1-0.3,0.1-0.6,0.1-0.8c0-1.3-0.8-2.1-2.3-2.1
			c-2,0-3.3,1-3.7,3.2l-1.1,5.3H332l2-10.1h1.7l-0.2,1.3c0.9-1,2.2-1.4,3.7-1.4C341.4,167.2,342.8,168.4,342.8,170.5z"/>
		<path class="st0" d="M346.9,167.3h1.8l-2,10.1h-1.8L346.9,167.3z M347.2,164.2c0-0.7,0.5-1.3,1.3-1.3c0.7,0,1.2,0.5,1.2,1.1
			c0,0.8-0.6,1.3-1.3,1.3C347.7,165.3,347.2,164.8,347.2,164.2z"/>
		<path class="st0" d="M350.2,173.1c0-3.4,2.5-5.9,5.9-5.9c1.9,0,3.4,0.7,4.2,2.2l-1.5,0.9c-0.5-1-1.4-1.4-2.7-1.4
			c-2.3,0-4,1.8-4,4.3c0,1.8,1.1,2.8,3,2.8c1.2,0,2.3-0.5,3-1.4l1.3,0.9c-0.9,1.3-2.6,2.1-4.4,2.1
			C352.1,177.5,350.2,175.7,350.2,173.1z"/>
		<path class="st0" d="M372.5,167.3l-2,10.1h-1.7l0.2-1.2c-0.9,0.9-2.1,1.4-3.6,1.4c-2.6,0-4.5-1.6-4.5-4.4c0-3.5,2.4-5.9,5.7-5.9
			c1.7,0,3,0.6,3.6,1.8l0.3-1.7H372.5z M369.8,171.6c0-1.8-1.1-2.8-3-2.8c-2.3,0-3.9,1.8-3.9,4.3c0,1.8,1.1,2.8,3,2.8
			C368.1,175.9,369.8,174.1,369.8,171.6z"/>
		<path class="st0" d="M376.8,163.2h1.8l-2.8,14.1H374L376.8,163.2z"/>
		<path class="st0" d="M384.9,171.9c0-4.4,3.2-8,8.2-8c2.2,0,4,0.7,4.9,2.1l-1.4,1.2c-0.8-1-2-1.6-3.7-1.6c-3.8,0-6.1,2.9-6.1,6.2
			c0,2.4,1.6,4,4.6,4c1.6,0,3-0.5,4-1.6l1.1,1.3c-1.2,1.4-3.1,2-5.3,2C387.2,177.5,384.9,175.2,384.9,171.9z"/>
		<path class="st0" d="M397.8,173.1c0-3.4,2.5-5.9,5.9-5.9c2.9,0,4.7,1.7,4.7,4.3c0,3.4-2.5,6-5.9,6
			C399.7,177.5,397.8,175.7,397.8,173.1z M406.6,171.6c0-1.8-1.1-2.8-3-2.8c-2.3,0-3.9,1.8-3.9,4.3c0,1.8,1.1,2.8,3,2.8
			C405,175.9,406.6,174.1,406.6,171.6z"/>
		<path class="st0" d="M427.9,170.5c0,0.4-0.1,0.8-0.1,1.2l-1.1,5.7h-1.8l1.1-5.7c0.1-0.3,0.1-0.6,0.1-0.9c0-1.3-0.7-2-2.2-2
			c-1.8,0-3.1,1-3.5,3.2l-1.1,5.4h-1.8l1.1-5.7c0.1-0.3,0.1-0.6,0.1-0.9c0-1.3-0.7-2-2.2-2c-1.9,0-3.1,1-3.5,3.2l-1.1,5.3H410
			l2-10.1h1.7l-0.2,1.3c0.9-0.9,2.1-1.4,3.5-1.4c1.6,0,2.7,0.6,3.2,1.8c1-1.2,2.4-1.8,4.1-1.8C426.6,167.2,427.9,168.4,427.9,170.5z
			"/>
		<path class="st0" d="M448.1,170.5c0,0.4-0.1,0.8-0.1,1.2l-1.1,5.7H445l1.1-5.7c0.1-0.3,0.1-0.6,0.1-0.9c0-1.3-0.7-2-2.2-2
			c-1.8,0-3.1,1-3.5,3.2l-1.1,5.4h-1.8l1.1-5.7c0.1-0.3,0.1-0.6,0.1-0.9c0-1.3-0.7-2-2.2-2c-1.9,0-3.1,1-3.5,3.2l-1.1,5.3h-1.8
			l2-10.1h1.8l-0.2,1.3c0.9-0.9,2.1-1.4,3.5-1.4c1.6,0,2.7,0.6,3.2,1.8c1-1.2,2.4-1.8,4.1-1.8C446.8,167.2,448.1,168.4,448.1,170.5z
			"/>
		<path class="st0" d="M461.7,167.3l-2,10.1h-1.7l0.2-1.3c-0.9,1-2.2,1.4-3.6,1.4c-2.2,0-3.6-1.2-3.6-3.4c0-0.4,0-0.7,0.1-1.2
			l1.1-5.7h1.8l-1.1,5.7c-0.1,0.3-0.1,0.6-0.1,0.9c0,1.3,0.8,2,2.3,2c1.9,0,3.3-1.1,3.7-3.2l1.1-5.3H461.7z"/>
		<path class="st0" d="M474,170.5c0,0.4,0,0.8-0.1,1.2l-1.1,5.7h-1.8l1.1-5.7c0.1-0.3,0.1-0.6,0.1-0.8c0-1.3-0.8-2.1-2.3-2.1
			c-2,0-3.3,1-3.7,3.2l-1.1,5.3h-1.8l2-10.1h1.7l-0.2,1.3c0.9-1,2.2-1.4,3.7-1.4C472.6,167.2,474,168.4,474,170.5z"/>
		<path class="st0" d="M478.2,167.3h1.8l-2,10.1h-1.8L478.2,167.3z M478.5,164.2c0-0.7,0.5-1.3,1.3-1.3c0.7,0,1.2,0.5,1.2,1.1
			c0,0.8-0.6,1.3-1.3,1.3C479,165.3,478.5,164.8,478.5,164.2z"/>
		<path class="st0" d="M484.2,174.1c0,0.2-0.1,0.4-0.1,0.5c0,0.8,0.4,1.3,1.3,1.3c0.5,0,1-0.2,1.4-0.5l0.4,1.4
			c-0.7,0.5-1.5,0.6-2.3,0.6c-1.6,0-2.7-1-2.7-2.5c0-0.2,0-0.5,0.1-0.8l1.1-5.4h-1.7l0.3-1.5h1.7l0.4-2.2h1.8l-0.4,2.2h2.9l-0.3,1.5
			h-2.9L484.2,174.1z"/>
		<path class="st0" d="M500.1,167.3l-7.2,11.2c-1.3,2.1-2.3,2.7-3.9,2.7c-1,0-2-0.3-2.5-0.9l1-1.4c0.4,0.4,1,0.7,1.7,0.7
			c0.8,0,1.4-0.4,2.2-1.5l0.5-0.8l-2.4-10h1.8l1.9,8.1l5.1-8.1H500.1z"/>
	</g>
</g>
</svg>
