<svg xmlns="http://www.w3.org/2000/svg" width="374.2" height="114.5">
  <style>
    .st0{fill:#fff}
  </style>
  <path class="st0" d="M112.2 114.5h-.2c-.6-.1-1-.7-.9-1.3L135 .9c.1-.6.7-1 1.3-.9.6.1 1 .7.9 1.3l-23.9 112.3c-.1.5-.6.9-1.1.9zM163.1 28.7c-2.7 0-3.4 0-6.2.1l-.1-.1c0-2.6 0-5.1.1-7.6 0-1.6.1-3.2.1-4.9 0-2.5-.1-4.3-.2-7.4l.1-.1c2.8 0 3.4 0 6.2-.1l.1.1c-.1 2.8-.1 4.5-.1 7.8 0 4 .1 8.1.2 12l-.2.2zM173.6 20.5v3.9c2.2 0 4.3-.1 7.2-.2l.2.2-.3 4.2-.3.2H175c-3.1 0-4.7.1-7.4.1l-.1-.2c.1-3.3.1-5 .1-8.9 0-6.8-.1-8-.2-10.9l.2-.2h12.8l.1.1-.2 3.9-.2.1h-6.6v3.6l6.2-.1.2.2-.2 3.7-.2.2h-5.9zM190.1 20.5v3.9c2.2 0 4.3-.1 7.2-.2l.2.2-.3 4.2-.3.2h-5.4c-3.1 0-4.7.1-7.4.1l-.1-.2c.1-3.3.1-5 .1-8.9 0-6.8-.1-8-.2-10.9l.2-.2h12.8l.1.1-.2 3.9-.2.1H190v3.6l6.2-.1.2.2-.2 3.7-.2.2h-5.9zM206.7 20.5v3.9c2.2 0 4.3-.1 7.2-.2l.2.2-.3 4.2-.3.2h-5.4c-3.1 0-4.7.1-7.4.1l-.1-.2c.1-3.3.1-5 .1-8.9 0-6.8-.1-8-.2-10.9l.2-.2h12.8l.1.1-.2 3.9-.2.1h-6.6v3.6l6.2-.1.2.2-.2 3.7-.2.2h-5.9z"/>
  <g>
    <path class="st0" d="M164.1 45c-1.3-.6-2.5-1-3.8-1-1.5 0-2.9.4-4.2 1.1s-2.3 1.8-3 3.1-1.1 2.8-1.1 4.4c0 1.6.4 3 1.1 4.4.7 1.3 1.7 2.4 3 3.1 1.3.8 2.7 1.2 4.2 1.2 1.2 0 2.5-.3 3.7-.9 1.3-.6 2.4-1.4 3.4-2.4l3.6 3.9c-1.5 1.5-3.2 2.7-5.1 3.6-2 .9-3.9 1.3-5.9 1.3-2.7 0-5.1-.6-7.3-1.9-2.2-1.2-3.9-2.9-5.2-5.1-1.2-2.2-1.9-4.6-1.9-7.2 0-2.6.6-5 1.9-7.1 1.3-2.1 3-3.8 5.3-5 2.2-1.2 4.7-1.8 7.4-1.8 2 0 3.9.4 5.9 1.2 1.9.8 3.6 1.9 4.9 3.3l-3.6 4.4c-1-1.1-2.1-1.9-3.3-2.6zM194.7 40.5c2.2 1.2 4 2.9 5.3 5.1 1.3 2.1 1.9 4.5 1.9 7.2 0 2.6-.6 5-1.9 7.2-1.3 2.2-3.1 3.9-5.3 5.1-2.2 1.2-4.7 1.9-7.5 1.9-2.7 0-5.2-.6-7.5-1.9-2.2-1.2-4-2.9-5.3-5.1-1.3-2.1-1.9-4.5-1.9-7.2 0-2.6.6-5 1.9-7.2 1.3-2.1 3-3.8 5.3-5.1 2.2-1.2 4.7-1.8 7.5-1.8s5.3.6 7.5 1.8zm-11.6 4.7c-1.3.8-2.3 1.8-3.1 3.1-.8 1.3-1.1 2.8-1.1 4.4 0 1.6.4 3.1 1.2 4.4.8 1.3 1.8 2.4 3.1 3.2 1.3.8 2.7 1.2 4.2 1.2s2.9-.4 4.2-1.2c1.3-.8 2.3-1.8 3-3.2.7-1.3 1.1-2.8 1.1-4.4 0-1.6-.4-3-1.1-4.4-.7-1.3-1.7-2.4-3-3.1-1.3-.8-2.6-1.2-4.2-1.2-1.6.1-3 .4-4.3 1.2zM206.4 39.1h6.9l8.5 16.8 8.4-16.8h6.8v27.3h-5.5V48l-7.8 15.7h-4L211.9 48v18.5h-5.5V39.1zM263.2 41.6c1.9 1.7 2.8 4 2.8 7 0 3.2-1 5.6-2.9 7.4-1.9 1.8-4.6 2.6-8.1 2.6h-5.4v7.8h-6.2V39.1H255c3.6 0 6.3.8 8.2 2.5zm-4.4 10.7c.9-.8 1.4-2 1.4-3.5s-.5-2.6-1.4-3.4c-.9-.8-2.3-1.2-4-1.2h-5.1v9.3h5.1c1.7 0 3-.4 4-1.2zM277.7 59.8c1.1 1.1 2.6 1.7 4.4 1.7 1.8 0 3.2-.6 4.3-1.7 1.1-1.1 1.6-2.7 1.6-4.6v-16h6.2v16c0 2.4-.5 4.5-1.5 6.2-1 1.8-2.4 3.1-4.2 4.1-1.8 1-4 1.4-6.4 1.4-2.5 0-4.6-.5-6.5-1.4-1.8-.9-3.3-2.3-4.3-4.1-1-1.8-1.5-3.8-1.5-6.2v-16h6.2v16c0 1.9.6 3.4 1.7 4.6zM297.4 39.1h22.8v5.2h-8.4v22.1h-6.2V44.3h-8.3v-5.2zM324 39.1h20.8v5.1h-14.6v5.9h13.2v5.1h-13.2v6.1h15.1v5.1H324V39.1zM367.2 66.4l-4.3-7.8h-6.3v7.8h-6.2V39.1h11.9c3.6 0 6.3.8 8.3 2.5 2 1.7 2.9 4 2.9 7 0 2.1-.4 3.9-1.3 5.4-.9 1.5-2.1 2.6-3.8 3.4l5.8 9h-7zm-10.6-12.9h5.7c1.7 0 3-.4 4-1.2.9-.8 1.4-2 1.4-3.5s-.5-2.6-1.4-3.4c-.9-.8-2.2-1.2-4-1.2h-5.7v9.3zM151.6 83.7c-1.6-.5-2.9-.8-4-.8s-1.9.2-2.5.6c-.6.4-.9 1-.9 1.7 0 1 .4 1.7 1.3 2.2.9.5 2.3 1 4.2 1.6 1.9.5 3.4 1.1 4.6 1.6 1.2.5 2.2 1.4 3.1 2.5.9 1.1 1.3 2.5 1.3 4.3 0 1.7-.5 3.2-1.4 4.5-.9 1.3-2.2 2.2-3.8 2.9-1.6.7-3.4 1-5.5 1-2.2 0-4.4-.4-6.5-1.2-2.1-.8-4-1.8-5.5-3.2l2.5-5c1.4 1.2 3 2.3 4.8 3 1.8.8 3.4 1.1 4.9 1.1 1.3 0 2.3-.2 3-.7.7-.5 1.1-1.1 1.1-2 0-.7-.2-1.3-.7-1.7-.5-.5-1.1-.8-1.8-1.1-.7-.3-1.8-.6-3.1-1-1.9-.5-3.4-1-4.6-1.6-1.2-.5-2.2-1.3-3.1-2.4-.9-1.1-1.3-2.5-1.3-4.3 0-1.6.4-3.1 1.3-4.3.9-1.2 2.1-2.2 3.7-2.8 1.6-.7 3.4-1 5.5-1 1.9 0 3.7.3 5.5.8 1.8.5 3.4 1.3 4.8 2.2l-2.4 5.1c-1.5-.8-2.9-1.5-4.5-2zM183.5 79.5c2.2 1.2 4 2.9 5.3 5.1 1.3 2.1 1.9 4.5 1.9 7.2 0 2.6-.6 5-1.9 7.2-1.3 2.2-3.1 3.9-5.3 5.1-2.2 1.2-4.7 1.9-7.5 1.9-2.7 0-5.2-.6-7.5-1.9-2.2-1.2-4-2.9-5.3-5.1-1.3-2.1-1.9-4.5-1.9-7.2 0-2.6.6-5 1.9-7.2 1.3-2.1 3-3.8 5.3-5.1 2.2-1.2 4.7-1.8 7.5-1.8s5.3.6 7.5 1.8zm-11.6 4.7c-1.3.8-2.3 1.8-3.1 3.1s-1.1 2.8-1.1 4.4c0 1.6.4 3.1 1.2 4.4.8 1.3 1.8 2.4 3.1 3.2 1.3.8 2.7 1.2 4.2 1.2s2.9-.4 4.2-1.2 2.3-1.8 3-3.2c.7-1.3 1.1-2.8 1.1-4.4 0-1.6-.4-3-1.1-4.4-.7-1.3-1.7-2.4-3-3.1-1.3-.8-2.6-1.2-4.2-1.2-1.6.1-3 .5-4.3 1.2zM211 84c-1.3-.6-2.5-1-3.8-1-1.5 0-2.9.4-4.2 1.1-1.3.8-2.3 1.8-3 3.1-.7 1.3-1.1 2.7-1.1 4.3 0 1.6.4 3 1.1 4.4.7 1.3 1.7 2.4 3 3.1 1.3.8 2.7 1.2 4.2 1.2 1.2 0 2.5-.3 3.7-.9 1.3-.6 2.4-1.4 3.4-2.4l3.6 3.9c-1.5 1.5-3.2 2.7-5.1 3.6-2 .9-3.9 1.3-5.9 1.3-2.7 0-5.1-.6-7.3-1.9-2.2-1.2-3.9-2.9-5.2-5.1-1.2-2.2-1.9-4.6-1.9-7.2 0-2.6.6-5 1.9-7.1 1.3-2.1 3-3.8 5.3-5 2.2-1.2 4.7-1.8 7.4-1.8 2 0 3.9.4 5.9 1.2 1.9.8 3.6 1.9 4.9 3.3l-3.6 4.4c-1-.9-2.1-1.8-3.3-2.5zM221.9 78.1h6.2v27.3h-6.2V78.1zM234.5 78.1h20.8v5.1h-14.6v5.9h13.2v5.1h-13.2v6.1h15.1v5.1h-21.2V78.1zM258.3 78.1h22.8v5.2h-8.4v22.1h-6.2v-22h-8.3v-5.3zM308 78.1l-10 18.5v8.8h-6.2v-8.7L281.7 78h6.2l7 12.3 6.8-12.3h6.3z"/>
  </g>
  <g>
    <path class="st0" d="M53.6 6.5C24 6.5 0 28.5 0 55.5c0 27.1 24 49 53.6 49s53.6-21.9 53.6-49c-.1-27-24.1-49-53.6-49zm8.1 72.6c0 6.4.5 6.6 4.9 6.9l4.6.3.2.1c1 .5 1.3 1.8 1.2 2.8-.1 1.1-.8 1.9-1.6 2.1h-.2c-3.6-.2-10-.3-16.9-.3-7.3 0-13.7.1-17.3.3h-.2c-.9-.2-1.5-1-1.6-2.1-.1-1 .2-2.3 1.2-2.8l.2-.1 4.6-.3c4.5-.3 4.9-.5 4.9-7-17.6-2-28.6-10.5-28.6-22.9 0-12.4 9.5-20.4 26.4-22.7.1 1.6.1 3.8.1 6.2-1 .3-2 .6-2.9.9l-.7.3c-3.5 1.3-5.9 3.8-7 7.1v.1c-.6 1.5-.9 4.2-.9 7.8v.2c0 3.6.3 6.3.9 7.8v.1c.8 2.6 2.4 4.6 4.8 6 3.3 2.2 9.7 3.4 16 3.4 6.9 0 13.8-1.4 16.8-4 1.8-1.4 3.1-3.2 3.8-5.4v-.1c.6-1.5.9-4.2.9-7.8V55.7c0-3.6-.3-6.3-.9-7.8v-.1c-1.1-3.4-3.5-5.8-6.9-7.1H67c-1.5-.6-3.3-1.1-5.3-1.4v31.3c-2.3.4-4.9.7-8 .7-3.2 0-5.9-.3-8.3-.7v-7.3c.1-6.8.3-17.5.1-25.1 0-.2-.1-5.3-.1-5.5 0-5-.5-5.5-4.2-5.9l-5.2-.6c-.8-.4-1.3-1.3-1.4-2.4-.1-1.1.3-2.1 1.1-2.5l.2-.1h.2c3.8-.5 8.7-1.3 13.6-2.4 2.6-.6 5-1.4 6.8-2 1.8-.6 2.5-.8 3-.8 1 0 2.1.5 2.5 1.7l.1.2v.2c-.2 1.8-.3 5.6-.3 10.2v4.9c18.4 1.8 28.7 9.9 28.7 23 0 12.3-11 20.9-28.8 22.9zM84.7 101.5H90v1h-2.1v5.9h-1.2v-5.9h-2.1v-1zm6.3 0h1.4l2.3 4.6 2.2-4.6h1.4v6.9h-1.1v-5.2l-2.2 4.5h-.8l-2.2-4.5v5.2h-1v-6.9z"/>
  </g>
</svg>
