<svg xmlns="http://www.w3.org/2000/svg" width="285.9" height="83.3">
  <style>
    .st0{fill:#fff}
  </style>
  <path class="st0" d="M95.3 74.2V11h17.5v63.2H95.3zM122 74.2V11h48.1v12.3h-30.6v13h28.2v12.2h-28.2v13.4h30.6v12.3H122zM179.9 74.2V11H228v12.3h-30.6v13h28.2v12.2h-28.2v13.4H228v12.3h-48.1zM237.8 74.2V11h48.1v12.3h-30.6v13h28.2v12.2h-28.2v13.4h30.6v12.3h-48.1z"/>
  <path fill="none" d="M0 0h285.9v83.3H0z"/>
  <path class="st0" d="M39.2 11.7c2.8-2.2 6.3-.4 8.6 1.6 2.5 1.9 5 4 7.3 6.2l.4.2c6.2 5.8 12 12.2 16.7 19 .8 1.2 1.4 2.5 1 4.1-1.6 4-4.8 7.1-7.6 10.6-6 6.5-12.4 12.9-19.6 17.9-1.5 1-3.4 2-5.2 1.2-5.3-2.8-9.7-7.3-14.4-11.4-5.4-5-10.8-10.8-14.8-16.8-.6-.9-.8-1.9-.8-3 .5-2.1 2-3.8 3.3-5.6 4.8-6.1 10.7-11.9 16.6-17.2l.6-.6c2.7-2.3 5.3-4.2 7.9-6.2zm8.2-6.3L44.2.9c-.4-.2-.9-.6-1.3-.7-.9-.5-1.9 0-2.6.6l-5.7 7.4c-9.2 11.3-20 21.9-31.9 30.1-.9.7-2.3 1.4-2.6 2.6-.3 1.1.3 2 .9 2.7 9.5 6.5 18.5 14.3 26.6 23.1 1.4 1.5 2.6 3 4 4.4 2.4 3.1 5.1 6.3 7.3 9.7.7.7.8 1.9 1.9 2.2.8.3 1.9.5 2.7 0l.8-.8C54 68.4 66.5 55.9 80.4 45.8c1.4-1.2 4-1.7 4.1-4-.1-1.1-.7-2.1-1.6-2.7h-.2c-7.2-4.9-13.8-10.4-20.1-16.6l-6.9-7.2c-3-3.2-5.7-6.6-8.3-9.9zm-7.1 8c2.9-1.9 5.4.8 7.6 2.3 8.5 6.9 16.6 14.7 22.7 23.6.8 1.1 1.1 2.9.4 4.2-1.6 2.7-3.7 5.1-5.8 7.5v.1c-5.1 5.4-10.4 11-16.2 15.5-2.8 1.7-5.4 5.5-9.1 3.2-8.3-6.1-16.2-13.6-23-21.7-1.1-1.8-2.9-3.2-3.7-5.2-1.1-2.7 1.3-4.7 2.7-6.7 7-8.3 15.5-16.6 24.4-22.8zm1.8 5.6l-.8 2.5-3.9 11.1c1 .1 2.2 0 3.1.1v.1L40 45.3l.1.1c1.2.1 2.8.2 4.1 0v-.2L43.7 33l.1-.4 3.4-.1c-1.7-4.5-3.4-9-4.9-13.6h-.2v.1zM28.9 36.4c-2.2 1.1-5.4 2.7-5 5.7.5 1.6 2.2 2.7 3.6 3.3 7.7 3.4 17.9 3.5 26.1 1 2-.8 4.7-1.9 5.1-4.4 0-2-2.2-3.3-3.7-4.1v-.1c.5-.2 1.2-.4 1.7-.5v-.1c-2.7-.5-5.4-1.2-8-1.9.5 1.2.9 2.4 1.3 3.6.8-.3 1.6-.4 2.5-.6 1.4.5 3.4 1.3 3.6 3.1.2 1.6-1.6 2.4-2.8 3.1-6 2.2-12.7 2.4-18.9.7-1.7-.5-4.2-1.2-4.4-3.4 1.2-2.9 4.4-3.5 7-4.2-1.4-.9-2.7-1.6-4-2.6-1.5.2-2.8.9-4.1 1.4zm11 12.5c-.2 4.5-.3 8.6-.6 13.1 1.8.2 3.8.3 5.6 0l-.6-12.5V49c-1.5 0-2.8.1-4.4-.1z"/>
  <path d="M56.4 74.4c-1.6 0-2.9 1.1-2.9 2.9 0 1.9 1.4 2.9 2.9 2.9s2.9-1.1 2.9-2.9c0-1.8-1.4-2.9-2.9-2.9zm0 5.2c-1.2 0-2.1-.9-2.1-2.3 0-1.3.9-2.2 2.1-2.2 1.1 0 2.1.9 2.1 2.2 0 1.4-1 2.3-2.1 2.3zm1.3-2.9c0-.7-.5-1-1.3-1h-1.2V79h.7v-1.3h.3l.7 1.3h.8l-.8-1.4c.4-.1.8-.3.8-.9zm-1.2.4h-.6v-.8h.5c.3 0 .6 0 .6.4 0 .3-.2.4-.5.4z" fill-rule="evenodd" clip-rule="evenodd" fill="#fff"/>
</svg>
