<svg xmlns="http://www.w3.org/2000/svg" width="152.3" height="87.6">
  <style>
    .st0{fill:#fff}
  </style>
  <path class="st0" d="M38.5 18.7V1h2.9v17.7h-2.9zM48 18.7V1h9.3v2.4h-6.5v5H57v2.3h-6.2v5.5h6.5v2.4H48zM63.2 18.7V1h9.3v2.4H66v5h6.2v2.3H66v5.5h6.5v2.4h-9.3zM78.3 18.7V1h9.3v2.4h-6.5v5h6.2v2.3h-6.2v5.5h6.5v2.4h-9.3z"/>
  <path class="st0" d="M151.7 55.9c-2.7 1.4-6.4 2.3-9.9 2.3-9.3 0-12-6.5-12-14.7 0-9.5 3.3-14.6 11.7-14.6h9.5v-6.7h-49.5V0H94v22.2H31.4l-9.1 25.2c-.9 2.5-1.7 5.2-2.4 7.7h-.2c-.7-2.6-1.5-5.2-2.4-7.9l-8.8-25H0l15.8 41.9h7.8L37 28.9h11.9c-2.5 2.8-3.8 6.5-3.8 10.4 0 5.3 2 9.6 6.2 12-2.9 1.3-4.7 4-4.7 7 0 2.8 1.6 5 4.1 6.2-3.7 1.9-6.9 5.9-6.9 10.9 0 8 6.8 12.3 17.6 12.3 13.1 0 22.2-6.9 22.2-15.8 0-7.6-5.1-12-14.2-12h-7.8c-5.1 0-7.2-.9-7.2-3.3 0-1.3.8-2.7 2.7-3.5 1.4.3 3.5.5 5.3.5 12 0 18.2-6.6 18.2-15.6 0-3.4-2.6-7.3-4.7-9.1H94v23.4c0 9 2.6 12.6 11.2 12.6 2.7 0 5.7-.3 8.1-.8v-6.4c-1.7.4-3.8.8-5.7.8-4.7 0-6-1.9-6-8.8V28.9h24.7c-3.1 3.6-4.4 8.9-4.4 15.6 0 15.4 8.3 20.1 18.4 20.1 4.9 0 9.4-1.1 12.1-2.2l-.7-6.5zM56.6 66.2h10.7c5.9 0 8.8 2.5 8.8 6.6 0 5.1-5 8.8-13.6 8.8-6.6 0-11.3-2.7-11.3-7.7 0-3.2 2.1-6 5.4-7.7zm16.6-27.6c0 6.1-4 9.6-10.4 9.6-6.6 0-10.4-3.4-10.4-9.6 0-5.1 3.2-9 8.8-9.7H65c5.2.7 8.2 4.2 8.2 9.7z"/>
</svg>
