<svg width="341" height="60" viewBox="0 0 341 60" fill="none" xmlns="http://www.w3.org/2000/svg">
<path d="M92.6527 52.3173L74.0031 9.24412C73.7721 8.83995 73.7144 8.49351 73.7144 7.97386C73.7144 6.58813 74.9846 5.26013 76.4858 5.26013C77.8716 5.26013 78.8531 6.18395 79.315 7.33873L96.0593 47.4673L112.861 7.22326C113.323 6.24169 114.305 5.26013 115.575 5.26013C117.076 5.26013 118.289 6.53039 118.289 7.91612C118.289 8.32029 118.231 8.66673 118.058 9.01316L99.2927 52.3173C98.6576 53.7031 97.676 54.6269 96.1171 54.6269H95.8284C94.2117 54.5692 93.1724 53.7031 92.6527 52.3173Z" fill="#00A599"/>
<path d="M127.758 8.0316C127.758 6.53039 129.028 5.26013 130.472 5.26013C131.973 5.26013 133.243 6.53039 133.243 8.0316V51.5667C133.243 53.068 131.973 54.3382 130.472 54.3382C129.028 54.3382 127.758 53.068 127.758 51.5667V8.0316Z" fill="#00A599"/>
<path d="M144.445 48.2179C143.809 47.8137 143.405 47.0631 143.405 46.1393C143.405 44.6381 144.56 43.4256 146.061 43.4256C146.754 43.4256 147.389 43.7142 147.736 44.0607C152.297 47.9292 156.858 49.7768 163.037 49.7768C169.561 49.7768 173.834 46.3125 173.834 41.5202V41.4624C173.834 36.9588 171.409 34.4183 161.247 32.2819C150.103 29.8569 145.022 26.2771 145.022 18.3091V18.1936C145.022 10.5721 151.72 4.97144 160.9 4.97144C167.251 4.97144 171.871 6.58812 176.316 9.76376C176.894 10.1679 177.471 10.9185 177.471 11.9578C177.471 13.4013 176.316 14.6138 174.815 14.6138C174.18 14.6138 173.718 14.4984 173.199 14.1519C169.099 11.2072 165.173 9.93698 160.669 9.93698C154.376 9.93698 150.392 13.4013 150.392 17.7317V17.7895C150.392 22.3508 152.874 24.8914 163.556 27.2009C174.353 29.5682 179.319 33.4945 179.319 40.885V41.0005C179.319 49.3149 172.39 54.6846 162.806 54.6846C155.704 54.7424 149.872 52.4906 144.445 48.2179Z" fill="#00A599"/>
<path d="M20.1004 20.0669C18.2661 21.9011 15.3237 21.9011 13.4895 20.0669C11.6552 18.2326 11.6552 15.2902 13.4895 13.4559C15.3237 11.6217 18.2661 11.6217 20.1004 13.4559C21.9346 15.2902 21.9346 18.2708 20.1004 20.0669Z" fill="#3197C2"/>
<path d="M39.8949 39.8615C41.7291 38.0272 44.6716 38.0272 46.5058 39.8615C48.3401 41.6957 48.3401 44.6382 46.5058 46.4724C44.6716 48.3067 41.7291 48.3067 39.8949 46.4724C38.0988 44.6382 38.0988 41.6957 39.8949 39.8615Z" fill="#3197C2"/>
<path d="M39.8949 13.4942C41.7291 11.6599 44.6716 11.6599 46.5058 13.4942C48.3401 15.3284 48.3401 18.2708 46.5058 20.1051C44.6716 21.9393 41.7291 21.9393 39.8949 20.1051C38.0988 18.2708 38.0988 15.2902 39.8949 13.4942Z" fill="#3197C2"/>
<path d="M13.5275 39.8615C15.3618 38.0272 18.3042 38.0272 20.1385 39.8615C21.9727 41.6957 21.9727 44.6382 20.1385 46.4724C18.3042 48.3067 15.3618 48.3067 13.5275 46.4724C11.6933 44.6382 11.6933 41.6957 13.5275 39.8615Z" fill="#3197C2"/>
<path d="M36.5703 34.2441C36.4557 34.2441 36.3793 34.2441 36.2646 34.2823C35.1947 34.3588 34.2011 33.6327 33.8572 33.2506C33.8572 33.2506 33.7425 33.1359 33.5897 32.9831C35.0418 31.2635 35.0418 28.7032 33.5515 26.9835C33.7425 26.7925 33.819 26.6778 33.8572 26.6778C34.2393 26.2957 35.2711 25.5314 36.2264 25.7225H36.2646C36.3793 25.7225 36.4557 25.7607 36.5703 25.7607C37.8696 25.7607 38.9014 24.7289 38.9014 23.4297C38.9014 22.1304 37.8696 21.0987 36.5703 21.0987C35.2711 21.0987 34.2393 22.1304 34.2393 23.4297C34.2393 23.5061 34.2393 23.6208 34.2393 23.6972C34.354 24.7672 33.5897 25.7607 33.2076 26.1046C33.2076 26.1046 33.0929 26.2193 32.9401 26.3721C31.1822 24.92 28.6601 24.9582 26.9405 26.4103C26.7495 26.2193 26.6348 26.1046 26.6348 26.1046C26.2527 25.7225 25.4884 24.6907 25.6795 23.7354V23.6972C25.6795 23.5825 25.7177 23.5061 25.7177 23.3915C25.7177 22.0922 24.6859 21.0605 23.3867 21.0605C22.0874 21.0605 21.0557 22.0922 21.0557 23.3915C21.0557 24.6907 22.0874 25.7225 23.3867 25.7225C23.5013 25.7225 23.5778 25.7225 23.6542 25.6843C24.7242 25.6079 25.7177 26.3339 26.0616 26.7161C26.0616 26.7161 26.1763 26.8307 26.3673 27.0218C24.9534 28.7414 24.9534 31.2635 26.4056 32.9449C26.2145 33.1359 26.0998 33.2506 26.0998 33.2506C25.7177 33.6327 24.6859 34.3588 23.7306 34.2059H23.6924C23.5778 34.2059 23.5013 34.1677 23.3867 34.1677C22.0874 34.1677 21.0557 35.1994 21.0557 36.4987C21.0557 37.798 22.0874 38.8297 23.3867 38.8297C24.6859 38.8297 25.7177 37.798 25.7177 36.4987C25.7177 36.3841 25.7177 36.3076 25.7177 36.2312C25.6031 35.1612 26.3673 34.1677 26.7495 33.8238C26.7495 33.8238 26.8641 33.7091 27.0552 33.5181C28.7748 34.9702 31.3351 34.9702 33.0547 33.5181C33.2458 33.6709 33.3222 33.7855 33.3604 33.8238C33.7425 34.2059 34.4686 35.2377 34.3157 36.193V36.2312C34.3157 36.3459 34.2775 36.4223 34.2775 36.5369C34.2775 37.8362 35.3093 38.8679 36.6086 38.8679C37.9078 38.8679 38.9396 37.8362 38.9396 36.5369C38.9014 35.2759 37.8696 34.2441 36.5703 34.2441Z" fill="#3197C2"/>
<path d="M58.5431 26.6778C56.7088 24.8436 53.7664 24.8436 51.9321 26.6778C51.4736 27.1364 51.1297 27.7096 50.9004 28.2828C50.3272 29.3528 48.8751 29.4292 48.3783 29.4292C48.3401 29.4292 48.3401 29.4292 48.3019 29.4292C48.1872 28.7414 47.8815 28.0535 47.3083 27.5185C45.9326 26.1428 43.7162 26.1428 42.3788 27.5185C41.0031 28.8942 41.0031 31.1106 42.3788 32.4481C43.7544 33.8238 45.9708 33.8238 47.3083 32.4481C47.8815 31.8749 48.1872 31.187 48.3019 30.461C48.3401 30.461 48.3783 30.461 48.4165 30.461C48.9515 30.461 50.4036 30.5756 50.9004 31.5692C51.1297 32.1806 51.4736 32.7538 51.9703 33.2506C53.8046 35.0848 56.747 35.0848 58.5813 33.2506C60.3773 31.4545 60.3773 28.5121 58.5431 26.6778ZM26.7112 1.3805C24.877 3.21475 24.877 6.15719 26.7112 7.99143C27.208 8.48821 27.7812 8.83213 28.3926 9.06141C29.4244 9.63461 29.5008 11.0485 29.5008 11.5835C29.5008 11.6217 29.5008 11.6599 29.5008 11.6981C28.7748 11.8128 28.0869 12.1185 27.5519 12.6917C26.1762 14.0674 26.1762 16.2838 27.5519 17.6212C28.9276 18.9969 31.144 18.9969 32.4815 17.6212C33.8572 16.2455 33.8572 14.0292 32.4815 12.6917C31.9465 12.1567 31.2586 11.8128 30.5326 11.6981C30.5326 11.6217 30.5326 11.5835 30.5326 11.5453C30.5326 10.9721 30.6854 9.40533 31.7936 8.98499C31.9083 8.94677 31.9847 8.90856 32.0611 8.83213C32.5197 8.60285 32.9018 8.33536 33.284 7.95322C35.1182 6.11897 35.1182 3.17653 33.284 1.34229C31.4879 -0.453747 28.5455 -0.453747 26.7112 1.3805ZM31.6026 50.9052C30.5708 50.332 30.4944 48.8799 30.5326 48.3831C30.5326 48.3449 30.5326 48.3067 30.5326 48.2685C31.2586 48.1538 31.9465 47.8481 32.4815 47.2749C33.8572 45.8992 33.8572 43.6828 32.4815 42.3454C31.1058 40.9697 28.8894 40.9697 27.5519 42.3454C26.1762 43.7211 26.1762 45.9374 27.5519 47.2749C28.0869 47.8099 28.7748 48.1538 29.5008 48.2685C29.5008 48.3067 29.5008 48.3831 29.5008 48.4213C29.5008 48.9945 29.348 50.5613 28.2398 50.9816C28.1251 51.0198 28.0487 51.058 27.9723 51.1345C27.5137 51.3637 27.1316 51.6312 26.7494 52.0134C24.9152 53.8476 24.9152 56.7901 26.7494 58.6243C28.5837 60.4586 31.5261 60.4586 33.3604 58.6243C35.1946 56.7901 35.1946 53.8476 33.3604 52.0134C32.8254 51.4784 32.214 51.1345 31.6026 50.9052ZM12.6487 27.4803C12.0755 28.0535 11.7698 28.7414 11.6551 29.4674C11.6169 29.4674 11.5787 29.4674 11.5405 29.4674C11.0055 29.4674 9.55337 29.3528 9.0566 28.3592C8.82732 27.7478 8.48339 27.1746 7.98662 26.6778C6.15237 24.8436 3.20993 24.8436 1.37569 26.6778C-0.458562 28.5121 -0.458562 31.4545 1.37569 33.2888C3.20993 35.123 6.15237 35.123 7.98662 33.2888C8.44518 32.8302 8.7891 32.257 9.01838 31.6838C9.55337 30.6138 11.0437 30.5374 11.5405 30.5374C11.5405 30.5374 11.5787 30.5374 11.6169 30.5374C11.7315 31.2252 12.0372 31.9131 12.6105 32.4481C13.9861 33.8238 16.2025 33.8238 17.54 32.4481C18.9157 31.0724 18.9157 28.856 17.54 27.5185C16.2407 26.1428 14.0244 26.1428 12.6487 27.4803Z" fill="#3197C2"/>
<path d="M194.243 48.9677L210.613 34.5038C218.061 27.9214 220.659 24.1971 220.659 19.4336C220.659 13.8039 216.242 10.2529 210.959 10.2529C205.849 10.2529 202.471 12.678 199.007 17.2683C198.574 17.788 197.881 18.221 197.015 18.221C195.629 18.221 194.503 17.0951 194.503 15.7093C194.503 15.1897 194.676 14.5834 195.023 14.237C199.007 8.6939 203.424 5.40271 211.305 5.40271C219.966 5.40271 226.202 11.2056 226.202 19.0005V19.1737C226.202 26.1892 222.478 30.5197 214.077 37.795L201.259 49.1409H224.47C225.856 49.1409 226.982 50.2668 226.982 51.6526C226.982 53.0384 225.856 54.0777 224.47 54.0777H195.629C194.07 54.0777 192.857 53.0384 192.857 51.566C192.944 50.44 193.29 49.6606 194.243 48.9677Z" fill="#005BAB"/>
<path d="M232.611 30.1732V30C232.611 16.5754 240.666 5.14288 252.965 5.14288C265.35 5.14288 273.145 16.4022 273.145 29.8268V30C273.145 43.4246 265.177 54.8572 252.878 54.8572C240.493 54.8572 232.611 43.5978 232.611 30.1732ZM267.515 30.1732V30C267.515 19.5202 261.712 10.0797 252.878 10.0797C243.871 10.0797 238.241 19.2603 238.241 29.8268V30C238.241 40.4799 244.044 49.9204 252.965 49.9204C261.972 49.9204 267.515 40.6531 267.515 30.1732Z" fill="#005BAB"/>
<path d="M286.743 11.119L279.987 13.2842C279.554 13.4575 279.121 13.4575 278.861 13.4575C277.649 13.4575 276.523 12.4181 276.523 11.119C276.523 9.99306 277.302 9.21357 278.428 8.78052L286.31 6.00899C287.436 5.66254 288.389 5.40271 289.255 5.40271H289.428C290.987 5.40271 292.113 6.61526 292.113 8.08763V51.566C292.113 53.0384 290.987 54.3375 289.428 54.3375C287.955 54.3375 286.743 53.125 286.743 51.566V11.119Z" fill="#005BAB"/>
<path d="M306.75 50.007C305.97 49.4873 305.537 48.7944 305.537 47.8417C305.537 46.3694 306.663 45.2434 308.136 45.2434C308.742 45.2434 309.262 45.4166 309.868 45.7631C313.246 48.5346 316.537 49.8338 320.261 49.8338C328.922 49.8338 334.725 41.0861 334.552 28.7875C331.954 32.9448 327.623 36.4958 320.954 36.4958C311.08 36.4958 304.238 30.2598 304.238 21.5988V21.4256C304.238 12.3315 311.34 5.14288 321.56 5.14288C327.017 5.14288 331.087 6.9617 334.205 10.0797C337.843 13.7173 340.182 19.0871 340.182 28.7009V28.8741C340.182 44.1175 332.127 54.8572 320.261 54.8572C314.632 54.8572 310.388 52.7785 306.75 50.007ZM333.426 20.9926V20.8193C333.426 14.7566 328.403 9.90644 321.214 9.90644C314.025 9.90644 309.695 15.1897 309.695 21.1658V21.339C309.695 27.4017 314.458 31.8188 321.474 31.8188C328.836 31.9054 333.426 26.5356 333.426 20.9926Z" fill="#005BAB"/>
</svg>
