<?xml version="1.0" encoding="utf-8"?>
<!-- Generator: Adobe Illustrator 25.1.0, SVG Export Plug-In . SVG Version: 6.00 Build 0)  -->
<svg version="1.1" id="Layer_1" xmlns="http://www.w3.org/2000/svg" xmlns:xlink="http://www.w3.org/1999/xlink" x="0px" y="0px"
	 viewBox="0 0 1180.8 656.4" style="enable-background:new 0 0 1180.8 656.4;" xml:space="preserve">
<style>
  @import url("https://fonts.googleapis.com/css?family=Fira+Sans:400,700")
</style>
<style type="text/css">
	.st0{clip-path:url(#SVGID_2_);}
	.st1{fill-rule:evenodd;clip-rule:evenodd;fill-opacity:0;}
	.st2{fill-rule:evenodd;clip-rule:evenodd;fill:#FFFFFF;}
	.st3{fill:none;stroke:#000000;stroke-width:3;stroke-linejoin:round;stroke-miterlimit:10;}
	.st4{fill:none;stroke:#999999;stroke-width:2;stroke-linejoin:round;stroke-miterlimit:10;}
	.st5{fill-rule:evenodd;clip-rule:evenodd;stroke:#000000;stroke-width:3;stroke-miterlimit:10;}
	.st6{fill:none;stroke:#000000;stroke-linejoin:round;stroke-miterlimit:10;}
	.st7{fill:#1155CC;}
	.st8{font-family:'Fira Sans'; font-weight: bold;}
	.st9{font-size:24px;}
	.st10{font-family:'Fira Sans';}
	.st11{font-size:18px;}
	.st12{font-family:'Fira Sans'; font-style: italic;}
</style>
<g>
	<defs>
		<rect id="SVGID_1_" width="1280" height="960"/>
	</defs>
	<clipPath id="SVGID_2_">
		<use xlink:href="#SVGID_1_"  style="overflow:visible;"/>
	</clipPath>
	<g class="st0">
		<path class="st1" d="M-30-50h1280v960H-30V-50z"/>
		<path class="st2" d="M62.4,176.2L62.4,176.2c0-12.7,10.3-22.9,22.9-22.9h160.8c6.1,0,11.9,2.4,16.2,6.7c4.3,4.3,6.7,10.1,6.7,16.2
			v91.6c0,12.7-10.3,22.9-22.9,22.9H85.3c-12.7,0-22.9-10.3-22.9-22.9V176.2z"/>
		<path class="st3" d="M62.4,176.2L62.4,176.2c0-12.7,10.3-22.9,22.9-22.9h160.8c6.1,0,11.9,2.4,16.2,6.7c4.3,4.3,6.7,10.1,6.7,16.2
			v91.6c0,12.7-10.3,22.9-22.9,22.9H85.3c-12.7,0-22.9-10.3-22.9-22.9V176.2z"/>
		<path class="st2" d="M336.1,176.2L336.1,176.2c0-12.7,10.3-22.9,22.9-22.9h160.8c6.1,0,11.9,2.4,16.2,6.7
			c4.3,4.3,6.7,10.1,6.7,16.2v91.6c0,12.7-10.3,22.9-22.9,22.9H359c-12.7,0-22.9-10.3-22.9-22.9V176.2z"/>
		<path class="st3" d="M335.7,176.2L335.7,176.2c0-12.7,10.3-22.9,22.9-22.9h160.8c6.1,0,11.9,2.4,16.2,6.7
			c4.3,4.3,6.7,10.1,6.7,16.2v91.6c0,12.7-10.3,22.9-22.9,22.9H358.6c-12.7,0-22.9-10.3-22.9-22.9V176.2z"/>
		<path class="st2" d="M896.6,176.2L896.6,176.2c0-12.7,10.3-22.9,22.9-22.9h169.6c6.1,0,11.9,2.4,16.2,6.7
			c4.3,4.3,6.7,10.1,6.7,16.2v91.6c0,12.7-10.3,22.9-22.9,22.9H919.5c-12.7,0-22.9-10.3-22.9-22.9V176.2z"/>
		<path class="st3" d="M896.6,176.2L896.6,176.2c0-12.7,10.3-22.9,22.9-22.9h169.6c6.1,0,11.9,2.4,16.2,6.7
			c4.3,4.3,6.7,10.1,6.7,16.2v91.6c0,12.7-10.3,22.9-22.9,22.9H919.5c-12.7,0-22.9-10.3-22.9-22.9V176.2z"/>
		<path class="st2" d="M616.4,410L616.4,410c0-12.7,10.3-22.9,22.9-22.9h160.8c6.1,0,11.9,2.4,16.2,6.7s6.7,10.1,6.7,16.2v91.6
			c0,12.7-10.3,22.9-22.9,22.9H639.3c-12.7,0-22.9-10.3-22.9-22.9V410z"/>
		<path class="st3" d="M616.4,410L616.4,410c0-12.7,10.3-22.9,22.9-22.9h160.8c6.1,0,11.9,2.4,16.2,6.7s6.7,10.1,6.7,16.2v91.6
			c0,12.7-10.3,22.9-22.9,22.9H639.3c-12.7,0-22.9-10.3-22.9-22.9V410z"/>
		<path class="st2" d="M896.6,410L896.6,410c0-12.7,10.3-22.9,22.9-22.9h169.6c6.1,0,11.9,2.4,16.2,6.7c4.3,4.3,6.7,10.1,6.7,16.2
			v91.6c0,12.7-10.3,22.9-22.9,22.9H919.5c-12.7,0-22.9-10.3-22.9-22.9V410z"/>
		<path class="st3" d="M896.6,410L896.6,410c0-12.7,10.3-22.9,22.9-22.9h169.6c6.1,0,11.9,2.4,16.2,6.7c4.3,4.3,6.7,10.1,6.7,16.2
			v91.6c0,12.7-10.3,22.9-22.9,22.9H919.5c-12.7,0-22.9-10.3-22.9-22.9V410z"/>
		<path class="st2" d="M336.1,410L336.1,410c0-12.7,10.3-22.9,22.9-22.9h160.8c6.1,0,11.9,2.4,16.2,6.7c4.3,4.3,6.7,10.1,6.7,16.2
			v91.6c0,12.7-10.3,22.9-22.9,22.9H359c-12.7,0-22.9-10.3-22.9-22.9V410z"/>
		<path class="st3" d="M335.7,410L335.7,410c0-12.7,10.3-22.9,22.9-22.9h160.8c6.1,0,11.9,2.4,16.2,6.7c4.3,4.3,6.7,10.1,6.7,16.2
			v91.6c0,12.7-10.3,22.9-22.9,22.9H358.6c-12.7,0-22.9-10.3-22.9-22.9V410z"/>
		<path class="st1" d="M578.5,46.4l-1,502.9"/>
		<path class="st4" d="M578.5,46.4l-1,502.9"/>
		<path class="st1" d="M269.1,222h67.1"/>
		<path class="st3" d="M269.1,222h49.1"/>
		<path class="st5" d="M318.1,226.9l13.6-5l-13.6-5V226.9z"/>
		<path class="st1" d="M439.4,290.7v96.4"/>
		<path class="st3" d="M439,290.7v78.4"/>
		<path class="st5" d="M434.5,369.1l5,13.6l5-13.6H434.5z"/>
		<path class="st1" d="M542.8,222h353.9"/>
		<path class="st3" d="M542.8,222h335.9"/>
		<path class="st5" d="M878.6,226.9l13.6-5l-13.6-5V226.9z"/>
		<path class="st1" d="M544.9,253h174.7v134.1"/>
		<path class="st3" d="M544.9,253h174.7v116.1"/>
		<path class="st5" d="M714.7,369.1l5,13.6l5-13.6H714.7z"/>
		<path class="st1" d="M400.8,549.3h354.4v64.6H400.8V549.3z"/>
		<path class="st6" d="M400.8,549.3h354.4v64.6H400.8V549.3z"/>
		<path class="st1" d="M823,455.8h73.6"/>
		<path class="st3" d="M823,455.8h55.6"/>
		<path class="st5" d="M878.6,460.8l13.6-5l-13.6-5V460.8z"/>
		<text transform="matrix(1 0 0 1 115.1208 226.1879)" class="st7 st8 st9">Reporter</text>
		<text transform="matrix(1 0 0 1 394.4906 197.364)"><tspan x="0" y="0" class="st10 st9">Concern</tspan><tspan x="-25.4" y="28.8" class="st10 st9">expressed to </tspan><tspan x="-8.7" y="57.6" class="st7 st8 st9">Confidant</tspan></text>
		<text transform="matrix(1 0 0 1 962.0435 211.7641)"><tspan x="0" y="0" class="st10 st9">Contact </tspan><tspan x="-51.3" y="28.8" class="st7 st8 st9">Local Authorities</tspan></text>
		<text transform="matrix(1 0 0 1 631.986 447.1382)"><tspan x="0" y="0" class="st10 st9">Formal report to </tspan><tspan x="3.7" y="28.8" class="st7 st8 st9">Response Team</tspan></text>
		<text transform="matrix(1 0 0 1 340.8751 447.1385)"><tspan x="0" y="0" class="st10 st9">Informal report to </tspan><tspan x="77.3" y="28.8" class="st7 st8 st9">VAC</tspan></text>
		<text transform="matrix(1 0 0 1 912.123 461.5503)" class="st10 st9">Corrective Action</text>
		<text transform="matrix(1 0 0 1 410.3715 576.2127)"><tspan x="0" y="0" class="st10 st11">Reporter and Confidant decide</tspan><tspan x="0" y="21.6" class="st10 st11">whether to proceed with formal report.</tspan></text>
		<text transform="matrix(1 0 0 1 609.5967 207.5268)" class="st10 st11">If threat or imminent harm</text>
		<text transform="matrix(1 0 0 1 609.9872 72.2049)"><tspan x="0" y="0" class="st8 st11">Confidential:</tspan><tspan x="104.5" y="0" class="st10 st11"> Identity shared with</tspan><tspan x="0" y="21.6" class="st10 st11">response team as </tspan><tspan x="148.5" y="21.6" class="st12 st11">minimally required</tspan></text>
		<text transform="matrix(1 0 0 1 266.1809 72.2051)"><tspan x="0" y="0" class="st8 st11">Anonymous:</tspan><tspan x="99.9" y="0" class="st10 st11"> Identity known only </tspan><tspan x="0" y="21.6" class="st10 st11">to Confidant</tspan></text>
	</g>
</g>
</svg>
