<?xml version="1.0" encoding="utf-8"?>
<!-- Generator: Adobe Illustrator 27.6.1, SVG Export Plug-In . SVG Version: 6.00 Build 0)  -->
<svg version="1.1" id="Layer_1" xmlns="http://www.w3.org/2000/svg" xmlns:xlink="http://www.w3.org/1999/xlink" x="0px" y="0px"
	 viewBox="0 0 612 792" style="enable-background:new 0 0 612 792;" xml:space="preserve">
<style type="text/css">
	.st0{clip-path:url(#SVGID_00000088831622591605201980000000711407819830719631_);fill:#316682;}
	.st1{clip-path:url(#SVGID_00000088831622591605201980000000711407819830719631_);fill:#F8A038;}
	.st2{clip-path:url(#SVGID_00000088831622591605201980000000711407819830719631_);fill:#FFC20E;}
	.st3{clip-path:url(#SVGID_00000088831622591605201980000000711407819830719631_);fill:#52B9F5;}
	.st4{clip-path:url(#SVGID_00000088831622591605201980000000711407819830719631_);fill:#4A8FB5;}
</style>
<g>
	<defs>
		<rect id="SVGID_1_" width="612" height="792"/>
	</defs>
	<clipPath id="SVGID_00000155865425951038679530000003624176680492140988_">
		<use xlink:href="#SVGID_1_"  style="overflow:visible;"/>
	</clipPath>
	<path style="clip-path:url(#SVGID_00000155865425951038679530000003624176680492140988_);fill:#316682;" d="M515.88,376.47
		c0.08-1.06,0.39-2.08,0.6-3.12c0.86-4.4,1.53-8.82,1.92-13.29c0.27-3.17,0.42-6.34,0.39-9.51c-0.08-9.06-1.48-17.91-4.29-26.54
		c-0.15-0.45-0.31-0.47-0.7-0.28c-4.1,1.93-7.63,4.6-10.54,8.04c-0.32,0.38-0.65,0.56-1.15,0.54c-1.19-0.03-2.39-0.01-3.58-0.01
		c-0.02,0.07-0.04,0.13-0.05,0.2c0.72,0.56,1.42,1.14,2.15,1.68c0.36,0.26,0.43,0.45,0.16,0.84c-1.03,1.5-1.94,3.08-2.71,4.73
		c-0.17,0.36-0.38,0.51-0.77,0.51c-0.88-0.01-1.77,0-2.66,0c-0.02,0.05-0.03,0.1-0.04,0.15c0.64,0.51,1.27,1.03,1.93,1.52
		c0.31,0.23,0.38,0.43,0.22,0.79c-0.65,1.55-1.21,3.14-1.7,4.75c-0.1,0.34-0.25,0.48-0.62,0.49c-0.79,0.01-1.58,0.07-2.48,0.12
		c0.74,0.58,1.39,1.12,2.07,1.62c0.25,0.19,0.3,0.36,0.22,0.66c-0.54,1.98-1.01,3.98-1.39,6c-0.06,0.32-0.18,0.47-0.55,0.47
		c-0.68,0-1.35,0.07-2.13,0.12c0.69,0.55,1.31,1.06,1.95,1.54c0.24,0.18,0.34,0.36,0.28,0.66c-0.97,5.37-1.54,10.79-2.03,16.22
		c-0.01,0.05-0.03,0.11-0.04,0.17c-0.2-0.07-0.2-0.26-0.26-0.4c-2.12-5.16-4.05-10.37-5.38-15.79c-1.16-4.74-1.78-9.55-1.52-14.43
		c0.23-4.33,1.12-8.53,2.73-12.58c0.79-1.98,1.66-3.92,2.68-5.8c0.03-0.06,0.04-0.14,0.08-0.27c-1.16,0.06-2.25,0.29-3.33,0.53
		c-1.33,0.29-2.65,0.65-3.92,1.15c-0.36,0.14-0.58,0.07-0.85-0.17c-0.6-0.54-1.23-1.04-1.95-1.64c0.13,0.84,0.24,1.56,0.37,2.28
		c0.06,0.33-0.03,0.5-0.35,0.64c-2.02,0.91-3.97,1.96-5.82,3.17c-0.27,0.17-0.46,0.19-0.69-0.04c-0.25-0.25-0.54-0.46-0.9-0.77
		c0.06,0.44,0.07,0.78,0.16,1.1c0.12,0.41,0,0.63-0.35,0.87c-3.11,2.13-6.05,4.45-8.84,6.96c-0.12,0.11-0.27,0.2-0.4,0.3
		c-0.03-0.01-0.05-0.04-0.06-0.06c-0.05-0.12,0.02-0.22,0.07-0.31c2.78-5.73,6.16-11.07,10.8-15.55c5.53-5.34,12.11-8.58,19.81-9.58
		c3.67-0.48,7.35-0.42,11.07-0.06c-0.33-0.21-0.66-0.42-0.99-0.62c-0.34-0.21-0.67-0.42-1.03-0.59c-0.35-0.17-0.54-0.41-0.66-0.77
		c-0.57-1.72-1.18-3.43-1.78-5.14c-0.04-0.1-0.03-0.23-0.17-0.29c-0.51,1.26-1.03,2.52-1.53,3.78c-0.12,0.32-0.25,0.38-0.58,0.25
		c-1.59-0.61-3.22-1.11-4.89-1.45c-0.37-0.08-0.53-0.26-0.64-0.6c-0.36-1.09-0.75-2.17-1.16-3.37c-0.41,1.03-0.8,1.95-1.15,2.89
		c-0.13,0.37-0.31,0.48-0.7,0.43c-1.6-0.21-3.21-0.37-4.82-0.36c-0.34,0-0.46-0.17-0.55-0.44c-0.29-0.88-0.6-1.76-0.93-2.71
		c-0.39,0.96-0.75,1.82-1.09,2.69c-0.12,0.32-0.28,0.47-0.65,0.47c-2,0.02-3.98,0.18-5.96,0.44c-0.34,0.05-0.51-0.05-0.61-0.38
		c-0.24-0.78-0.53-1.55-0.82-2.39c-0.38,0.94-0.75,1.8-1.08,2.67c-0.12,0.31-0.29,0.48-0.63,0.53c-2.76,0.4-5.49,0.97-8.2,1.59
		c-0.03,0.01-0.07-0.01-0.13-0.02c0.02-0.05,0.02-0.11,0.05-0.14c3.9-4.01,8.08-7.69,12.98-10.5c3.78-2.17,7.81-3.65,12.21-4
		c3.99-0.32,7.83,0.34,11.53,1.81c4.55,1.79,8.5,4.52,12.15,7.68c0.25,0.22,0.51,0.44,0.82,0.71c0.13-1.13,0.11-2.19,0.06-3.24
		c-0.11-2.41-0.42-4.8-1.06-7.13c-0.09-0.32,0.02-0.48,0.27-0.64c0.65-0.42,1.28-0.86,2.01-1.36c-0.91-0.1-1.72-0.2-2.52-0.28
		c-0.28-0.03-0.43-0.11-0.52-0.39c-0.66-1.99-1.44-3.93-2.36-5.81c-0.14-0.29-0.09-0.42,0.17-0.58c0.62-0.39,1.23-0.81,1.96-1.29
		c-1.04-0.13-1.96-0.25-2.88-0.35c-0.27-0.03-0.45-0.11-0.58-0.36c-1.2-2.23-2.53-4.38-3.93-6.49c-0.04-0.06-0.07-0.13-0.09-0.18
		c0.05-0.12,0.13-0.1,0.2-0.08c3.67,1.45,7.28,3,10.5,5.31c4.46,3.2,7.02,7.55,8.02,12.84c0.75,3.96,0.7,7.95,0.28,11.94
		c-0.07,0.63-0.13,1.26-0.2,2.03c0.32-0.26,0.56-0.45,0.8-0.64c3.93-3.12,8.2-5.67,13.03-7.2c6.59-2.09,13.11-2.05,19.47,0.85
		c4.75,2.16,8.48,5.54,11.56,9.65c3.68,4.92,6.1,10.42,7.85,16.24c0.18,0.59,0.34,1.18,0.51,1.78c-0.29,0.06-0.39-0.13-0.51-0.24
		c-3.1-2.68-6.37-5.14-9.81-7.38c-0.34-0.22-0.46-0.47-0.48-0.86c-0.1-1.54-0.24-3.08-0.37-4.76c-0.76,1.02-1.43,1.96-2.13,2.88
		c-0.55,0.73-0.32,0.7-1.12,0.25c-1.45-0.82-2.93-1.57-4.45-2.26c-0.32-0.14-0.45-0.31-0.47-0.66c-0.07-1.17-0.17-2.34-0.27-3.58
		c-0.26,0.15-0.36,0.39-0.51,0.58c-0.51,0.67-1.02,1.35-1.51,2.04c-0.18,0.26-0.36,0.32-0.66,0.2c-1.48-0.57-3-1.06-4.54-1.45
		c-0.29-0.07-0.38-0.21-0.4-0.5c-0.06-1.01-0.16-2.01-0.25-3.13c-0.31,0.41-0.56,0.76-0.82,1.11c-0.36,0.48-0.73,0.96-1.06,1.46
		c-0.2,0.31-0.42,0.4-0.8,0.33c-1.81-0.36-3.64-0.57-5.48-0.66c-0.38-0.02-0.42-0.21-0.44-0.5c-0.07-0.98-0.15-1.97-0.24-3.1
		c-0.8,1.07-1.53,2.01-2.21,2.99c-0.3,0.43-0.63,0.58-1.16,0.61c-3.37,0.15-6.66,0.73-10.01,1.74c0.46,0.18,0.82,0.32,1.18,0.46
		c6.01,2.31,11.8,5.04,17.05,8.77c4.17,2.96,7.79,6.44,10.37,10.87c2.76,4.75,3.78,9.87,3.3,15.3c-0.55,6.16-2.78,11.77-5.67,17.18
		c-0.03,0.06-0.08,0.12-0.12,0.18c-0.22-0.02-0.21-0.21-0.26-0.34c-1.54-3.84-3.18-7.63-4.96-11.36c-0.16-0.33-0.1-0.53,0.12-0.79
		c0.99-1.12,1.97-2.26,3.04-3.51c-1.27,0.19-2.4,0.35-3.52,0.54c-1.34,0.22-1.33,0.23-1.94-0.93c-0.54-1.03-1.07-2.06-1.64-3.07
		c-0.19-0.34-0.14-0.55,0.1-0.83c1.01-1.14,2-2.3,3-3.45c0.13-0.15,0.31-0.27,0.37-0.55c-1.18,0.19-2.34,0.37-3.49,0.55
		c-0.58,0.09-1.16,0.17-1.74,0.28c-0.35,0.07-0.54-0.03-0.73-0.34c-0.49-0.86-1.01-1.71-1.56-2.54c-0.22-0.33-0.21-0.52,0.05-0.81
		c1.2-1.35,2.37-2.72,3.62-4.17c-1.65,0.25-3.21,0.42-4.73,0.76c-1.14,0.25-1.96,0.16-2.55-0.97c-0.39-0.73-0.99-1.37-1.54-2.01
		c-0.29-0.33-0.24-0.53,0.03-0.84c1.15-1.29,2.27-2.61,3.5-4.02c-1.01,0.15-1.89,0.28-2.77,0.41c-1.24,0.19-2.47,0.38-3.71,0.6
		c-0.36,0.07-0.52-0.13-0.71-0.34c-2.19-2.28-4.59-4.3-7.24-6.04c-0.11-0.07-0.22-0.14-0.37-0.24c-0.03,0.25,0.09,0.41,0.16,0.59
		c2.28,5.7,4.22,11.5,5.43,17.53c0.75,3.74,1.26,7.51,1.57,11.31c0.36,4.48,0.4,8.96,0.28,13.44c-0.07,2.65-0.24,5.3-0.44,7.94
		H515.88z"/>
	<path style="clip-path:url(#SVGID_00000155865425951038679530000003624176680492140988_);fill:#F8A038;" d="M72.64,509.74
		c-0.03,0.04-0.04,0.14-0.12,0.07c-0.07-0.06,0-0.1,0.06-0.12C72.6,509.71,72.62,509.73,72.64,509.74"/>
	<path style="clip-path:url(#SVGID_00000155865425951038679530000003624176680492140988_);fill:#FFC20E;" d="M43.74,340.86h-0.15
		c-0.89,0-3.43-0.18-4.23-1.9c-0.37-1.11-1.02-2.1-1.9-2.88c-3.14-3.16-8.23-3.18-11.39-0.04c-3.16,3.14-3.18,8.23-0.04,11.39
		c3.14,3.16,8.23,3.18,11.39,0.04c0.8-0.8,1.44-1.77,1.84-2.83c0.89-1.81,3.5-1.99,4.42-1.99h0.06
		C43.65,342.06,43.65,341.46,43.74,340.86"/>
	<path style="clip-path:url(#SVGID_00000155865425951038679530000003624176680492140988_);fill:#FFC20E;" d="M78.18,377.78
		c-1.72-0.98-1.9-3.43-1.9-4.32v-0.16c-0.64,0.09-1.28,0.09-1.9-0.02v0.26c0,0.98-0.27,3.69-2.15,4.42
		c-0.16,0.07-0.31,0.16-0.46,0.27c-0.77,0.4-1.46,0.91-2.06,1.53c-3.14,3.14-3.14,8.21,0,11.35s8.21,3.14,11.35,0
		c3.14-3.14,3.14-8.21,0-11.35C80.29,378.86,79.29,378.16,78.18,377.78"/>
	<path style="clip-path:url(#SVGID_00000155865425951038679530000003624176680492140988_);fill:#FFC20E;" d="M124.64,336.1
		c-3.12-3.14-8.19-3.14-11.33-0.02c-0.8,0.8-1.42,1.75-1.83,2.81c-0.99,1.81-3.5,1.99-4.42,1.99h-0.04c0.09,0.6,0.09,1.21,0,1.81
		h0.15c0.9,0,3.43,0.18,4.23,1.9c0.36,1.11,1.02,2.1,1.9,2.88c3.1,3.14,8.16,3.16,11.3,0.05c0.02-0.02,0.04-0.04,0.05-0.05
		C127.71,344.29,127.71,339.27,124.64,336.1"/>
	<path style="clip-path:url(#SVGID_00000155865425951038679530000003624176680492140988_);fill:#FFC20E;" d="M69.8,292.5
		c-3.14,3.1-3.16,8.16-0.06,11.3l0.06,0.05c0.89,0.89,1.9,1.44,2.88,1.9c1.72,0.98,1.9,3.43,1.9,4.32v0.13
		c0.64-0.09,1.28-0.09,1.9,0.02v-0.24c0-0.99,0.27-3.69,2.15-4.42c0.16-0.07,0.31-0.16,0.46-0.27c0.77-0.4,1.46-0.91,2.06-1.53
		c3.14-3.1,3.16-8.16,0.06-11.3c-0.02-0.02-0.04-0.04-0.06-0.05C77.99,289.34,72.87,289.34,69.8,292.5"/>
	<path style="clip-path:url(#SVGID_00000155865425951038679530000003624176680492140988_);fill:#52B9F5;" d="M58.36,324.75
		c-3.14,3.14-8.21,3.14-11.35,0c-3.14-3.14-3.14-8.21,0-11.35s8.21-3.14,11.35,0C61.52,316.46,61.52,321.59,58.36,324.75"/>
	<path style="clip-path:url(#SVGID_00000155865425951038679530000003624176680492140988_);fill:#52B9F5;" d="M92.48,358.78
		c3.14-3.14,8.21-3.14,11.35,0c3.14,3.14,3.14,8.21,0,11.35s-8.21,3.14-11.35,0c-3.14-3.1-3.16-8.16-0.06-11.3
		C92.45,358.82,92.47,358.8,92.48,358.78"/>
	<path style="clip-path:url(#SVGID_00000155865425951038679530000003624176680492140988_);fill:#52B9F5;" d="M92.48,313.3
		c3.14-3.14,8.21-3.14,11.35,0c3.14,3.14,3.14,8.21,0,11.35s-8.21,3.14-11.35,0C89.35,321.59,89.35,316.46,92.48,313.3"/>
	<path style="clip-path:url(#SVGID_00000155865425951038679530000003624176680492140988_);fill:#52B9F5;" d="M47.01,358.78
		c3.14-3.14,8.21-3.14,11.35,0c3.14,3.14,3.14,8.21,0,11.35s-8.21,3.14-11.35,0c-3.14-3.1-3.16-8.16-0.06-11.3L47.01,358.78z"/>
	<path style="clip-path:url(#SVGID_00000155865425951038679530000003624176680492140988_);fill:#F8A038;" d="M54.14,346.08
		c-2.39,2.39-6.26,2.39-8.65,0c-2.39-2.39-2.39-6.26,0-8.65c2.39-2.39,6.26-2.39,8.65,0C56.55,339.77,56.55,343.69,54.14,346.08"/>
	<path style="clip-path:url(#SVGID_00000155865425951038679530000003624176680492140988_);fill:#F8A038;" d="M79.84,320.62
		c-2.39,2.39-6.3,2.39-8.69,0c-2.39-2.39-2.39-6.3,0-8.69c2.39-2.39,6.3-2.39,8.69,0c2.39,2.39,2.41,6.26,0.02,8.67L79.84,320.62z"
		/>
	<path style="clip-path:url(#SVGID_00000155865425951038679530000003624176680492140988_);fill:#F8A038;" d="M105.33,346.12
		c-2.39,2.39-6.3,2.39-8.69,0c-2.39-2.39-2.39-6.3,0-8.69c2.39-2.39,6.3-2.39,8.69,0C107.74,339.76,107.74,343.69,105.33,346.12"/>
	<path style="clip-path:url(#SVGID_00000155865425951038679530000003624176680492140988_);fill:#F8A038;" d="M79.75,371.56
		c-2.39,2.39-6.3,2.39-8.69,0c-2.39-2.39-2.39-6.3,0-8.69c2.39-2.39,6.3-2.39,8.69,0c2.39,2.39,2.41,6.26,0.02,8.67L79.75,371.56z"
		/>
	<path style="clip-path:url(#SVGID_00000155865425951038679530000003624176680492140988_);fill:#4A8FB5;" d="M69.8,334.75
		c-0.57-0.57-1.68-2.04-1.73-3.56c-0.44,1.46-1.64,2.55-3.14,2.85c1.75,0,3.28,1.13,3.8,1.72l0.49,0.49
		c0.16-0.2,0.33-0.38,0.51-0.56c0.16-0.17,0.35-0.33,0.51-0.48C70.07,335.07,69.93,334.93,69.8,334.75"/>
	<path style="clip-path:url(#SVGID_00000155865425951038679530000003624176680492140988_);fill:#4A8FB5;" d="M82.85,330.68
		c0.13,1.86-1.1,3.52-1.72,4.05l-0.42,0.42c0.18,0.16,0.36,0.31,0.55,0.49c0.18,0.18,0.36,0.38,0.53,0.6l0.35-0.35
		c0.64-0.64,2.43-1.99,4.14-1.71h0.47C84.78,334.11,83.14,332.63,82.85,330.68"/>
	<path style="clip-path:url(#SVGID_00000155865425951038679530000003624176680492140988_);fill:#4A8FB5;" d="M82.79,351.97
		c0.44-1.51,1.68-2.65,3.23-2.92c-1.82,0.09-3.45-1.19-3.98-1.81l-0.4-0.4c-0.13,0.15-0.26,0.29-0.38,0.42
		c-0.18,0.18-0.38,0.36-0.58,0.53c0.11,0.18,0.24,0.36,0.38,0.53C81.63,348.91,82.78,350.42,82.79,351.97"/>
	<path style="clip-path:url(#SVGID_00000155865425951038679530000003624176680492140988_);fill:#4A8FB5;" d="M69.71,347.28
		c-0.2-0.2-0.4-0.42-0.58-0.62l-0.42,0.42c-0.6,0.6-2.24,1.83-3.89,1.72c1.7,0.38,2.96,1.81,3.16,3.54
		c-0.15-1.86,1.09-3.56,1.72-4.09l0.51-0.51C70.04,347.59,69.87,347.45,69.71,347.28"/>
	<path style="clip-path:url(#SVGID_00000155865425951038679530000003624176680492140988_);fill:#4A8FB5;" d="M68.21,330
		c0,2.26-1.84,4.11-4.11,4.11S60,332.26,60,330c0-2.26,1.84-4.11,4.11-4.11C66.37,325.91,68.21,327.74,68.21,330"/>
	<path style="clip-path:url(#SVGID_00000155865425951038679530000003624176680492140988_);fill:#4A8FB5;" d="M91.01,330.09
		c0,2.28-1.84,4.12-4.12,4.12c-2.28,0-4.12-1.84-4.12-4.12c0-2.28,1.84-4.12,4.12-4.12C89.16,325.97,91.01,327.81,91.01,330.09"/>
	<path style="clip-path:url(#SVGID_00000155865425951038679530000003624176680492140988_);fill:#4A8FB5;" d="M90.84,353.12
		c0,2.28-1.84,4.12-4.12,4.12c-2.28,0-4.12-1.84-4.12-4.12c0-2.28,1.84-4.12,4.12-4.12C89,349,90.84,350.84,90.84,353.12"/>
	<path style="clip-path:url(#SVGID_00000155865425951038679530000003624176680492140988_);fill:#4A8FB5;" d="M68.05,352.83
		c0,2.28-1.84,4.12-4.12,4.12c-2.28,0-4.12-1.84-4.12-4.12c0-2.28,1.84-4.12,4.12-4.12C66.21,348.71,68.05,350.55,68.05,352.83"/>
	<path style="clip-path:url(#SVGID_00000155865425951038679530000003624176680492140988_);fill:#316682;" d="M69.67,335.6
		c3.14-3.21,8.28-3.25,11.5-0.11c0.04,0.04,0.07,0.07,0.11,0.11c3.23,3.21,3.23,8.45,0.02,11.66l-0.02,0.02
		c-3.14,3.21-8.29,3.25-11.5,0.11l-0.11-0.11C66.44,344.13,66.44,338.83,69.67,335.6"/>
	<path style="clip-path:url(#SVGID_00000155865425951038679530000003624176680492140988_);fill:#52B9F5;" d="M256.75,377.58
		c-4.42-0.03-8.76-0.52-12.88-2.22c-6.07-2.51-10.24-6.86-12.33-13.11c-0.58-1.75-0.85-3.57-0.37-5.41c0.6-2.35,2.81-4.06,5.22-4.2
		c2.8-0.17,4.49,1.33,5.7,3.62c0.76,1.43,1.25,2.97,2,4.4c0.94,1.78,1.98,3.47,3.63,4.71c1.88,1.42,4.01,2.17,6.33,2.4
		c2.75,0.27,5.48,0.15,8.13-0.69c2.18-0.69,4.05-1.84,5.58-3.56c2.61-2.94,2.9-8.69-1.55-11.67c-1.81-1.21-3.8-1.9-5.85-2.51
		c-3.37-1-6.82-1.64-10.19-2.62c-3.34-0.97-6.65-2.05-9.67-3.83c-2.98-1.75-5.4-4.07-6.87-7.24c-1.26-2.73-1.59-5.63-1.35-8.61
		c0.26-3.39,1.47-6.39,3.63-9c2.27-2.75,5.22-4.5,8.53-5.71c3.06-1.11,6.22-1.65,9.46-1.83c3.44-0.2,6.86-0.1,10.24,0.62
		c4.39,0.94,8.35,2.76,11.54,6.01c2.08,2.11,3.51,4.57,4.01,7.52c0.44,2.61-0.27,4.8-2.32,6.55c-1.79,1.53-5.82,1.7-7.53-0.73
		c-0.92-1.31-1.71-2.69-2.46-4.1c-0.68-1.28-1.53-2.44-2.5-3.53c-1.52-1.7-3.45-2.56-5.67-2.89c-2.76-0.4-5.49-0.4-8.2,0.35
		c-1.85,0.51-3.49,1.41-4.83,2.8c-2.57,2.66-2.36,6.53,0.51,8.87c1.8,1.47,3.93,2.31,6.14,2.95c3.69,1.07,7.46,1.85,11.16,2.93
		c3.21,0.93,6.39,1.95,9.37,3.53c3.29,1.74,5.99,4.08,7.65,7.48c0.99,2.04,1.43,4.21,1.58,6.46c0.19,2.76-0.08,5.47-0.98,8.09
		c-1.69,4.92-4.98,8.45-9.55,10.85c-3.21,1.69-6.64,2.62-10.23,3.04C260.14,377.48,258.45,377.59,256.75,377.58"/>
	<path style="clip-path:url(#SVGID_00000155865425951038679530000003624176680492140988_);fill:#F8A038;" d="M390.39,344.68
		c0.04,2.72-0.09,5.44-0.33,8.15c-0.37,4.22-1.13,8.35-3.02,12.19c-2.88,5.86-7.26,10.07-13.67,11.71
		c-7.29,1.87-13.93,0.42-19.63-4.64c-3.41-3.03-5.57-6.85-6.86-11.19c-0.89-3.02-1.38-6.11-1.65-9.24c-0.25-2.9-0.33-5.8-0.25-8.71
		c0.13-4.9,0.46-9.79,1.59-14.58c0.88-3.76,2.35-7.24,4.82-10.26c2.96-3.62,6.78-5.81,11.36-6.68c3.75-0.71,7.49-0.62,11.18,0.45
		c5.35,1.54,9.17,4.97,11.92,9.71c1.92,3.3,2.99,6.88,3.63,10.61c0.47,2.73,0.72,5.48,0.84,8.25
		C390.37,341.86,390.36,343.27,390.39,344.68 M357.16,344.65c0.02,3.18,0.13,6.99,0.62,10.78c0.32,2.5,0.8,4.97,1.81,7.3
		c1.35,3.1,3.4,5.35,6.99,5.7c3.23,0.31,5.95-0.57,7.89-3.32c1.66-2.35,2.4-5.04,2.87-7.82c0.69-4.02,0.83-8.08,0.89-12.14
		c0.05-3.39-0.05-6.78-0.36-10.16c-0.21-2.29-0.52-4.57-1.13-6.79c-0.45-1.63-1.07-3.18-2.01-4.59c-1.55-2.34-3.77-3.46-6.53-3.6
		c-1.69-0.09-3.32,0.16-4.82,0.99c-1.86,1.03-3,2.66-3.78,4.57c-1.21,2.95-1.69,6.07-2.01,9.21
		C357.27,337.84,357.16,340.93,357.16,344.65"/>
	<path style="clip-path:url(#SVGID_00000155865425951038679530000003624176680492140988_);fill:#52B9F5;" d="M166.61,362.49
		c0.46-1.38,0.9-2.68,1.34-3.98c4.78-14.15,9.55-28.3,14.33-42.44c0.24-0.7,0.5-1.39,0.79-2.07c1.07-2.53,3.44-3.89,6.21-3.58
		c2.75,0.31,5.1,2.42,5.51,5c0.24,1.48-0.09,2.91-0.56,4.3c-1.27,3.79-2.72,7.51-4.11,11.25c-4.2,11.35-8.42,22.68-12.62,34.03
		c-0.75,2.01-1.39,4.07-2.26,6.03c-0.72,1.62-1.55,3.16-2.91,4.37c-2.06,1.84-4.51,2.34-7.18,2.11c-3.71-0.33-5.97-2.56-7.49-5.74
		c-0.9-1.88-1.56-3.86-2.27-5.81c-3.02-8.24-6.05-16.48-9.08-24.71c-2.53-6.88-5.06-13.76-7.58-20.65
		c-0.48-1.33-0.85-2.69-0.87-4.12c-0.04-2.84,2.32-5.57,5.14-5.99c1.2-0.18,2.38-0.13,3.54,0.21c1.13,0.33,2.01,0.99,2.63,2
		c1.07,1.73,1.78,3.61,2.43,5.52c4.95,14.6,9.89,29.21,14.84,43.81C166.48,362.17,166.53,362.29,166.61,362.49"/>
	<path style="clip-path:url(#SVGID_00000155865425951038679530000003624176680492140988_);fill:#F8A038;" d="M306.99,366.08h0.64
		c7.55,0,15.11,0,22.66,0c1.25,0,2.48,0.15,3.66,0.61c1.73,0.68,2.93,1.86,3.2,3.76c0.29,2.04-0.29,3.8-2.01,5.06
		c-1,0.73-2.18,0.94-3.39,0.96c-1.56,0.03-3.13,0.01-4.69,0.01c-9.46,0-18.91,0-28.37,0c-1.42,0-2.78-0.24-4.02-0.97
		c-2.46-1.47-3.53-4.16-2.69-6.96c0.82-2.72,2.11-5.17,4.15-7.22c2.91-2.91,5.8-5.86,8.79-8.69c3.23-3.05,6.63-5.89,10.19-8.55
		c2.94-2.2,5.48-4.82,7.21-8.12c1.39-2.65,2.08-5.45,1.35-8.41c-1-4.05-3.7-6.42-7.73-7.24c-3.11-0.63-6.03-0.05-8.58,1.92
		c-1.82,1.41-3.03,3.24-3.74,5.43c-0.54,1.68-1.23,3.3-2.1,4.84c-1.89,3.35-6.49,3.02-8.32,0.92c-1.05-1.21-1.4-2.63-1.34-4.16
		c0.15-3.61,1.34-6.87,3.46-9.78c2.91-3.99,6.91-6.35,11.63-7.56c3.1-0.8,6.27-0.93,9.46-0.74c2.97,0.18,5.89,0.63,8.64,1.8
		c5.83,2.49,9.38,6.92,10.67,13.07c1.07,5.13,0.01,9.91-2.78,14.35c-2.09,3.33-4.75,6.11-7.75,8.62c-4.15,3.47-8.43,6.8-12.42,10.45
		c-2.04,1.87-3.96,3.84-5.5,6.15C307.2,365.75,307.12,365.87,306.99,366.08"/>
	<path style="clip-path:url(#SVGID_00000155865425951038679530000003624176680492140988_);fill:#F8A038;" d="M415.03,366.08h0.65
		c7.54,0,15.08,0,22.61,0c1.27,0,2.52,0.14,3.71,0.61c1.73,0.68,2.92,1.87,3.19,3.76c0.29,2.05-0.3,3.79-2.02,5.06
		c-0.93,0.68-2.02,0.86-3.14,0.95c-0.18,0.01-0.37,0.01-0.55,0.01c-10.95,0-21.91,0.01-32.86,0c-1.81,0-3.51-0.42-4.88-1.7
		c-1.85-1.72-2.43-3.83-1.71-6.24c0.82-2.73,2.14-5.2,4.19-7.25c2.9-2.9,5.77-5.83,8.75-8.65c3.23-3.05,6.63-5.89,10.19-8.55
		c2.94-2.2,5.48-4.82,7.2-8.12c1.38-2.63,2.07-5.42,1.35-8.36c-0.98-4.05-3.68-6.44-7.7-7.27c-3.12-0.64-6.06-0.07-8.63,1.92
		c-1.82,1.41-3.03,3.25-3.73,5.44c-0.54,1.66-1.22,3.26-2.07,4.8c-1.88,3.38-6.5,3.07-8.35,0.94c-1.05-1.21-1.4-2.63-1.33-4.16
		c0.15-3.6,1.34-6.87,3.46-9.77c2.91-3.99,6.92-6.35,11.64-7.56c3.09-0.79,6.23-0.92,9.41-0.74c3.02,0.18,5.99,0.64,8.78,1.84
		c5.6,2.41,9.08,6.67,10.46,12.54c1.24,5.29,0.21,10.24-2.68,14.84c-2.09,3.33-4.75,6.11-7.75,8.62c-4.15,3.47-8.43,6.8-12.42,10.46
		c-2.02,1.85-3.93,3.82-5.47,6.11C415.24,365.73,415.16,365.87,415.03,366.08"/>
	<path style="clip-path:url(#SVGID_00000155865425951038679530000003624176680492140988_);fill:#F8A038;" d="M491.64,334.87
		c0,5.75,0,11.5-0.01,17.24c0,0.43,0.08,0.58,0.55,0.56c1.77-0.05,3.53-0.04,5.26,0.39c0.31,0.08,0.62,0.17,0.92,0.27
		c1.75,0.6,2.57,1.71,2.69,3.55c0.06,0.81,0.05,1.61-0.17,2.39c-0.5,1.76-1.85,2.56-3.5,2.96c-1.69,0.41-3.41,0.32-5.12,0.29
		c-0.53-0.01-0.63,0.15-0.62,0.64c0.02,2.65,0.01,5.31,0.01,7.97c0,0.95-0.13,1.88-0.41,2.78c-0.89,2.82-3.34,3.92-5.95,3.6
		c-2.67-0.33-4.38-2.39-4.63-5.19c-0.26-2.87-0.06-5.74-0.1-8.62c-0.02-1.17,0-1.17-1.18-1.17c-7.12,0-14.24,0-21.35-0.01
		c-1.35,0-2.68-0.17-3.96-0.66c-2.56-0.97-4.09-3.17-4.22-5.9c-0.07-1.58,0.48-2.93,1.33-4.19c1.75-2.57,3.69-5,5.55-7.49
		c7.09-9.49,14.19-18.98,21.29-28.46c0.95-1.27,1.95-2.48,3.06-3.62c1.33-1.37,2.96-1.78,4.79-1.59c0.72,0.08,1.43,0.21,2.1,0.49
		c2.12,0.88,3.06,2.61,3.47,4.74c0.16,0.86,0.21,1.73,0.21,2.61C491.64,323.94,491.64,329.41,491.64,334.87 M461.49,352.64
		c0.23,0.01,0.35,0.02,0.46,0.02c6.04,0,12.08,0,18.11,0.01c0.43,0,0.48-0.16,0.48-0.52c-0.01-8.22-0.01-16.43-0.01-24.65
		c0-0.12,0.05-0.26-0.08-0.43C474.15,335.58,467.85,344.07,461.49,352.64"/>
	<path style="clip-path:url(#SVGID_00000155865425951038679530000003624176680492140988_);fill:#52B9F5;" d="M218.45,343.93
		c0,8.5,0,17.01,0,25.51c0,1.39-0.13,2.75-0.6,4.06c-1.08,2.96-3.83,4.42-6.91,4.01c-3.1-0.42-5.12-2.64-5.52-5.86
		c-0.09-0.74-0.13-1.47-0.13-2.21c0-16.99,0-33.98,0-50.97c0-1.39,0.12-2.75,0.61-4.06c1.02-2.73,3.6-4.32,6.8-3.95
		c2.98,0.34,5.21,2.36,5.65,6.06c0.09,0.79,0.1,1.57,0.1,2.36C218.45,327.23,218.45,335.58,218.45,343.93"/>
</g>
</svg>
