<?xml version="1.0" encoding="UTF-8"?>
<svg width="510px" height="116px" viewBox="0 0 510 116" version="1.1" xmlns="http://www.w3.org/2000/svg" xmlns:xlink="http://www.w3.org/1999/xlink">
    <!-- Generator: Sketch 51.3 (57544) - http://www.bohemiancoding.com/sketch -->
    <title>vis2020_logo-white</title>
    <desc>Created with Sketch.</desc>
    <defs></defs>
    <g id="Page-1" stroke="none" stroke-width="1" fill="none" fill-rule="evenodd">
        <g id="vis2020_logo" fill="#FFFFFF" fill-rule="nonzero">
            <g id="Group" transform="translate(125.000000, 26.000000)">
                <path d="M27,65.9 L1.3,6.5 C1,5.9 0.9,5.5 0.9,4.8 C0.9,2.9 2.6,1.1 4.7,1.1 C6.6,1.1 7.9,2.3 8.6,4 L31.7,59.3 L54.9,3.8 C55.6,2.5 56.9,1.1 58.6,1.1 C60.7,1.1 62.3,2.8 62.3,4.7 C62.3,5.3 62.2,5.7 62,6.2 L36.2,65.9 C35.3,67.8 34,69 31.8,69 L31.4,69 C29.2,69 27.8,67.8 27,65.9 Z" id="Shape"></path>
                <path d="M75.5,4.9 C75.5,2.8 77.2,1.1 79.2,1.1 C81.3,1.1 83,2.8 83,4.9 L83,65 C83,67.1 81.3,68.8 79.2,68.8 C77.2,68.8 75.5,67.1 75.5,65 L75.5,4.9 Z" id="Shape"></path>
                <path d="M98.5,60.3 C97.6,59.7 97.1,58.7 97.1,57.4 C97.1,55.3 98.7,53.7 100.7,53.7 C101.7,53.7 102.5,54.1 103,54.6 C109.3,59.9 115.6,62.5 124.1,62.5 C133.1,62.5 139,57.7 139,51.1 L139,50.9 C139,44.7 135.7,41.2 121.7,38.2 C106.4,34.9 99.3,29.9 99.3,18.9 L99.3,18.7 C99.3,8.2 108.5,0.5 121.2,0.5 C130,0.5 136.4,2.7 142.5,7.1 C143.3,7.7 144.1,8.7 144.1,10.1 C144.1,12.1 142.5,13.7 140.5,13.7 C139.6,13.7 139,13.5 138.3,13 C132.7,8.9 127.2,7.2 121,7.2 C112.3,7.2 106.8,12 106.8,18 L106.8,18.2 C106.8,24.5 110.2,28 124.9,31.2 C139.8,34.4 146.6,39.9 146.6,50.1 L146.6,50.3 C146.6,61.7 137.1,69.2 123.8,69.2 C114,69.2 105.9,66.2 98.5,60.3 Z" id="Shape"></path>
            </g>
            <g id="Group">
                <path d="M38.8,38.8 C35.3,42.3 29.7,42.3 26.2,38.8 C22.7,35.3 22.7,29.7 26.2,26.2 C29.7,22.7 35.3,22.7 38.8,26.2 C42.3,29.6 42.3,35.3 38.8,38.8 Z" id="Shape"></path>
                <path d="M76.7,76.6 C80.2,73.1 85.8,73.1 89.3,76.6 C92.8,80.1 92.8,85.7 89.3,89.2 C85.8,92.7 80.2,92.7 76.7,89.2 C73.2,85.7 73.2,80.1 76.7,76.6 Z" id="Shape"></path>
                <path d="M76.7,26.1 C80.2,22.6 85.8,22.6 89.3,26.1 C92.8,29.6 92.8,35.2 89.3,38.7 C85.8,42.2 80.2,42.2 76.7,38.7 C73.2,35.3 73.2,29.6 76.7,26.1 Z" id="Shape"></path>
                <path d="M26.2,76.6 C29.7,73.1 35.3,73.1 38.8,76.6 C42.3,80.1 42.3,85.7 38.8,89.2 C35.3,92.7 29.7,92.7 26.2,89.2 C22.7,85.7 22.7,80.1 26.2,76.6 Z" id="Shape"></path>
                <path d="M70.3,65.8 C70.1,65.8 69.9,65.8 69.7,65.8 C67.6,66 65.7,64.5 65.1,63.8 C65.1,63.8 64.9,63.6 64.6,63.3 C67.4,60 67.4,55.2 64.6,51.8 C64.9,51.5 65.1,51.3 65.2,51.2 C65.9,50.5 67.9,49 69.8,49.3 C69.8,49.3 69.8,49.3 69.9,49.3 C70.1,49.3 70.3,49.3 70.5,49.3 C73,49.3 75,47.3 75,44.8 C75,42.3 73,40.3 70.5,40.3 C68,40.3 66,42.3 66,44.8 C66,45 66,45.2 66,45.3 C66.2,47.4 64.8,49.3 64.1,49.9 C64.1,49.9 63.9,50.1 63.6,50.4 C60.3,47.6 55.4,47.7 52.1,50.5 C51.7,50.2 51.5,49.9 51.5,49.9 C50.8,49.2 49.3,47.2 49.6,45.3 C49.6,45.3 49.6,45.3 49.6,45.2 C49.6,45 49.6,44.8 49.6,44.6 C49.6,42.1 47.6,40.1 45.2,40.1 C42.7,40.1 40.7,42.1 40.7,44.6 C40.7,47.1 42.7,49.1 45.2,49.1 C45.4,49.1 45.6,49.1 45.7,49.1 C47.8,48.9 49.7,50.3 50.3,51 C50.3,51 50.5,51.2 50.9,51.6 C48.2,54.9 48.2,59.7 50.9,63 C50.5,63.4 50.3,63.6 50.3,63.6 C49.6,64.3 47.6,65.8 45.7,65.5 C45.7,65.5 45.7,65.5 45.6,65.5 C45.4,65.5 45.2,65.5 45,65.5 C42.5,65.5 40.5,67.5 40.5,70 C40.5,72.5 42.5,74.4 45,74.4 C47.5,74.4 49.5,72.4 49.5,70 C49.5,69.8 49.5,69.6 49.5,69.5 C49.5,69.5 49.5,69.5 49.5,69.5 C49.3,67.4 50.7,65.5 51.4,64.9 C51.4,64.9 51.6,64.7 52,64.3 C55.3,67.1 60.2,67.1 63.5,64.3 C63.8,64.8 64,65 64,65 C64.7,65.7 66.2,67.7 65.9,69.6 C65.9,69.6 65.9,69.6 65.9,69.7 C65.9,69.9 65.9,70.1 65.9,70.3 C65.9,72.8 67.9,74.7 70.4,74.7 C72.9,74.7 74.9,72.7 74.9,70.3 C74.8,67.8 72.8,65.8 70.3,65.8 Z" id="Shape"></path>
                <path d="M112.4,51.4 C108.9,47.9 103.3,47.9 99.8,51.4 C98.9,52.3 98.2,53.4 97.8,54.5 C96.7,56.5 93.9,56.7 92.9,56.7 C92.9,56.7 92.8,56.7 92.8,56.7 C92.6,55.4 92,54.1 90.9,53 C88.3,50.4 84,50.4 81.4,53 C78.8,55.6 78.8,59.9 81.4,62.5 C84,65.1 88.3,65.1 90.9,62.5 C92,61.4 92.6,60.1 92.8,58.7 C92.9,58.7 92.9,58.7 93,58.7 C94,58.7 96.8,58.9 97.7,60.8 C98.1,62 98.8,63.1 99.8,64 C103.3,67.5 108.9,67.5 112.4,64 C115.8,60.5 115.8,54.9 112.4,51.4 Z M51.5,3 C48,6.5 48,12.1 51.5,15.6 C52.5,16.6 53.6,17.2 54.7,17.7 C56.6,18.8 56.8,21.5 56.8,22.5 C56.8,22.6 56.8,22.6 56.8,22.7 C55.4,22.9 54.1,23.5 53.1,24.6 C50.5,27.2 50.5,31.4 53.1,34.1 C55.7,36.7 60,36.7 62.6,34.1 C65.2,31.5 65.2,27.2 62.6,24.6 C61.6,23.6 60.2,22.9 58.9,22.7 C58.9,22.6 58.9,22.5 58.9,22.4 C58.9,21.3 59.2,18.3 61.3,17.5 C61.5,17.4 61.7,17.3 61.8,17.2 C62.6,16.8 63.4,16.2 64.1,15.5 C67.6,12 67.6,6.4 64.1,2.9 C60.6,-0.5 54.9,-0.5 51.5,3 Z M60.8,97.7 C58.9,96.6 58.7,93.9 58.7,92.9 C58.7,92.8 58.7,92.8 58.7,92.7 C60.1,92.5 61.4,91.9 62.4,90.8 C65,88.2 65,83.9 62.4,81.3 C59.8,78.7 55.5,78.7 52.9,81.3 C50.3,83.9 50.3,88.2 52.9,90.8 C53.9,91.8 55.3,92.5 56.6,92.7 C56.6,92.8 56.6,92.9 56.6,93 C56.6,94.1 56.3,97.1 54.2,97.9 C54,98 53.8,98.1 53.7,98.2 C52.9,98.6 52.1,99.2 51.4,99.9 C47.9,103.4 47.9,109 51.4,112.5 C54.9,116 60.5,116 64,112.5 C67.5,109 67.5,103.4 64,99.9 C63.1,98.8 62,98.1 60.8,97.7 Z M24.5,52.9 C23.4,54 22.8,55.3 22.6,56.7 C22.5,56.7 22.5,56.7 22.4,56.7 C21.4,56.7 18.6,56.5 17.7,54.6 C17.3,53.4 16.6,52.3 15.6,51.4 C12.1,47.9 6.5,47.9 3,51.4 C-0.5,54.9 -0.5,60.5 3,64 C6.5,67.5 12.1,67.5 15.6,64 C16.5,63.1 17.2,62 17.6,60.9 C18.6,58.9 21.5,58.7 22.5,58.7 C22.5,58.7 22.6,58.7 22.6,58.7 C22.8,60 23.4,61.3 24.5,62.4 C27.1,65 31.4,65 34,62.4 C36.6,59.8 36.6,55.6 34,52.9 C31.4,50.3 27.1,50.3 24.5,52.9 Z" id="Shape"></path>
            </g>
            <g id="Group" transform="translate(289.000000, 26.000000)">
                <path d="M2.1,61.1 L23.1,41.1 C32.6,32 35.9,26.9 35.9,20.2 C35.9,12.4 30.2,7.5 23.5,7.5 C17,7.5 12.6,10.9 8.2,17.2 C7.7,18 6.8,18.5 5.7,18.5 C3.9,18.5 2.5,17 2.5,15.1 C2.5,14.3 2.8,13.6 3.2,13 C8.3,5.3 13.9,0.8 24,0.8 C35.1,0.8 43,8.8 43,19.6 L43,19.8 C43,29.5 38.3,35.5 27.5,45.6 L11.1,61.4 L40.9,61.4 C42.7,61.4 44.1,62.9 44.1,64.8 C44.1,66.7 42.6,68.2 40.9,68.2 L3.9,68.2 C1.9,68.2 0.4,66.8 0.4,64.7 C0.5,63.1 1,62.1 2.1,61.1 Z" id="Shape"></path>
                <path d="M54.6,35 L54.6,34.8 C54.6,16.2 64.9,0.4 80.7,0.4 C96.5,0.4 106.5,16 106.5,34.6 L106.5,34.8 C106.5,53.4 96.3,69.2 80.5,69.2 C64.6,69.2 54.6,53.6 54.6,35 Z M99.3,35 L99.3,34.8 C99.3,20.3 91.9,7.3 80.5,7.3 C69,7.3 61.8,20 61.8,34.7 L61.8,34.9 C61.8,49.4 69.2,62.4 80.7,62.4 C92.2,62.4 99.3,49.6 99.3,35 Z" id="Shape"></path>
                <path d="M116.6,61.1 L137.6,41.1 C147.1,32 150.4,26.9 150.4,20.2 C150.4,12.4 144.7,7.5 138,7.5 C131.5,7.5 127.1,10.9 122.7,17.2 C122.2,18 121.3,18.5 120.2,18.5 C118.4,18.5 117,17 117,15.1 C117,14.3 117.3,13.6 117.7,13 C122.8,5.3 128.4,0.8 138.5,0.8 C149.6,0.8 157.5,8.8 157.5,19.6 L157.5,19.8 C157.5,29.5 152.8,35.5 142,45.6 L125.6,61.4 L155.4,61.4 C157.2,61.4 158.6,62.9 158.6,64.8 C158.6,66.7 157.1,68.2 155.4,68.2 L118.4,68.2 C116.4,68.2 114.9,66.8 114.9,64.7 C114.9,63.1 115.4,62.1 116.6,61.1 Z" id="Shape"></path>
                <path d="M169.1,35 L169.1,34.8 C169.1,16.2 179.4,0.4 195.2,0.4 C211,0.4 221,16 221,34.7 L221,34.9 C221,53.5 210.8,69.3 195,69.3 C179.1,69.2 169.1,53.6 169.1,35 Z M213.8,35 L213.8,34.8 C213.8,20.3 206.4,7.3 195,7.3 C183.5,7.3 176.3,20 176.3,34.7 L176.3,34.9 C176.3,49.4 183.7,62.4 195.2,62.4 C206.6,62.4 213.8,49.6 213.8,35 Z" id="Shape"></path>
            </g>
        </g>
    </g>
</svg>