<?xml version="1.0" encoding="utf-8"?>
<!-- Generator: Adobe Illustrator 23.1.1, SVG Export Plug-In . SVG Version: 6.00 Build 0)  -->
<svg version="1.1" id="Layer_1" xmlns="http://www.w3.org/2000/svg" xmlns:xlink="http://www.w3.org/1999/xlink" x="0px" y="0px"
	 viewBox="0 0 320 225" style="enable-background:new 0 0 320 225;" xml:space="preserve">
<style type="text/css">
	.st0{fill:#C42026;}
	.st1{fill:#4F3A2B;}
</style>
<g>
	<path class="st0" d="M41.2,208.5l-28.4-65.4c-0.3-0.6-0.4-1.2-0.4-1.9c0-2.1,1.9-4.1,4.2-4.1c2.1,0,3.6,1.4,4.3,3.1l25.4,60.9
		L71.8,140c0.7-1.5,2.2-2.9,4.1-2.9c2.3,0,4.1,1.9,4.1,4c0,0.6-0.1,1.2-0.3,1.7l-28.5,65.7c-1,2.1-2.4,3.5-4.8,3.5H46
		C43.6,212,42,210.6,41.2,208.5z"/>
	<path class="st0" d="M94.5,141.3c0-2.3,1.9-4.2,4.1-4.2c2.3,0,4.2,1.9,4.2,4.2v66.1c0,2.3-1.9,4.2-4.2,4.2c-2.2,0-4.1-1.9-4.1-4.2
		V141.3z"/>
	<path class="st0" d="M119.9,202.3c-0.9-0.6-1.6-1.8-1.6-3.1c0-2.3,1.8-4.1,4-4.1c1,0,2,0.4,2.5,0.9c6.9,5.9,13.9,8.7,23.2,8.7
		c9.9,0,16.4-5.2,16.4-12.5V192c0-6.8-3.7-10.7-19.1-14c-16.9-3.7-24.7-9.1-24.7-21.2v-0.2c0-11.5,10.2-20,24.2-20
		c9.7,0,16.7,2.4,23.4,7.2c0.8,0.6,1.8,1.8,1.8,3.4c0,2.2-1.8,4-4,4c-1,0-1.7-0.2-2.4-0.7c-6.2-4.5-12.2-6.4-19-6.4
		c-9.5,0-15.6,5.2-15.6,11.9v0.2c0,6.9,3.8,10.8,20,14.3c16.4,3.6,23.9,9.5,23.9,20.8v0.2c0,12.6-10.5,20.8-25.1,20.8
		C137,212.2,128.1,208.8,119.9,202.3z"/>
</g>
<g>
	<path class="st1" d="M81.9,48c-3.4,3.4-9,3.4-12.5,0c-3.4-3.5-3.4-9,0-12.5c3.4-3.4,9-3.4,12.5,0C85.3,39,85.3,44.5,81.9,48z"/>
	<path class="st1" d="M119.3,85.3c3.4-3.4,9-3.4,12.5,0c3.4,3.4,3.4,9,0,12.5s-9,3.4-12.5,0C115.8,94.4,115.8,88.8,119.3,85.3z"/>
	<path class="st1" d="M119.3,35.5c3.4-3.4,9-3.4,12.5,0c3.4,3.4,3.4,9,0,12.5c-3.4,3.4-9,3.4-12.5,0C115.8,44.5,115.8,39,119.3,35.5
		z"/>
	<path class="st1" d="M69.4,85.3c3.4-3.4,9-3.4,12.5,0s3.4,9,0,12.5s-9,3.4-12.5,0S66,88.8,69.4,85.3z"/>
	<path class="st1" d="M113,74.7c-0.2,0-0.4,0-0.5,0c-2,0.2-3.9-1.2-4.6-1.9c0,0-0.2-0.2-0.5-0.5c2.7-3.3,2.7-8,0-11.3
		c0.3-0.3,0.5-0.5,0.6-0.6c0.7-0.7,2.7-2.1,4.5-1.8c0,0,0,0,0.1,0c0.2,0,0.4,0,0.6,0c2.4,0,4.4-2,4.4-4.4s-2-4.4-4.4-4.4
		c-2.4,0-4.4,2-4.4,4.4c0,0.2,0,0.4,0,0.5l0,0c0.2,2-1.2,3.9-1.9,4.6c0,0-0.2,0.2-0.5,0.5c-3.3-2.7-8.1-2.7-11.3,0.1
		c-0.3-0.3-0.6-0.6-0.6-0.6c-0.7-0.7-2.1-2.7-1.8-4.5c0,0,0,0,0-0.1c0-0.2,0-0.4,0-0.6c0-2.4-2-4.4-4.4-4.4s-4.4,2-4.4,4.4
		s2,4.4,4.4,4.4c0.2,0,0.4,0,0.5,0h0c2-0.2,3.9,1.2,4.6,1.9c0,0,0.2,0.2,0.6,0.6c-2.7,3.3-2.7,8,0,11.2c-0.4,0.4-0.6,0.6-0.6,0.6
		c-0.7,0.7-2.7,2.1-4.5,1.8c0,0,0,0-0.1,0c-0.2,0-0.4,0-0.6,0c-2.4,0-4.4,2-4.4,4.4s2,4.4,4.4,4.4c2.4,0,4.4-2,4.4-4.4
		c0-0.2,0-0.4,0-0.5c0,0,0,0,0,0c-0.2-2,1.2-3.9,1.9-4.6c0,0,0.2-0.2,0.6-0.6c3.3,2.8,8.1,2.8,11.3,0c0.3,0.3,0.5,0.5,0.6,0.5
		c0.7,0.7,2.1,2.7,1.8,4.5c0,0,0,0,0,0.1c0,0.2,0,0.4,0,0.6c0,2.4,2,4.4,4.4,4.4c2.4,0,4.4-2,4.4-4.4
		C117.4,76.7,115.4,74.7,113,74.7z"/>
	<path class="st1" d="M154.5,60.4c-3.5-3.4-9-3.4-12.5,0c-0.9,0.9-1.5,1.9-2,3c-1,2-3.8,2.1-4.8,2.1c0,0-0.1,0-0.2,0
		c-0.2-1.3-0.8-2.6-1.8-3.6c-2.6-2.6-6.8-2.6-9.3,0c-2.6,2.6-2.6,6.8,0,9.3s6.8,2.6,9.3,0c1.1-1,1.7-2.4,1.9-3.8c0.1,0,0.1,0,0.2,0
		c1,0,3.8,0.2,4.7,2.1c0.4,1.2,1.1,2.3,2,3.2c3.4,3.4,9,3.4,12.5,0C157.9,69.4,157.9,63.9,154.5,60.4z M94.3,12.6
		c-3.4,3.4-3.4,9,0,12.5c0.9,0.9,2,1.6,3.2,2c1.9,1.1,2.1,3.8,2.1,4.8c0,0.1,0,0.1,0,0.2c-1.3,0.2-2.7,0.8-3.7,1.9
		c-2.6,2.6-2.6,6.8,0,9.3s6.8,2.6,9.3,0c2.6-2.6,2.6-6.8,0-9.3c-1-1-2.3-1.7-3.7-1.9c0-0.1,0-0.2,0-0.3c0-1.1,0.3-4,2.4-4.8
		c0.2-0.1,0.4-0.2,0.5-0.3c0.8-0.4,1.6-1,2.3-1.6c3.4-3.4,3.4-9,0-12.5C103.4,9.2,97.8,9.2,94.3,12.6z M103.6,106.2
		c-1.9-1.1-2.1-3.8-2.1-4.8c0-0.1,0-0.1,0-0.2c1.3-0.2,2.7-0.8,3.7-1.9c2.6-2.6,2.6-6.8,0-9.4c-2.6-2.6-6.8-2.6-9.3,0
		c-2.6,2.6-2.6,6.8,0,9.4c1,1,2.3,1.6,3.7,1.9c0,0.1,0,0.2,0,0.3c0,1.1-0.3,4-2.4,4.8c-0.2,0.1-0.4,0.2-0.5,0.3
		c-0.8,0.4-1.6,1-2.3,1.7c-3.4,3.4-3.4,9,0,12.5s9,3.4,12.5,0s3.4-9,0-12.5C105.9,107.3,104.8,106.6,103.6,106.2z M67.8,62
		c-1,1.1-1.7,2.4-1.9,3.8c-0.1,0-0.1,0-0.2,0c-1,0-3.8-0.2-4.7-2.1c-0.4-1.2-1.1-2.3-2-3.2c-3.4-3.4-9-3.4-12.5,0
		c-3.4,3.4-3.4,9,0,12.5c3.4,3.4,9,3.4,12.5,0c0.9-0.9,1.6-1.9,2-3c1-2,3.8-2.1,4.8-2.1c0,0,0.1,0,0.2,0c0.2,1.3,0.8,2.6,1.8,3.6
		c2.6,2.6,6.8,2.6,9.3,0s2.6-6.8,0-9.3C74.5,59.4,70.3,59.4,67.8,62z"/>
</g>
<path class="st0" d="M190.4,118.1l23.2-22.2c10.5-10.1,14.2-15.8,14.2-23.1c0-8.6-6.3-14.1-13.7-14.1c-7.2,0-12,3.8-16.9,10.7
	c-0.6,0.8-1.5,1.5-2.8,1.5c-1.9,0-3.5-1.7-3.5-3.8c0-0.8,0.3-1.7,0.8-2.3c5.6-8.5,11.8-13.6,23-13.6c12.2,0,21.1,8.8,21.1,20.8v0.2
	c0,10.7-5.2,17.3-17.2,28.6l-18.2,17.4h32.9c1.9,0,3.6,1.7,3.6,3.8s-1.7,3.8-3.6,3.8h-40.9c-2.2,0-3.9-1.6-3.9-3.9
	C188.6,120.4,189.2,119.3,190.4,118.1z"/>
<path class="st0" d="M248.5,89.3v-0.2c0-20.6,11.4-38,28.8-38c17.5,0,28.5,17.2,28.5,37.8v0.2c0,20.6-11.3,38-28.8,38
	C259.6,127.1,248.5,109.9,248.5,89.3z M297.9,89.3v-0.2c0-16.1-8.2-30.5-20.8-30.5c-12.7,0-20.7,14.1-20.7,30.3v0.2
	c0,16.1,8.2,30.5,20.9,30.5C290.1,119.6,297.9,105.4,297.9,89.3z"/>
<path class="st1" d="M191.6,202.5l23.2-22.2c10.5-10.1,14.2-15.8,14.2-23.1c0-8.6-6.3-14.1-13.7-14.1c-7.2,0-12,3.8-16.9,10.7
	c-0.6,0.8-1.5,1.5-2.8,1.5c-1.9,0-3.5-1.7-3.5-3.8c0-0.8,0.3-1.7,0.8-2.3c5.6-8.5,11.8-13.6,23-13.6c12.2,0,21.1,8.8,21.1,20.8v0.2
	c0,10.7-5.2,17.3-17.2,28.6l-18.2,17.4h32.9c1.9,0,3.6,1.7,3.6,3.8s-1.7,3.8-3.6,3.8h-40.9c-2.2,0-3.9-1.6-3.9-3.9
	C189.8,204.8,190.4,203.6,191.6,202.5z"/>
<path class="st1" d="M249.7,173.6v-0.2c0-20.6,11.4-38,28.8-38c17.5,0,28.5,17.2,28.5,37.8v0.2c0,20.6-11.3,38-28.8,38
	C260.8,211.5,249.7,194.2,249.7,173.6z M299.1,173.6v-0.2c0-16.1-8.2-30.5-20.8-30.5c-12.7,0-20.7,14.1-20.7,30.3v0.2
	c0,16.1,8.2,30.5,20.9,30.5C291.3,203.9,299.1,189.7,299.1,173.6z"/>
</svg>
