<?xml version="1.0" encoding="UTF-8"?>
<svg id="Layer_2" data-name="Layer 2" xmlns="http://www.w3.org/2000/svg" viewBox="0 0 624.55 137.36">
  <defs>
    <style>
      .cls-1 {
        fill: #fff;
      }
    </style>
  </defs>
  <g id="Vrstva_1" data-name="Vrstva 1">
    <g>
      <path class="cls-1" d="M42.09,53.75c-3.83,3.83-9.97,3.83-13.8,0-3.83-3.83-3.83-9.97,0-13.8,3.83-3.83,9.97-3.83,13.8,0,3.83,3.72,3.83,9.97,0,13.8Z"/>
      <path class="cls-1" d="M83.61,95.16c3.83-3.83,9.97-3.83,13.8,0,3.83,3.83,3.83,9.97,0,13.8-3.83,3.83-9.97,3.83-13.8,0-3.83-3.83-3.83-9.97,0-13.8Z"/>
      <path class="cls-1" d="M83.61,39.84c3.83-3.83,9.97-3.83,13.8,0,3.83,3.83,3.83,9.97,0,13.8-3.83,3.83-9.97,3.83-13.8,0-3.83-3.72-3.83-9.97,0-13.8Z"/>
      <path class="cls-1" d="M28.29,95.16c3.83-3.83,9.97-3.83,13.8,0,3.83,3.83,3.83,9.97,0,13.8-3.83,3.83-9.97,3.83-13.8,0-3.83-3.83-3.83-9.97,0-13.8Z"/>
    </g>
    <path class="cls-1" d="M76.6,83.33h-.66c-2.3.22-4.38-1.42-5.04-2.19,0,0-.22-.22-.55-.55,3.07-3.61,3.07-8.87,0-12.6.33-.33.55-.55.66-.66.77-.77,2.96-2.41,5.04-2.08h.77c2.74,0,4.93-2.19,4.93-4.93s-2.19-4.93-4.93-4.93-4.93,2.19-4.93,4.93v.55h0c.22,2.3-1.31,4.38-2.08,5.04,0,0-.22.22-.55.55-3.61-3.07-8.98-2.96-12.6.11-.44-.33-.66-.66-.66-.66-.77-.77-2.41-2.96-2.08-5.04v-.77c0-2.74-2.19-4.93-4.82-4.93s-4.93,2.19-4.93,4.93,2.19,4.93,4.93,4.93h.55c2.3-.22,4.38,1.31,5.04,2.08l.66.66c-2.96,3.61-2.96,8.87,0,12.49l-.66.66c-.77.77-2.96,2.41-5.04,2.08h-.77c-2.74,0-4.93,2.19-4.93,4.93s2.19,4.82,4.93,4.82,4.93-2.19,4.93-4.82v-.55h0c-.22-2.3,1.31-4.38,2.08-5.04,0,0,.22-.22.66-.66,3.61,3.07,8.98,3.07,12.6,0,.33.55.55.77.55.77.77.77,2.41,2.96,2.08,5.04v.77c0,2.74,2.19,4.82,4.93,4.82s4.93-2.19,4.93-4.82c-.11-2.74-2.3-4.93-5.04-4.93Z"/>
    <path class="cls-1" d="M122.71,67.56c-3.83-3.83-9.97-3.83-13.8,0-.99.99-1.75,2.19-2.19,3.4-1.2,2.19-4.27,2.41-5.37,2.41h-.11c-.22-1.42-.88-2.85-2.08-4.05-2.85-2.85-7.56-2.85-10.41,0-2.85,2.85-2.85,7.56,0,10.41,2.85,2.85,7.56,2.85,10.41,0,1.2-1.2,1.86-2.63,2.08-4.16h.22c1.1,0,4.16.22,5.15,2.3.44,1.31,1.2,2.52,2.3,3.51,3.83,3.83,9.97,3.83,13.8,0,3.72-3.83,3.72-9.97,0-13.8ZM56,14.54c-3.83,3.83-3.83,9.97,0,13.8,1.1,1.1,2.3,1.75,3.51,2.3,2.08,1.2,2.3,4.16,2.3,5.26v.22c-1.53.22-2.96.88-4.05,2.08-2.85,2.85-2.85,7.45,0,10.41,2.85,2.85,7.56,2.85,10.41,0,2.85-2.85,2.85-7.56,0-10.41-1.1-1.1-2.63-1.86-4.05-2.08v-.33c0-1.2.33-4.49,2.63-5.37.22-.11.44-.22.55-.33.88-.44,1.75-1.1,2.52-1.86,3.83-3.83,3.83-9.97,0-13.8-3.83-3.72-10.08-3.72-13.8.11ZM66.19,118.27c-2.08-1.2-2.3-4.16-2.3-5.26v-.22c1.53-.22,2.96-.88,4.05-2.08,2.85-2.85,2.85-7.56,0-10.41-2.85-2.85-7.56-2.85-10.41,0-2.85,2.85-2.85,7.56,0,10.41,1.1,1.1,2.63,1.86,4.05,2.08v.33c0,1.2-.33,4.49-2.63,5.37-.22.11-.44.22-.55.33-.88.44-1.75,1.1-2.52,1.86-3.83,3.83-3.83,9.97,0,13.8,3.83,3.83,9.97,3.83,13.8,0,3.83-3.83,3.83-9.97,0-13.8-.99-1.2-2.19-1.97-3.51-2.41ZM26.43,69.2c-1.2,1.2-1.86,2.63-2.08,4.16h-.22c-1.1,0-4.16-.22-5.15-2.3-.44-1.31-1.2-2.52-2.3-3.51-3.83-3.83-9.97-3.83-13.8,0-3.83,3.83-3.83,9.97,0,13.8,3.83,3.83,9.97,3.83,13.8,0,.99-.99,1.75-2.19,2.19-3.4,1.1-2.19,4.27-2.41,5.37-2.41h.11c.22,1.42.88,2.85,2.08,4.05,2.85,2.85,7.56,2.85,10.41,0,2.85-2.85,2.85-7.45,0-10.41-2.85-2.85-7.56-2.85-10.41,0Z"/>
    <path class="cls-1" d="M201.73,40.82c-.86-.79-1.94-1.18-3.23-1.18-1.79,0-3.12.93-3.98,2.8l-23.55,58.45-24.46-58.35c-.86-2.01-2.26-3.01-4.2-3.01-.93,0-1.88.4-2.85,1.18-.97.79-1.45,1.83-1.45,3.12,0,.36.03.72.11,1.08.07.36.18.68.32.97l27.88,66.42c.36.86.91,1.53,1.67,1.99.75.47,1.52.74,2.31.81.86,0,1.67-.23,2.42-.7.75-.47,1.34-1.17,1.78-2.1l28.1-66.53c.29-.72.43-1.4.43-2.05,0-1.15-.43-2.12-1.29-2.91Z"/>
    <path class="cls-1" d="M224.56,41.04c-.86-.86-1.9-1.29-3.12-1.29-1.36,0-2.48.43-3.34,1.29-.86.86-1.29,1.9-1.29,3.12v66.53c0,1.22.41,2.26,1.24,3.12.82.86,1.92,1.29,3.28,1.29,1.22,0,2.28-.43,3.18-1.29.9-.86,1.35-1.9,1.35-3.12V44.16c0-1.22-.43-2.26-1.29-3.12Z"/>
    <path class="cls-1" d="M293.3,86.19c-1.18-2.55-2.85-4.65-5.01-6.3-2.15-1.65-4.72-3.03-7.7-4.14-2.98-1.11-6.23-2.1-9.74-2.96-3.23-.86-6.17-1.85-8.83-2.96-2.66-1.11-4.77-2.55-6.35-4.31-1.58-1.76-2.37-4-2.37-6.73,0-2.44.7-4.52,2.1-6.24s3.35-3.07,5.87-4.04c2.51-.97,5.42-1.45,8.72-1.45,2.22,0,4.43.32,6.62.97,2.19.65,4.23,1.51,6.14,2.58,1.9,1.08,3.46,2.3,4.68,3.66.65.5,1.36.75,2.15.75,1.15,0,2.17-.45,3.07-1.35.9-.9,1.34-1.85,1.34-2.85,0-1.36-.72-2.73-2.15-4.09-2.37-2.51-5.51-4.48-9.42-5.92-3.91-1.43-8.06-2.15-12.43-2.15-4.95,0-9.35.86-13.19,2.58-3.84,1.72-6.84,4.11-8.99,7.16-2.15,3.05-3.23,6.62-3.23,10.71,0,3.3.55,6.15,1.67,8.56,1.11,2.4,2.69,4.45,4.74,6.14,2.05,1.69,4.45,3.09,7.21,4.2,2.76,1.11,5.79,2.06,9.1,2.85,3.73.93,7.01,2.01,9.85,3.23,2.83,1.22,5.06,2.76,6.67,4.63,1.62,1.87,2.42,4.23,2.42,7.11,0,2.37-.75,4.45-2.26,6.24-1.51,1.79-3.52,3.19-6.03,4.2-2.51,1.01-5.35,1.51-8.5,1.51-4.09,0-7.77-.72-11.03-2.15-3.27-1.43-6.3-3.52-9.1-6.24-.79-.79-1.69-1.18-2.69-1.18-1.22,0-2.24.45-3.07,1.35-.83.9-1.24,1.92-1.24,3.07,0,.72.16,1.4.48,2.05.32.65.73,1.18,1.24,1.61,3.73,3.44,7.61,5.96,11.63,7.54,4.02,1.58,8.68,2.37,13.99,2.37,4.81,0,9.13-.9,12.97-2.69,3.84-1.79,6.87-4.23,9.1-7.32,2.22-3.09,3.34-6.6,3.34-10.55,0-3.73-.59-6.87-1.78-9.42Z"/>
    <path class="cls-1" d="M360.95,108.21c-.79-.79-1.76-1.18-2.91-1.18h-29.49l17.86-19.7c3.08-3.37,5.61-6.55,7.59-9.53,1.97-2.98,3.46-5.88,4.47-8.72,1-2.83,1.51-5.61,1.51-8.34,0-4.31-.93-8.11-2.8-11.41-1.87-3.3-4.52-5.9-7.97-7.8-3.44-1.9-7.64-2.85-12.59-2.85-3.88,0-7.68.97-11.41,2.91-3.73,1.94-6.71,4.7-8.93,8.29-.72.79-1.31,1.54-1.78,2.26-.47.72-.7,1.47-.7,2.26,0,1.01.47,1.9,1.4,2.69.93.79,1.94,1.18,3.01,1.18.65,0,1.27-.18,1.88-.54.61-.36,1.17-.9,1.67-1.61,1.51-3.16,3.57-5.51,6.19-7.05,2.62-1.54,5.33-2.31,8.13-2.31,3.01,0,5.65.61,7.91,1.83,2.26,1.22,4,2.91,5.22,5.06,1.22,2.15,1.83,4.67,1.83,7.54,0,3.09-.93,6.26-2.8,9.53-1.87,3.27-4.52,6.77-7.97,10.5l-24.44,26.59c-.79.93-1.18,1.97-1.18,3.12,0,1.29.41,2.31,1.24,3.07.82.75,1.85,1.13,3.07,1.13h39.08c1.15,0,2.12-.38,2.91-1.13.79-.75,1.18-1.7,1.18-2.85s-.4-2.12-1.18-2.91Z"/>
    <path class="cls-1" d="M425.65,57.51c-2.01-5.81-5.01-10.4-8.99-13.78-3.98-3.37-8.95-5.06-14.91-5.06s-10.94,1.69-14.96,5.06c-4.02,3.37-7.03,7.97-9.04,13.78-2.01,5.81-3.01,12.45-3.01,19.91s1,14.01,3.01,19.86c2.01,5.85,5.02,10.46,9.04,13.83,4.02,3.37,9.01,5.06,14.96,5.06s10.93-1.69,14.91-5.06c3.98-3.37,6.98-7.98,8.99-13.83,2.01-5.85,3.01-12.47,3.01-19.86s-1.01-14.1-3.01-19.91ZM417.31,93.4c-1.4,4.49-3.41,7.95-6.03,10.39-2.62,2.44-5.8,3.66-9.53,3.66s-7.02-1.22-9.63-3.66c-2.62-2.44-4.63-5.9-6.03-10.39-1.4-4.48-2.1-9.81-2.1-15.98s.7-11.61,2.1-16.09c1.4-4.48,3.41-7.93,6.03-10.33,2.62-2.4,5.83-3.61,9.63-3.61s6.91,1.2,9.53,3.61c2.62,2.41,4.63,5.85,6.03,10.33,1.4,4.49,2.1,9.85,2.1,16.09s-.7,11.5-2.1,15.98Z"/>
    <path class="cls-1" d="M487.47,108.21c-.79-.79-1.76-1.18-2.91-1.18h-29.49l17.86-19.7c3.08-3.37,5.61-6.55,7.59-9.53,1.97-2.98,3.46-5.88,4.47-8.72,1-2.83,1.51-5.61,1.51-8.34,0-4.31-.93-8.11-2.8-11.41-1.87-3.3-4.52-5.9-7.97-7.8-3.44-1.9-7.64-2.85-12.59-2.85-3.88,0-7.68.97-11.41,2.91-3.73,1.94-6.71,4.7-8.93,8.29-.72.79-1.31,1.54-1.78,2.26-.47.72-.7,1.47-.7,2.26,0,1.01.47,1.9,1.4,2.69.93.79,1.94,1.18,3.01,1.18.65,0,1.27-.18,1.88-.54.61-.36,1.17-.9,1.67-1.61,1.51-3.16,3.57-5.51,6.19-7.05,2.62-1.54,5.33-2.31,8.13-2.31,3.01,0,5.65.61,7.91,1.83,2.26,1.22,4,2.91,5.22,5.06,1.22,2.15,1.83,4.67,1.83,7.54,0,3.09-.93,6.26-2.8,9.53-1.87,3.27-4.52,6.77-7.97,10.5l-24.44,26.59c-.79.93-1.18,1.97-1.18,3.12,0,1.29.41,2.31,1.24,3.07.82.75,1.85,1.13,3.07,1.13h39.08c1.15,0,2.12-.38,2.91-1.13.79-.75,1.18-1.7,1.18-2.85s-.4-2.12-1.18-2.91Z"/>
    <path class="cls-1" d="M545.27,76.67c-2.15-3.66-5.08-6.55-8.77-8.67-3.7-2.12-7.88-3.18-12.54-3.18-2.23,0-4.4.25-6.51.75-2.12.5-3.98,1.11-5.6,1.83-.46.2-.87.41-1.26.61l3.2-20.09h28.9c1.15,0,2.12-.38,2.91-1.13.79-.75,1.18-1.7,1.18-2.85,0-1.22-.4-2.22-1.18-3.01-.79-.79-1.76-1.18-2.91-1.18h-31.97c-1.15,0-2.14.36-2.96,1.08-.83.72-1.31,1.54-1.45,2.48l-4.2,28.42c-.14.86-.09,1.74.16,2.64.25.9.77,1.67,1.56,2.31.79.65,1.86.97,3.23.97.93,0,2.12-.39,3.55-1.18,1.44-.79,3.16-1.58,5.17-2.37,2.01-.79,4.27-1.18,6.78-1.18,3.37,0,6.37.7,8.99,2.1,2.62,1.4,4.66,3.32,6.14,5.76,1.47,2.44,2.21,5.35,2.21,8.72s-.84,6.44-2.53,9.2c-1.69,2.76-4.02,4.94-7,6.51-2.98,1.58-6.33,2.37-10.07,2.37-1.94,0-3.88-.36-5.81-1.08s-3.7-1.69-5.27-2.91c-1.22-.93-2.3-1.4-3.23-1.4-1.22,0-2.21.41-2.96,1.24-.75.83-1.13,1.67-1.13,2.53,0,.72.18,1.47.54,2.26.36.79.82,1.44,1.4,1.94,2.22,1.79,4.83,3.16,7.8,4.09,2.98.93,5.9,1.4,8.77,1.4,4.02,0,7.73-.66,11.14-1.99,3.41-1.33,6.39-3.16,8.93-5.49,2.55-2.33,4.52-5.11,5.92-8.34,1.4-3.23,2.1-6.74,2.1-10.55,0-4.74-1.08-8.93-3.23-12.6Z"/>
    <path class="cls-1" d="M533.71,34.07c3.38-5,7.82-9.21,13.02-12.3l19.11,33.1.37.64s0,0,0,0c0,0-.01.01-.02.02l-.64-.37-13.67-7.89c-.11.32-.24.63-.39.93l14.14,8.16-.04.07h-38.14c.01.33.03.67.04,1h37.52l-.37.63-18.32,10.58c.23.25.46.5.69.76l16.64-9.6-11.1,19.22c.8,2.35,1.29,4.84,1.5,7.46h13.06v11.25c-4.73-.05-9.26-.92-13.47-2.46-.24,1.34-.56,2.65-.96,3.92-.05.18-.06.22-.06.22,3.1,1.08,6.39,1.85,9.76,2.23-.54.2-.93.72-.93,1.32v9.45h-17.22c-1.66,1.51-3.48,2.84-5.45,4h75.93c1.1,0,2-.9,2-2s-.9-2-2-2h-12.77l-2.6-4.51h.11c.78,0,1.42-.64,1.42-1.42v-9.49c0-.78-.64-1.42-1.42-1.42h-8.88c6.39-3.82,11.76-9.19,15.58-15.58v9.37c0,.78.64,1.42,1.42,1.42h9.49c.78,0,1.42-.64,1.42-1.42v-9.49c0-.78-.64-1.42-1.42-1.42h-9.49c-.22,0-.43.06-.62.15,2.79-5.07,4.63-10.73,5.28-16.75.1.69.69,1.22,1.4,1.22h9.49c.78,0,1.42-.64,1.42-1.42v-9.49c0-.78-.64-1.42-1.42-1.42h-9.49c-.72,0-1.31.55-1.4,1.24-.65-5.91-2.43-11.48-5.14-16.47.15.05.31.09.47.09h9.49c.78,0,1.42-.64,1.42-1.42v-9.49c0-.78-.64-1.42-1.42-1.42h-9.49c-.78,0-1.42.64-1.42,1.42v9.17c-3.82-6.39-9.19-11.76-15.58-15.58h8.88c.78,0,1.42-.64,1.42-1.42V7.38c0-.78-.64-1.42-1.42-1.42h-9.49c-.78,0-1.42.64-1.42,1.42v9.49c0,.1.01.2.03.29-4.81-2.55-10.14-4.26-15.79-4.92.57-.18.99-.71.99-1.34V1.42c0-.78-.64-1.42-1.42-1.42h-9.49c-.78,0-1.42.64-1.42,1.42v9.49c0,.62.4,1.14.96,1.33-5.76.65-11.19,2.39-16.08,5.01.03-.12.06-.24.06-.37V7.38c0-.78-.64-1.42-1.42-1.42h-9.49c-.78,0-1.42.64-1.42,1.42v9.49c0,.78.64,1.42,1.42,1.42h8.99c-6.19,3.7-11.41,8.84-15.2,14.96v-8.55c0-.78-.64-1.42-1.42-1.42h-9.49c-.78,0-1.42.64-1.42,1.42v9.38h16.77ZM602.7,36.09l-33.03,19.07-.64.37s0,0-.01-.01,0,0-.01-.01l.37-.64,19.09-33.06c5.85,3.5,10.76,8.42,14.24,14.28ZM568.11,97.72v-11.25h14.25l3.88,6.73c-5.45,2.81-11.61,4.44-18.13,4.52ZM568.11,82.47v-20.68l11.94,20.68h-11.94ZM568.14,55s-.02,0-.03,0V16.05c7.07.09,13.71,1.99,19.49,5.26l-19.45,33.7ZM547.6,21.27c5.78-3.26,12.43-5.14,19.51-5.22v38.94s-.02,0-.04,0l-19.48-33.73ZM555.17,82.47l11.94-20.68v20.68h-11.94ZM589.97,107.9h4.76l2.6,4.51h-23.55v-9.45c0-.63-.42-1.16-.99-1.34,5.65-.66,10.98-2.36,15.79-4.92-.02.09-.03.19-.03.29v9.49c0,.78.64,1.42,1.42,1.42ZM589.7,91.19l-18.12-31.39,31.09,17.95c-3.23,5.42-7.68,10.02-12.97,13.44ZM603.16,76.88l-32.59-18.82-.37-.63h38.19c-.09,7.06-1.98,13.68-5.23,19.45ZM569.63,56.43l-.04-.07,33.61-19.41c3.24,5.77,5.12,12.41,5.2,19.47h-38.77Z"/>
  </g>
</svg>