<?xml version="1.0" encoding="utf-8"?>
<!-- Generator: Adobe Illustrator 23.1.1, SVG Export Plug-In . SVG Version: 6.00 Build 0)  -->
<svg version="1.1" id="Layer_1" xmlns="http://www.w3.org/2000/svg" xmlns:xlink="http://www.w3.org/1999/xlink" x="0px" y="0px"
	 viewBox="0 0 526 129" style="enable-background:new 0 0 526 129;" xml:space="preserve">
<style type="text/css">
	.st0{fill:#C42026;}
	.st1{fill:#DA4726;}
	.st2{fill:#4F3A2B;}
</style>
<g>
	<path class="st0" d="M160,98.9l-25.7-59.4c-0.3-0.6-0.4-1-0.4-1.7c0-1.9,1.7-3.7,3.8-3.7c1.9,0,3.2,1.2,3.9,2.9l23.1,55.3
		l23.2-55.5c0.7-1.3,2-2.7,3.7-2.7c2.1,0,3.7,1.7,3.7,3.6c0,0.6-0.1,1-0.3,1.5l-25.8,59.7c-0.9,1.9-2.2,3.1-4.4,3.1h-0.4
		C162.2,102,160.8,100.8,160,98.9z"/>
	<path class="st0" d="M208.5,37.9c0-2.1,1.7-3.8,3.7-3.8c2.1,0,3.8,1.7,3.8,3.8v60.1c0,2.1-1.7,3.8-3.8,3.8c-2,0-3.7-1.7-3.7-3.8
		V37.9z"/>
	<path class="st0" d="M231.5,93.3c-0.9-0.6-1.4-1.6-1.4-2.9c0-2.1,1.6-3.7,3.6-3.7c1,0,1.8,0.4,2.3,0.9c6.3,5.3,12.6,7.9,21.1,7.9
		c9,0,14.9-4.8,14.9-11.4v-0.2c0-6.2-3.3-9.7-17.3-12.7c-15.3-3.3-22.4-8.3-22.4-19.3v-0.2c0-10.5,9.2-18.2,21.9-18.2
		c8.8,0,15.2,2.2,21.3,6.6c0.8,0.6,1.6,1.6,1.6,3c0,2-1.6,3.6-3.6,3.6c-0.9,0-1.5-0.2-2.2-0.7c-5.6-4.1-11.1-5.8-17.3-5.8
		c-8.7,0-14.2,4.8-14.2,10.8v0.2c0,6.3,3.4,9.8,18.1,13c14.9,3.2,21.7,8.7,21.7,18.9v0.2c0,11.4-9.5,18.9-22.8,18.9
		C247,102.2,238.9,99.2,231.5,93.3z"/>
</g>
<g>
	<path class="st1" d="M46.8,45.8c-3.5,3.5-9.1,3.5-12.6,0c-3.5-3.5-3.5-9.1,0-12.6c3.5-3.5,9.1-3.5,12.6,0
		C50.3,36.6,50.3,42.3,46.8,45.8z"/>
	<path class="st1" d="M84.7,83.6c3.5-3.5,9.1-3.5,12.6,0c3.5,3.5,3.5,9.1,0,12.6c-3.5,3.5-9.1,3.5-12.6,0
		C81.2,92.7,81.2,87.1,84.7,83.6z"/>
	<path class="st1" d="M84.7,33.1c3.5-3.5,9.1-3.5,12.6,0c3.5,3.5,3.5,9.1,0,12.6c-3.5,3.5-9.1,3.5-12.6,0
		C81.2,42.3,81.2,36.6,84.7,33.1z"/>
	<path class="st1" d="M34.2,83.6c3.5-3.5,9.1-3.5,12.6,0c3.5,3.5,3.5,9.1,0,12.6c-3.5,3.5-9.1,3.5-12.6,0
		C30.7,92.7,30.7,87.1,34.2,83.6z"/>
	<path class="st1" d="M78.3,72.8c-0.2,0-0.4,0-0.6,0c-2.1,0.2-4-1.3-4.6-2c0,0-0.2-0.2-0.5-0.5c2.8-3.3,2.8-8.1,0-11.5
		c0.3-0.3,0.5-0.5,0.6-0.6c0.7-0.7,2.7-2.2,4.6-1.9c0,0,0,0,0.1,0c0.2,0,0.4,0,0.6,0c2.5,0,4.5-2,4.5-4.5c0-2.5-2-4.5-4.5-4.5
		c-2.5,0-4.5,2-4.5,4.5c0,0.2,0,0.4,0,0.5l0,0c0.2,2.1-1.2,4-1.9,4.6c0,0-0.2,0.2-0.5,0.5c-3.3-2.8-8.2-2.7-11.5,0.1
		c-0.4-0.3-0.6-0.6-0.6-0.6c-0.7-0.7-2.2-2.7-1.9-4.6c0,0,0,0,0-0.1c0-0.2,0-0.4,0-0.6c0-2.5-2-4.5-4.4-4.5c-2.5,0-4.5,2-4.5,4.5
		c0,2.5,2,4.5,4.5,4.5c0.2,0,0.4,0,0.5,0h0c2.1-0.2,4,1.2,4.6,1.9c0,0,0.2,0.2,0.6,0.6c-2.7,3.3-2.7,8.1,0,11.4
		c-0.4,0.4-0.6,0.6-0.6,0.6c-0.7,0.7-2.7,2.2-4.6,1.9c0,0,0,0-0.1,0c-0.2,0-0.4,0-0.6,0c-2.5,0-4.5,2-4.5,4.5c0,2.5,2,4.4,4.5,4.4
		c2.5,0,4.5-2,4.5-4.4c0-0.2,0-0.4,0-0.5c0,0,0,0,0,0c-0.2-2.1,1.2-4,1.9-4.6c0,0,0.2-0.2,0.6-0.6c3.3,2.8,8.2,2.8,11.5,0
		C71.8,71.8,72,72,72,72c0.7,0.7,2.2,2.7,1.9,4.6c0,0,0,0,0,0.1c0,0.2,0,0.4,0,0.6c0,2.5,2,4.4,4.5,4.4c2.5,0,4.5-2,4.5-4.4
		C82.8,74.8,80.8,72.8,78.3,72.8z"/>
	<path class="st1" d="M120.4,58.4c-3.5-3.5-9.1-3.5-12.6,0c-0.9,0.9-1.6,2-2,3.1c-1.1,2-3.9,2.2-4.9,2.2c0,0-0.1,0-0.1,0
		c-0.2-1.3-0.8-2.6-1.9-3.7c-2.6-2.6-6.9-2.6-9.5,0c-2.6,2.6-2.6,6.9,0,9.5c2.6,2.6,6.9,2.6,9.5,0c1.1-1.1,1.7-2.4,1.9-3.8
		c0.1,0,0.1,0,0.2,0c1,0,3.8,0.2,4.7,2.1c0.4,1.2,1.1,2.3,2.1,3.2c3.5,3.5,9.1,3.5,12.6,0C123.8,67.5,123.8,61.9,120.4,58.4z
		 M59.5,10c-3.5,3.5-3.5,9.1,0,12.6c1,1,2.1,1.6,3.2,2.1c1.9,1.1,2.1,3.8,2.1,4.8c0,0.1,0,0.1,0,0.2c-1.4,0.2-2.7,0.8-3.7,1.9
		c-2.6,2.6-2.6,6.8,0,9.5c2.6,2.6,6.9,2.6,9.5,0c2.6-2.6,2.6-6.9,0-9.5c-1-1-2.4-1.7-3.7-1.9c0-0.1,0-0.2,0-0.3
		c0-1.1,0.3-4.1,2.4-4.9c0.2-0.1,0.4-0.2,0.5-0.3c0.8-0.4,1.6-1,2.3-1.7c3.5-3.5,3.5-9.1,0-12.6C68.6,6.5,62.9,6.5,59.5,10z
		 M68.8,104.7c-1.9-1.1-2.1-3.8-2.1-4.8c0-0.1,0-0.1,0-0.2c1.4-0.2,2.7-0.8,3.7-1.9c2.6-2.6,2.6-6.9,0-9.5c-2.6-2.6-6.9-2.6-9.5,0
		c-2.6,2.6-2.6,6.9,0,9.5c1,1,2.4,1.7,3.7,1.9c0,0.1,0,0.2,0,0.3c0,1.1-0.3,4.1-2.4,4.9c-0.2,0.1-0.4,0.2-0.5,0.3
		c-0.8,0.4-1.6,1-2.3,1.7c-3.5,3.5-3.5,9.1,0,12.6c3.5,3.5,9.1,3.5,12.6,0c3.5-3.5,3.5-9.1,0-12.6C71.1,105.8,70,105.1,68.8,104.7z
		 M32.5,59.9c-1.1,1.1-1.7,2.4-1.9,3.8c-0.1,0-0.1,0-0.2,0c-1,0-3.8-0.2-4.7-2.1c-0.4-1.2-1.1-2.3-2.1-3.2c-3.5-3.5-9.1-3.5-12.6,0
		c-3.5,3.5-3.5,9.1,0,12.6c3.5,3.5,9.1,3.5,12.6,0c0.9-0.9,1.6-2,2-3.1c1-2,3.9-2.2,4.9-2.2c0,0,0.1,0,0.1,0
		c0.2,1.3,0.8,2.6,1.9,3.7c2.6,2.6,6.9,2.6,9.5,0c2.6-2.6,2.6-6.8,0-9.5C39.4,57.3,35.1,57.3,32.5,59.9z"/>
</g>
<g>
	<path class="st2" d="M299.1,94.1l21-20c9.5-9.1,12.8-14.2,12.8-20.9c0-7.8-5.7-12.7-12.4-12.7c-6.5,0-10.9,3.4-15.3,9.7
		c-0.5,0.8-1.4,1.3-2.5,1.3c-1.8,0-3.2-1.5-3.2-3.4c0-0.8,0.3-1.5,0.7-2.1c5.1-7.7,10.7-12.2,20.8-12.2c11.1,0,19,8,19,18.8v0.2
		c0,9.7-4.7,15.7-15.5,25.8l-16.4,15.8h29.8c1.8,0,3.2,1.5,3.2,3.4c0,1.9-1.5,3.4-3.2,3.4h-37c-2,0-3.5-1.4-3.5-3.5
		C297.5,96.1,298,95.1,299.1,94.1z"/>
	<path class="st2" d="M351.6,68v-0.2c0-18.6,10.3-34.4,26.1-34.4s25.8,15.6,25.8,34.2v0.2c0,18.6-10.2,34.4-26,34.4
		C361.6,102.2,351.6,86.6,351.6,68z M396.3,68v-0.2c0-14.5-7.4-27.5-18.8-27.5c-11.5,0-18.7,12.7-18.7,27.4v0.2
		c0,14.5,7.4,27.5,18.9,27.5C389.2,95.4,396.3,82.6,396.3,68z"/>
	<path class="st2" d="M413.6,94.1l21-20c9.5-9.1,12.8-14.2,12.8-20.9c0-7.8-5.7-12.7-12.4-12.7c-6.5,0-10.9,3.4-15.3,9.7
		c-0.5,0.8-1.4,1.3-2.5,1.3c-1.8,0-3.2-1.5-3.2-3.4c0-0.8,0.3-1.5,0.7-2.1c5.1-7.7,10.7-12.2,20.8-12.2c11.1,0,19,8,19,18.8v0.2
		c0,9.7-4.7,15.7-15.5,25.8l-16.4,15.8h29.8c1.8,0,3.2,1.5,3.2,3.4c0,1.9-1.5,3.4-3.2,3.4h-37c-2,0-3.5-1.4-3.5-3.5
		C411.9,96.1,412.4,95.1,413.6,94.1z"/>
	<path class="st2" d="M466.1,68v-0.2c0-18.6,10.3-34.4,26.1-34.4S518,49,518,67.7v0.2c0,18.6-10.2,34.4-26,34.4
		C476.1,102.2,466.1,86.6,466.1,68z M510.8,68v-0.2c0-14.5-7.4-27.5-18.8-27.5c-11.5,0-18.7,12.7-18.7,27.4v0.2
		c0,14.5,7.4,27.5,18.9,27.5C503.6,95.4,510.8,82.6,510.8,68z"/>
</g>
</svg>
