<?xml version="1.0" encoding="UTF-8"?>
<svg id="Layer_1" xmlns="http://www.w3.org/2000/svg" version="1.1" viewBox="0 0 108.7 108.7">
  <!-- Generator: Adobe Illustrator 29.8.3, SVG Export Plug-In . SVG Version: 2.1.1 Build 3)  -->
  <defs>
    <style>
      .st0, .st1 {
        fill: #f58220;
      }

      .st2 {
        fill: #693a19;
      }

      .st3, .st1 {
        isolation: isolate;
      }

      .st4 {
        fill: #f8a45a;
      }

      .st1 {
        font-family: ArialRoundedMTBold, 'Arial Rounded MT Bold';
        font-size: 91px;
      }

      .st5 {
        fill: #e11783;
      }
    </style>
  </defs>
  <g id="Layer_2">
    <g id="Group_21">
      <g id="Graphic_681">
        <path class="st0" d="M23.37,53.59h-.15c-.89,0-3.43-.18-4.23-1.9-.36-1.11-1.02-2.1-1.9-2.88-3.14-3.16-8.23-3.18-11.39-.04s-3.18,8.23-.04,11.39,8.23,3.18,11.39.04c.8-.8,1.44-1.77,1.84-2.83.89-1.81,3.5-1.99,4.42-1.99h.05c-.08-.58-.08-1.19,0-1.79"/>
      </g>
      <g id="Graphic_651">
        <path class="st0" d="M57.8,90.51c-1.72-.99-1.9-3.43-1.9-4.33v-.16c-.64.09-1.28.09-1.9-.02v.26c0,.99-.27,3.69-2.15,4.42-.16.07-.31.16-.46.27-.77.4-1.46.91-2.06,1.53-3.14,3.14-3.14,8.21,0,11.35,3.14,3.14,8.21,3.14,11.35,0s3.14-8.21,0-11.35h0c-.76-.89-1.76-1.59-2.88-1.97"/>
      </g>
      <g id="Graphic_621">
        <path class="st0" d="M104.27,48.83c-3.12-3.14-8.19-3.14-11.33-.02-.8.8-1.42,1.75-1.82,2.81-.99,1.81-3.5,1.99-4.42,1.99h-.04c.09.6.09,1.2,0,1.81h.15c.89,0,3.43.18,4.23,1.9.36,1.11,1.02,2.1,1.9,2.88,3.1,3.14,8.16,3.16,11.3.05.02-.02.04-.04.05-.05,3.04-3.18,3.04-8.2-.02-11.37"/>
      </g>
      <g id="Graphic_591">
        <path class="st0" d="M49.43,5.23c-3.14,3.1-3.16,8.16-.05,11.3.02.02.04.04.05.05.89.89,1.9,1.44,2.88,1.9,1.72.99,1.9,3.43,1.9,4.33v.13c.64-.09,1.28-.09,1.9.02v-.24c0-.99.27-3.69,2.15-4.42.16-.07.31-.16.46-.27.77-.4,1.46-.91,2.06-1.53,3.14-3.1,3.16-8.16.05-11.3-.02-.02-.04-.04-.05-.05-3.16-3.08-8.29-3.08-11.35.08"/>
      </g>
      <g id="Graphic_561">
        <path class="st5" d="M37.99,37.48c-3.14,3.14-8.21,3.14-11.35,0-3.14-3.14-3.14-8.21,0-11.35s8.21-3.14,11.35,0h0c3.15,3.06,3.15,8.19,0,11.35"/>
      </g>
      <g id="Graphic_531">
        <path class="st5" d="M72.11,71.51c3.14-3.14,8.21-3.14,11.35,0s3.14,8.21,0,11.35-8.21,3.14-11.35,0h0c-3.14-3.1-3.16-8.16-.05-11.3.02-.01.03-.03.05-.05"/>
      </g>
      <g id="Graphic_501">
        <path class="st5" d="M72.11,26.04c3.14-3.14,8.21-3.14,11.35,0s3.14,8.21,0,11.35c-3.14,3.14-8.21,3.14-11.35,0h0c-3.14-3.07-3.14-8.2,0-11.35"/>
      </g>
      <g id="Graphic_471">
        <path class="st5" d="M26.63,71.51c3.14-3.14,8.21-3.14,11.35,0s3.14,8.21,0,11.35-8.21,3.14-11.35,0h0c-3.14-3.1-3.16-8.16-.05-11.3.02-.01.04-.03.05-.05"/>
      </g>
      <g id="Graphic_441">
        <path class="st0" d="M33.77,58.81c-2.39,2.39-6.26,2.39-8.65,0s-2.39-6.26,0-8.65,6.26-2.39,8.65,0h0c2.41,2.34,2.41,6.26,0,8.65"/>
      </g>
      <g id="Graphic_411">
        <path class="st0" d="M59.47,33.35c-2.39,2.39-6.3,2.39-8.69,0s-2.39-6.3,0-8.69,6.3-2.39,8.69,0h0c2.39,2.39,2.41,6.26.02,8.67l-.02.02"/>
      </g>
      <g id="Graphic_381">
        <path class="st0" d="M84.96,58.85c-2.39,2.39-6.3,2.39-8.69,0s-2.39-6.3,0-8.69,6.3-2.39,8.69,0h0c2.41,2.34,2.41,6.26,0,8.69"/>
      </g>
      <g id="Graphic_351">
        <path class="st0" d="M59.37,84.29c-2.39,2.39-6.3,2.39-8.69,0s-2.39-6.3,0-8.69,6.3-2.39,8.69,0h0c2.39,2.39,2.41,6.26.02,8.67l-.02.02"/>
      </g>
      <g id="Graphic_321">
        <path class="st2" d="M49.43,47.48c-.57-.57-1.68-2.04-1.73-3.56-.44,1.46-1.64,2.55-3.14,2.85,1.75,0,3.28,1.13,3.8,1.72l.49.49c.16-.2.33-.38.51-.57.16-.16.35-.33.51-.47-.17-.13-.31-.28-.44-.46"/>
      </g>
      <g id="Graphic_291">
        <path class="st2" d="M62.48,43.41c.13,1.86-1.09,3.52-1.72,4.05l-.42.42c.18.16.36.31.55.49.18.18.36.38.53.6l.35-.35c.64-.64,2.43-1.99,4.14-1.72h.47c-1.97-.06-3.61-1.54-3.9-3.49"/>
      </g>
      <g id="Graphic_261">
        <path class="st2" d="M62.42,64.71c.44-1.51,1.68-2.65,3.23-2.92-1.82.09-3.45-1.19-3.98-1.81l-.4-.4c-.13.15-.26.29-.38.42-.18.18-.38.36-.58.53.11.18.24.36.38.53.56.58,1.71,2.09,1.73,3.65"/>
      </g>
      <g id="Graphic_231">
        <path class="st2" d="M49.34,60.02c-.2-.2-.4-.42-.58-.62l-.42.42c-.6.6-2.24,1.82-3.89,1.72,1.7.38,2.96,1.81,3.16,3.54-.15-1.86,1.09-3.56,1.72-4.09l.51-.51c-.17-.15-.34-.3-.5-.46"/>
      </g>
      <g id="Graphic_201">
        <path class="st2" d="M47.84,42.73c0,2.26-1.84,4.11-4.11,4.11s-4.11-1.84-4.11-4.11,1.84-4.11,4.11-4.11h0c2.27.03,4.11,1.85,4.11,4.11"/>
      </g>
      <g id="Graphic_171">
        <path class="st2" d="M70.63,42.82c0,2.28-1.84,4.12-4.12,4.12s-4.12-1.84-4.12-4.12,1.84-4.12,4.12-4.12,4.12,1.84,4.12,4.12h0"/>
      </g>
      <g id="Graphic_141">
        <path class="st2" d="M70.47,65.86c0,2.28-1.84,4.12-4.12,4.12s-4.12-1.84-4.12-4.12,1.84-4.12,4.12-4.12c2.28-.01,4.12,1.83,4.12,4.12h0"/>
      </g>
      <g id="Graphic_111">
        <path class="st2" d="M47.68,65.56c0,2.28-1.84,4.12-4.12,4.12s-4.12-1.84-4.12-4.12,1.84-4.12,4.12-4.12h0c2.27,0,4.12,1.84,4.12,4.12h0"/>
      </g>
      <g id="Graphic_81">
        <path class="st4" d="M49.3,48.34c3.14-3.21,8.29-3.25,11.5-.11.04.04.07.07.11.11,3.23,3.21,3.23,8.45.02,11.66l-.02.02c-3.14,3.21-8.29,3.25-11.5.11-.04-.04-.07-.07-.11-.11-3.23-3.16-3.23-8.45,0-11.68"/>
      </g>
    </g>
  </g>
</svg>