<?xml version="1.0" encoding="UTF-8"?>
<svg id="Vrstva_1" xmlns="http://www.w3.org/2000/svg" version="1.1" viewBox="0 0 657.4 161.6">
  <!-- Generator: Adobe Illustrator 29.1.0, SVG Export Plug-In . SVG Version: 2.1.0 Build 142)  -->
  <defs>
    <style>
      .st0 {
        fill: #575756;
      }

      .st1 {
        fill: #da171c;
      }

      .st2 {
        fill: #878787;
      }
    </style>
  </defs>
  <g>
    <path class="st1" d="M56.6,63.9c-3.8,3.8-10,3.8-13.8,0-3.8-3.8-3.8-10,0-13.8,3.8-3.8,10-3.8,13.8,0,3.8,3.7,3.8,10,0,13.8Z"/>
    <path class="st1" d="M98.1,105.3c3.8-3.8,10-3.8,13.8,0,3.8,3.8,3.8,10,0,13.8-3.8,3.8-10,3.8-13.8,0-3.8-3.8-3.8-10,0-13.8Z"/>
    <path class="st1" d="M98.1,50c3.8-3.8,10-3.8,13.8,0,3.8,3.8,3.8,10,0,13.8-3.8,3.8-10,3.8-13.8,0-3.8-3.7-3.8-10,0-13.8Z"/>
    <path class="st1" d="M42.8,105.3c3.8-3.8,10-3.8,13.8,0,3.8,3.8,3.8,10,0,13.8-3.8,3.8-10,3.8-13.8,0-3.8-3.8-3.8-10,0-13.8Z"/>
  </g>
  <path class="st0" d="M91.1,93.4h-.7c-2.3.2-4.4-1.4-5-2.2,0,0-.2-.2-.5-.5,3.1-3.6,3.1-8.9,0-12.6.3-.3.5-.5.7-.7.8-.8,3-2.4,5-2.1h.8c2.7,0,4.9-2.2,4.9-4.9s-2.2-4.9-4.9-4.9-4.9,2.2-4.9,4.9v.5h0c.2,2.3-1.3,4.4-2.1,5,0,0-.2.2-.5.5-3.6-3.1-9-3-12.6.1-.4-.3-.7-.7-.7-.7-.8-.8-2.4-3-2.1-5h0v-.8c0-2.7-2.2-4.9-4.8-4.9s-4.9,2.2-4.9,4.9,2.2,4.9,4.9,4.9h.5c2.3-.2,4.4,1.3,5,2.1l.7.7c-3,3.6-3,8.9,0,12.5l-.7.7c-.8.8-3,2.4-5,2.1h-.8c-2.7,0-4.9,2.2-4.9,4.9s2.2,4.8,4.9,4.8,4.9-2.2,4.9-4.8v-.5h0c-.2-2.3,1.3-4.4,2.1-5,0,0,.2-.2.7-.7,3.6,3.1,9,3.1,12.6,0,.3.5.5.8.5.8.8.8,2.4,3,2.1,5h0v.8c0,2.7,2.2,4.8,4.9,4.8s4.9-2.2,4.9-4.8c-.1-2.7-2.3-4.9-5-4.9Z"/>
  <path class="st2" d="M137.2,77.7c-3.8-3.8-10-3.8-13.8,0-1,1-1.8,2.2-2.2,3.4-1.2,2.2-4.3,2.4-5.4,2.4h-.1c-.2-1.4-.9-2.8-2.1-4.1-2.8-2.8-7.6-2.8-10.4,0-2.8,2.8-2.8,7.6,0,10.4,2.8,2.8,7.6,2.8,10.4,0,1.2-1.2,1.9-2.6,2.1-4.2h.2c1.1,0,4.2.2,5.1,2.3.4,1.3,1.2,2.5,2.3,3.5,3.8,3.8,10,3.8,13.8,0,3.7-3.8,3.7-10,0-13.8ZM70.5,24.7c-3.8,3.8-3.8,10,0,13.8,1.1,1.1,2.3,1.8,3.5,2.3,2.1,1.2,2.3,4.2,2.3,5.3v.2c-1.5.2-3,.9-4.1,2.1-2.8,2.8-2.8,7.4,0,10.4,2.8,2.8,7.6,2.8,10.4,0,2.8-2.8,2.8-7.6,0-10.4s-2.6-1.9-4.1-2.1v-.3c0-1.2.3-4.5,2.6-5.4.2-.1.4-.2.5-.3.9-.4,1.8-1.1,2.5-1.9,3.8-3.8,3.8-10,0-13.8-3.8-3.7-10.1-3.7-13.8.1ZM80.7,128.4c-2.1-1.2-2.3-4.2-2.3-5.3v-.2c1.5-.2,3-.9,4.1-2.1,2.8-2.8,2.8-7.6,0-10.4-2.8-2.8-7.6-2.8-10.4,0-2.8,2.8-2.8,7.6,0,10.4,1.1,1.1,2.6,1.9,4.1,2.1v.3c0,1.2-.3,4.5-2.6,5.4-.2.1-.4.2-.5.3-.9.4-1.8,1.1-2.5,1.9-3.8,3.8-3.8,10,0,13.8,3.8,3.8,10,3.8,13.8,0,3.8-3.8,3.8-10,0-13.8-1-1.2-2.2-2-3.5-2.4ZM40.9,79.3c-1.2,1.2-1.9,2.6-2.1,4.2h-.2c-1.1,0-4.2-.2-5.1-2.3-.4-1.3-1.2-2.5-2.3-3.5-3.8-3.8-10-3.8-13.8,0-3.8,3.8-3.8,10,0,13.8,3.8,3.8,10,3.8,13.8,0,1-1,1.8-2.2,2.2-3.4,1.1-2.2,4.3-2.4,5.4-2.4h.1c.2,1.4.9,2.8,2.1,4.1,2.8,2.8,7.6,2.8,10.4,0,2.8-2.8,2.8-7.4,0-10.4-2.8-2.8-7.6-2.8-10.4,0Z"/>
  <path class="st1" d="M216.2,50.9c-.9-.8-1.9-1.2-3.2-1.2s-3.1.9-4,2.8l-23.5,58.5-24.5-58.3c-.9-2-2.3-3-4.2-3s-1.9.4-2.9,1.2c-1,.8-1.5,1.8-1.5,3.1s0,.7.1,1.1c0,.4.2.7.3,1l27.9,66.4c.4.9.9,1.5,1.7,2,.8.5,1.5.7,2.3.8.9,0,1.7-.2,2.4-.7.8-.5,1.3-1.2,1.8-2.1l28.1-66.5c.3-.7.4-1.4.4-2,0-1.1-.4-2.1-1.3-2.9Z"/>
  <path class="st1" d="M239,51.1c-.9-.9-1.9-1.3-3.1-1.3s-2.5.4-3.3,1.3c-.9.9-1.3,1.9-1.3,3.1v66.5c0,1.2.4,2.3,1.2,3.1.8.9,1.9,1.3,3.3,1.3s2.3-.4,3.2-1.3c.9-.9,1.3-1.9,1.3-3.1V54.3c0-1.2-.4-2.3-1.3-3.1Z"/>
  <path class="st1" d="M307.8,96.3c-1.2-2.5-2.9-4.6-5-6.3-2.2-1.7-4.7-3-7.7-4.1-3-1.1-6.2-2.1-9.7-3-3.2-.9-6.2-1.8-8.8-3-2.7-1.1-4.8-2.5-6.4-4.3-1.6-1.8-2.4-4-2.4-6.7s.7-4.5,2.1-6.2,3.4-3.1,5.9-4c2.5-1,5.4-1.5,8.7-1.5s4.4.3,6.6,1c2.2.6,4.2,1.5,6.1,2.6,1.9,1.1,3.5,2.3,4.7,3.7.6.5,1.4.8,2.2.8,1.1,0,2.2-.4,3.1-1.3.9-.9,1.3-1.8,1.3-2.9s-.7-2.7-2.2-4.1c-2.4-2.5-5.5-4.5-9.4-5.9-3.9-1.4-8.1-2.2-12.4-2.2s-9.3.9-13.2,2.6c-3.8,1.7-6.8,4.1-9,7.2-2.2,3.1-3.2,6.6-3.2,10.7s.6,6.2,1.7,8.6c1.1,2.4,2.7,4.5,4.7,6.1,2,1.7,4.4,3.1,7.2,4.2,2.8,1.1,5.8,2.1,9.1,2.9,3.7.9,7,2,9.8,3.2,2.8,1.2,5.1,2.8,6.7,4.6,1.6,1.9,2.4,4.2,2.4,7.1s-.8,4.4-2.3,6.2c-1.5,1.8-3.5,3.2-6,4.2-2.5,1-5.3,1.5-8.5,1.5s-7.8-.7-11-2.2c-3.3-1.4-6.3-3.5-9.1-6.2-.8-.8-1.7-1.2-2.7-1.2s-2.2.4-3.1,1.3c-.8.9-1.2,1.9-1.2,3.1s.2,1.4.5,2c.3.6.7,1.2,1.2,1.6,3.7,3.4,7.6,6,11.6,7.5,4,1.6,8.7,2.4,14,2.4s9.1-.9,13-2.7c3.8-1.8,6.9-4.2,9.1-7.3,2.2-3.1,3.3-6.6,3.3-10.5s-.6-6.9-1.8-9.4Z"/>
  <path class="st0" d="M375.4,118.3c-.8-.8-1.8-1.2-2.9-1.2h-29.5l17.9-19.7c3.1-3.4,5.6-6.5,7.6-9.5,2-3,3.5-5.9,4.5-8.7,1-2.8,1.5-5.6,1.5-8.3,0-4.3-.9-8.1-2.8-11.4-1.9-3.3-4.5-5.9-8-7.8-3.4-1.9-7.6-2.9-12.6-2.9s-7.7,1-11.4,2.9c-3.7,1.9-6.7,4.7-8.9,8.3-.7.8-1.3,1.5-1.8,2.3-.5.7-.7,1.5-.7,2.3s.5,1.9,1.4,2.7c.9.8,1.9,1.2,3,1.2s1.3-.2,1.9-.5c.6-.4,1.2-.9,1.7-1.6,1.5-3.2,3.6-5.5,6.2-7.1,2.6-1.5,5.3-2.3,8.1-2.3s5.7.6,7.9,1.8c2.3,1.2,4,2.9,5.2,5.1,1.2,2.2,1.8,4.7,1.8,7.5s-.9,6.3-2.8,9.5c-1.9,3.3-4.5,6.8-8,10.5l-24.4,26.6c-.8.9-1.2,2-1.2,3.1s.4,2.3,1.2,3.1c.8.8,1.8,1.1,3.1,1.1h39.1c1.1,0,2.1-.4,2.9-1.1.8-.8,1.2-1.7,1.2-2.9s-.4-2.1-1.2-2.9Z"/>
  <path class="st0" d="M440.1,67.6c-2-5.8-5-10.4-9-13.8-4-3.4-9-5.1-14.9-5.1s-10.9,1.7-15,5.1c-4,3.4-7,8-9,13.8-2,5.8-3,12.5-3,19.9s1,14,3,19.9c2,5.8,5,10.5,9,13.8,4,3.4,9,5.1,15,5.1s10.9-1.7,14.9-5.1c4-3.4,7-8,9-13.8,2-5.8,3-12.5,3-19.9s-1-14.1-3-19.9ZM431.8,103.5c-1.4,4.5-3.4,8-6,10.4-2.6,2.4-5.8,3.7-9.5,3.7s-7-1.2-9.6-3.7c-2.6-2.4-4.6-5.9-6-10.4-1.4-4.5-2.1-9.8-2.1-16s.7-11.6,2.1-16.1c1.4-4.5,3.4-7.9,6-10.3,2.6-2.4,5.8-3.6,9.6-3.6s6.9,1.2,9.5,3.6c2.6,2.4,4.6,5.9,6,10.3,1.4,4.5,2.1,9.8,2.1,16.1s-.7,11.5-2.1,16Z"/>
  <path class="st0" d="M501.9,118.3c-.8-.8-1.8-1.2-2.9-1.2h-29.5l17.9-19.7c3.1-3.4,5.6-6.5,7.6-9.5,2-3,3.5-5.9,4.5-8.7,1-2.8,1.5-5.6,1.5-8.3,0-4.3-.9-8.1-2.8-11.4-1.9-3.3-4.5-5.9-8-7.8-3.4-1.9-7.6-2.9-12.6-2.9s-7.7,1-11.4,2.9c-3.7,1.9-6.7,4.7-8.9,8.3-.7.8-1.3,1.5-1.8,2.3-.5.7-.7,1.5-.7,2.3s.5,1.9,1.4,2.7c.9.8,1.9,1.2,3,1.2s1.3-.2,1.9-.5c.6-.4,1.2-.9,1.7-1.6,1.5-3.2,3.6-5.5,6.2-7.1,2.6-1.5,5.3-2.3,8.1-2.3s5.7.6,7.9,1.8c2.3,1.2,4,2.9,5.2,5.1,1.2,2.2,1.8,4.7,1.8,7.5s-.9,6.3-2.8,9.5c-1.9,3.3-4.5,6.8-8,10.5l-24.4,26.6c-.8.9-1.2,2-1.2,3.1s.4,2.3,1.2,3.1c.8.8,1.8,1.1,3.1,1.1h39.1c1.1,0,2.1-.4,2.9-1.1.8-.8,1.2-1.7,1.2-2.9s-.4-2.1-1.2-2.9Z"/>
  <path class="st0" d="M559.8,86.8c-2.2-3.7-5.1-6.5-8.8-8.7-3.7-2.1-7.9-3.2-12.5-3.2s-4.4.3-6.5.8c-2.1.5-4,1.1-5.6,1.8-.5.2-.9.4-1.3.6l3.2-20.1h28.9c1.1,0,2.1-.4,2.9-1.1.8-.8,1.2-1.7,1.2-2.9s-.4-2.2-1.2-3c-.8-.8-1.8-1.2-2.9-1.2h-32c-1.1,0-2.1.4-3,1.1-.8.7-1.3,1.5-1.5,2.5l-4.2,28.4c-.1.9,0,1.7.2,2.6.3.9.8,1.7,1.6,2.3.8.6,1.9,1,3.2,1s2.1-.4,3.6-1.2c1.4-.8,3.2-1.6,5.2-2.4,2-.8,4.3-1.2,6.8-1.2s6.4.7,9,2.1c2.6,1.4,4.7,3.3,6.1,5.8,1.5,2.4,2.2,5.3,2.2,8.7s-.8,6.4-2.5,9.2c-1.7,2.8-4,4.9-7,6.5-3,1.6-6.3,2.4-10.1,2.4s-3.9-.4-5.8-1.1-3.7-1.7-5.3-2.9c-1.2-.9-2.3-1.4-3.2-1.4s-2.2.4-3,1.2c-.8.8-1.1,1.7-1.1,2.5s.2,1.5.5,2.3c.4.8.8,1.4,1.4,1.9,2.2,1.8,4.8,3.2,7.8,4.1,3,.9,5.9,1.4,8.8,1.4s7.7-.7,11.1-2c3.4-1.3,6.4-3.2,8.9-5.5,2.5-2.3,4.5-5.1,5.9-8.3,1.4-3.2,2.1-6.7,2.1-10.5s-1.1-8.9-3.2-12.6Z"/>
  <path class="st0" d="M548.2,44.2c3.4-5,7.8-9.2,13-12.3l19.1,33.1.4.6s0,0,0,0c0,0,0,0,0,0l-.6-.4-13.7-7.9c-.1.3-.2.6-.4.9l14.1,8.2h0c0,0-38.1,0-38.1,0,0,.3,0,.7,0,1h37.5l-.4.6-18.3,10.6c.2.2.5.5.7.8l16.6-9.6-11.1,19.2c.8,2.4,1.3,4.8,1.5,7.5h13.1v11.2c-4.7,0-9.3-.9-13.5-2.5-.2,1.3-.6,2.6-1,3.9,0,.2,0,.2,0,.2,3.1,1.1,6.4,1.8,9.8,2.2-.5.2-.9.7-.9,1.3v9.4h-17.2c-1.7,1.5-3.5,2.8-5.4,4h75.9c1.1,0,2-.9,2-2s-.9-2-2-2h-12.8l-2.6-4.5h.1c.8,0,1.4-.6,1.4-1.4v-9.5c0-.8-.6-1.4-1.4-1.4h-8.9c6.4-3.8,11.8-9.2,15.6-15.6v9.4c0,.8.6,1.4,1.4,1.4h9.5c.8,0,1.4-.6,1.4-1.4v-9.5c0-.8-.6-1.4-1.4-1.4h-9.5c-.2,0-.4,0-.6.1,2.8-5.1,4.6-10.7,5.3-16.7,0,.7.7,1.2,1.4,1.2h9.5c.8,0,1.4-.6,1.4-1.4v-9.5c0-.8-.6-1.4-1.4-1.4h-9.5c-.7,0-1.3.5-1.4,1.2-.6-5.9-2.4-11.5-5.1-16.5.1,0,.3,0,.5,0h9.5c.8,0,1.4-.6,1.4-1.4v-9.5c0-.8-.6-1.4-1.4-1.4h-9.5c-.8,0-1.4.6-1.4,1.4v9.2c-3.8-6.4-9.2-11.8-15.6-15.6h8.9c.8,0,1.4-.6,1.4-1.4v-9.5c0-.8-.6-1.4-1.4-1.4h-9.5c-.8,0-1.4.6-1.4,1.4v9.5c0,.1,0,.2,0,.3-4.8-2.6-10.1-4.3-15.8-4.9.6-.2,1-.7,1-1.3v-9.5c0-.8-.6-1.4-1.4-1.4h-9.5c-.8,0-1.4.6-1.4,1.4v9.5c0,.6.4,1.1,1,1.3-5.8.7-11.2,2.4-16.1,5,0-.1,0-.2,0-.4v-9.5c0-.8-.6-1.4-1.4-1.4h-9.5c-.8,0-1.4.6-1.4,1.4v9.5c0,.8.6,1.4,1.4,1.4h9c-6.2,3.7-11.4,8.8-15.2,15v-8.6c0-.8-.6-1.4-1.4-1.4h-9.5c-.8,0-1.4.6-1.4,1.4v9.4h16.8ZM617.2,46.2l-33,19.1-.6.4s0,0,0,0,0,0,0,0l.4-.6,19.1-33.1c5.9,3.5,10.8,8.4,14.2,14.3ZM582.6,107.8v-11.2h14.2l3.9,6.7c-5.4,2.8-11.6,4.4-18.1,4.5ZM582.6,92.6v-20.7l11.9,20.7h-11.9ZM582.6,65.1s0,0,0,0V26.2c7.1,0,13.7,2,19.5,5.3l-19.5,33.7ZM562.1,31.4c5.8-3.3,12.4-5.1,19.5-5.2v38.9s0,0,0,0l-19.5-33.7ZM569.7,92.6l11.9-20.7v20.7h-11.9ZM604.4,118h4.8l2.6,4.5h-23.5v-9.4c0-.6-.4-1.2-1-1.3,5.7-.7,11-2.4,15.8-4.9,0,0,0,.2,0,.3v9.5c0,.8.6,1.4,1.4,1.4ZM604.2,101.3l-18.1-31.4,31.1,18c-3.2,5.4-7.7,10-13,13.4ZM617.6,87l-32.6-18.8-.4-.6h38.2c0,7.1-2,13.7-5.2,19.5ZM584.1,66.5h0c0,0,33.6-19.5,33.6-19.5,3.2,5.8,5.1,12.4,5.2,19.5h-38.8Z"/>
</svg>