<?xml version="1.0" encoding="UTF-8"?>
<svg id="Layer_1" xmlns="http://www.w3.org/2000/svg" version="1.1" viewBox="0 0 482.43 108.7">
  <!-- Generator: Adobe Illustrator 29.8.3, SVG Export Plug-In . SVG Version: 2.1.1 Build 3)  -->
  <defs>
    <style>
      .st0, .st1 {
        fill: #ffffff;
      }

      .st2 {
        fill: #ffffff;
      }

      .st3, .st1 {
        isolation: isolate;
      }

      .st4 {
        fill: #ffffff;
      }

      .st1 {
        font-family: ArialRoundedMTBold, 'Arial Rounded MT Bold';
        font-size: 91px;
      }

      .st5 {
        fill: #ffffff;
      }
    </style>
  </defs>
  <g id="Layer_2">
    <g id="Group_21">
      <g id="Graphic_681">
        <path class="st0" d="M23.37,53.59h-.15c-.89,0-3.43-.18-4.23-1.9-.36-1.11-1.02-2.1-1.9-2.88-3.14-3.16-8.23-3.18-11.39-.04s-3.18,8.23-.04,11.39,8.23,3.18,11.39.04c.8-.8,1.44-1.77,1.84-2.83.89-1.81,3.5-1.99,4.42-1.99h.05c-.08-.58-.08-1.19,0-1.79"/>
      </g>
      <g id="Graphic_651">
        <path class="st0" d="M57.8,90.51c-1.72-.99-1.9-3.43-1.9-4.33v-.16c-.64.09-1.28.09-1.9-.02v.26c0,.99-.27,3.69-2.15,4.42-.16.07-.31.16-.46.27-.77.4-1.46.91-2.06,1.53-3.14,3.14-3.14,8.21,0,11.35,3.14,3.14,8.21,3.14,11.35,0s3.14-8.21,0-11.35h0c-.76-.89-1.76-1.59-2.88-1.97"/>
      </g>
      <g id="Graphic_621">
        <path class="st0" d="M104.27,48.83c-3.12-3.14-8.19-3.14-11.33-.02-.8.8-1.42,1.75-1.82,2.81-.99,1.81-3.5,1.99-4.42,1.99h-.04c.09.6.09,1.2,0,1.81h.15c.89,0,3.43.18,4.23,1.9.36,1.11,1.02,2.1,1.9,2.88,3.1,3.14,8.16,3.16,11.3.05.02-.02.04-.04.05-.05,3.04-3.18,3.04-8.2-.02-11.37"/>
      </g>
      <g id="Graphic_591">
        <path class="st0" d="M49.43,5.23c-3.14,3.1-3.16,8.16-.05,11.3.02.02.04.04.05.05.89.89,1.9,1.44,2.88,1.9,1.72.99,1.9,3.43,1.9,4.33v.13c.64-.09,1.28-.09,1.9.02v-.24c0-.99.27-3.69,2.15-4.42.16-.07.31-.16.46-.27.77-.4,1.46-.91,2.06-1.53,3.14-3.1,3.16-8.16.05-11.3-.02-.02-.04-.04-.05-.05-3.16-3.08-8.29-3.08-11.35.08"/>
      </g>
      <g id="Graphic_561">
        <path class="st5" d="M37.99,37.48c-3.14,3.14-8.21,3.14-11.35,0-3.14-3.14-3.14-8.21,0-11.35s8.21-3.14,11.35,0h0c3.15,3.06,3.15,8.19,0,11.35"/>
      </g>
      <g id="Graphic_531">
        <path class="st5" d="M72.11,71.51c3.14-3.14,8.21-3.14,11.35,0s3.14,8.21,0,11.35-8.21,3.14-11.35,0h0c-3.14-3.1-3.16-8.16-.05-11.3.02-.01.03-.03.05-.05"/>
      </g>
      <g id="Graphic_501">
        <path class="st5" d="M72.11,26.04c3.14-3.14,8.21-3.14,11.35,0s3.14,8.21,0,11.35c-3.14,3.14-8.21,3.14-11.35,0h0c-3.14-3.07-3.14-8.2,0-11.35"/>
      </g>
      <g id="Graphic_471">
        <path class="st5" d="M26.63,71.51c3.14-3.14,8.21-3.14,11.35,0s3.14,8.21,0,11.35-8.21,3.14-11.35,0h0c-3.14-3.1-3.16-8.16-.05-11.3.02-.01.04-.03.05-.05"/>
      </g>
      <g id="Graphic_441">
        <path class="st0" d="M33.77,58.81c-2.39,2.39-6.26,2.39-8.65,0s-2.39-6.26,0-8.65,6.26-2.39,8.65,0h0c2.41,2.34,2.41,6.26,0,8.65"/>
      </g>
      <g id="Graphic_411">
        <path class="st0" d="M59.47,33.35c-2.39,2.39-6.3,2.39-8.69,0s-2.39-6.3,0-8.69,6.3-2.39,8.69,0h0c2.39,2.39,2.41,6.26.02,8.67l-.02.02"/>
      </g>
      <g id="Graphic_381">
        <path class="st0" d="M84.96,58.85c-2.39,2.39-6.3,2.39-8.69,0s-2.39-6.3,0-8.69,6.3-2.39,8.69,0h0c2.41,2.34,2.41,6.26,0,8.69"/>
      </g>
      <g id="Graphic_351">
        <path class="st0" d="M59.37,84.29c-2.39,2.39-6.3,2.39-8.69,0s-2.39-6.3,0-8.69,6.3-2.39,8.69,0h0c2.39,2.39,2.41,6.26.02,8.67l-.02.02"/>
      </g>
      <g id="Graphic_321">
        <path class="st2" d="M49.43,47.48c-.57-.57-1.68-2.04-1.73-3.56-.44,1.46-1.64,2.55-3.14,2.85,1.75,0,3.28,1.13,3.8,1.72l.49.49c.16-.2.33-.38.51-.57.16-.16.35-.33.51-.47-.17-.13-.31-.28-.44-.46"/>
      </g>
      <g id="Graphic_291">
        <path class="st2" d="M62.48,43.41c.13,1.86-1.09,3.52-1.72,4.05l-.42.42c.18.16.36.31.55.49.18.18.36.38.53.6l.35-.35c.64-.64,2.43-1.99,4.14-1.72h.47c-1.97-.06-3.61-1.54-3.9-3.49"/>
      </g>
      <g id="Graphic_261">
        <path class="st2" d="M62.42,64.71c.44-1.51,1.68-2.65,3.23-2.92-1.82.09-3.45-1.19-3.98-1.81l-.4-.4c-.13.15-.26.29-.38.42-.18.18-.38.36-.58.53.11.18.24.36.38.53.56.58,1.71,2.09,1.73,3.65"/>
      </g>
      <g id="Graphic_231">
        <path class="st2" d="M49.34,60.02c-.2-.2-.4-.42-.58-.62l-.42.42c-.6.6-2.24,1.82-3.89,1.72,1.7.38,2.96,1.81,3.16,3.54-.15-1.86,1.09-3.56,1.72-4.09l.51-.51c-.17-.15-.34-.3-.5-.46"/>
      </g>
      <g id="Graphic_201">
        <path class="st2" d="M47.84,42.73c0,2.26-1.84,4.11-4.11,4.11s-4.11-1.84-4.11-4.11,1.84-4.11,4.11-4.11h0c2.27.03,4.11,1.85,4.11,4.11"/>
      </g>
      <g id="Graphic_171">
        <path class="st2" d="M70.63,42.82c0,2.28-1.84,4.12-4.12,4.12s-4.12-1.84-4.12-4.12,1.84-4.12,4.12-4.12,4.12,1.84,4.12,4.12h0"/>
      </g>
      <g id="Graphic_141">
        <path class="st2" d="M70.47,65.86c0,2.28-1.84,4.12-4.12,4.12s-4.12-1.84-4.12-4.12,1.84-4.12,4.12-4.12c2.28-.01,4.12,1.83,4.12,4.12h0"/>
      </g>
      <g id="Graphic_111">
        <path class="st2" d="M47.68,65.56c0,2.28-1.84,4.12-4.12,4.12s-4.12-1.84-4.12-4.12,1.84-4.12,4.12-4.12h0c2.27,0,4.12,1.84,4.12,4.12h0"/>
      </g>
      <g id="Graphic_81">
        <path class="st4" d="M49.3,48.34c3.14-3.21,8.29-3.25,11.5-.11.04.04.07.07.11.11,3.23,3.21,3.23,8.45.02,11.66l-.02.02c-3.14,3.21-8.29,3.25-11.5.11-.04-.04-.07-.07-.11-.11-3.23-3.16-3.23-8.45,0-11.68"/>
      </g>
    </g>
    <path class="st5" d="M236.37,90.31c-4.42-.03-8.76-.52-12.88-2.22-6.08-2.51-10.24-6.86-12.33-13.11-.58-1.75-.85-3.57-.37-5.41.6-2.35,2.81-4.06,5.22-4.2,2.8-.16,4.49,1.33,5.7,3.62.76,1.43,1.25,2.97,2,4.4.94,1.78,1.98,3.47,3.63,4.71,1.88,1.42,4.01,2.17,6.33,2.4,2.75.27,5.48.15,8.13-.69,2.18-.69,4.05-1.84,5.58-3.56,2.61-2.94,2.9-8.69-1.55-11.67-1.81-1.21-3.8-1.9-5.85-2.51-3.37-1-6.83-1.64-10.2-2.62-3.34-.97-6.65-2.05-9.67-3.83-2.98-1.75-5.4-4.07-6.87-7.24-1.26-2.73-1.59-5.63-1.35-8.61.26-3.39,1.47-6.39,3.63-9,2.27-2.75,5.22-4.5,8.53-5.7,3.06-1.11,6.22-1.65,9.46-1.83,3.44-.2,6.86-.1,10.24.63,4.4.94,8.35,2.76,11.54,6.01,2.08,2.11,3.51,4.57,4.01,7.52.45,2.61-.27,4.8-2.32,6.54-1.78,1.53-5.82,1.7-7.53-.73-.92-1.31-1.71-2.69-2.46-4.1-.68-1.28-1.53-2.44-2.5-3.53-1.52-1.7-3.45-2.56-5.67-2.89-2.76-.4-5.5-.39-8.2.35-1.85.51-3.49,1.41-4.83,2.8-2.57,2.66-2.36,6.53.51,8.87,1.8,1.47,3.93,2.31,6.14,2.95,3.69,1.07,7.46,1.85,11.16,2.93,3.21.93,6.39,1.95,9.37,3.53,3.29,1.74,6,4.08,7.65,7.48.99,2.04,1.43,4.21,1.58,6.46.19,2.77-.08,5.47-.98,8.09-1.69,4.92-4.98,8.45-9.55,10.85-3.21,1.69-6.64,2.62-10.23,3.04-1.67.17-3.36.28-5.07.27h0Z"/>
    <path class="st0" d="M370.02,57.41c.04,2.72-.09,5.44-.33,8.15-.37,4.22-1.13,8.35-3.02,12.19-2.88,5.86-7.26,10.06-13.67,11.71-7.29,1.87-13.93.42-19.63-4.64-3.41-3.03-5.57-6.85-6.86-11.19-.89-3.02-1.38-6.11-1.65-9.24-.25-2.9-.33-5.8-.25-8.71.13-4.9.46-9.79,1.59-14.58.88-3.76,2.35-7.24,4.82-10.25,2.96-3.62,6.78-5.81,11.36-6.68,3.75-.71,7.49-.62,11.18.44,5.35,1.54,9.17,4.97,11.92,9.71,1.92,3.3,2.99,6.88,3.63,10.61.47,2.73.72,5.49.84,8.25.05,1.41.04,2.82.07,4.23h0ZM336.79,57.38c.02,3.18.13,6.99.62,10.78.32,2.5.8,4.97,1.81,7.3,1.35,3.1,3.4,5.35,6.99,5.7,3.22.31,5.95-.57,7.89-3.32,1.66-2.35,2.4-5.04,2.87-7.82.69-4.02.83-8.08.89-12.14.05-3.39-.05-6.78-.36-10.16-.21-2.29-.52-4.56-1.13-6.79-.45-1.63-1.08-3.18-2.01-4.59-1.55-2.34-3.78-3.46-6.53-3.6-1.69-.09-3.32.16-4.82.99-1.85,1.03-3,2.66-3.78,4.57-1.21,2.95-1.69,6.07-2.01,9.21-.32,3.06-.43,6.15-.43,9.87h0Z"/>
    <path class="st5" d="M146.24,75.22c.46-1.38.9-2.68,1.34-3.98,4.78-14.15,9.55-28.29,14.33-42.44.24-.7.5-1.39.79-2.07,1.07-2.53,3.44-3.89,6.21-3.58,2.75.31,5.1,2.42,5.51,5,.24,1.48-.09,2.91-.56,4.3-1.27,3.79-2.72,7.51-4.11,11.25-4.2,11.34-8.42,22.68-12.62,34.03-.75,2.01-1.39,4.07-2.26,6.03-.72,1.62-1.55,3.16-2.91,4.37-2.06,1.84-4.51,2.34-7.18,2.11-3.71-.33-5.97-2.55-7.49-5.74-.9-1.88-1.56-3.86-2.27-5.81-3.02-8.24-6.05-16.47-9.08-24.71-2.53-6.88-5.06-13.76-7.58-20.65-.48-1.33-.85-2.69-.87-4.12-.04-2.84,2.32-5.57,5.14-5.99,1.2-.18,2.38-.13,3.54.21,1.13.33,2.01.99,2.63,1.99,1.06,1.73,1.78,3.61,2.43,5.52,4.95,14.6,9.89,29.21,14.84,43.81.04.15.09.27.17.47h0Z"/>
    <path class="st0" d="M286.62,78.81h23.3c1.25,0,2.48.15,3.66.61,1.73.68,2.93,1.86,3.2,3.76.29,2.04-.29,3.8-2.01,5.06-1,.73-2.18.94-3.39.96-1.56.03-3.13.01-4.69.01h-28.37c-1.42,0-2.78-.24-4.02-.97-2.46-1.47-3.53-4.16-2.69-6.96.82-2.72,2.11-5.18,4.15-7.22,2.91-2.91,5.8-5.86,8.79-8.69,3.23-3.06,6.63-5.89,10.19-8.55,2.94-2.2,5.48-4.82,7.21-8.12,1.39-2.65,2.08-5.45,1.35-8.41-1-4.05-3.7-6.42-7.73-7.24-3.11-.63-6.03-.05-8.58,1.92-1.82,1.41-3.03,3.24-3.74,5.44-.54,1.68-1.23,3.29-2.1,4.84-1.89,3.35-6.49,3.02-8.32.92-1.05-1.21-1.4-2.63-1.34-4.16.15-3.6,1.34-6.87,3.46-9.78,2.91-3.99,6.91-6.35,11.63-7.56,3.1-.8,6.27-.93,9.46-.74,2.97.18,5.89.63,8.64,1.8,5.83,2.48,9.38,6.92,10.67,13.07,1.07,5.13.01,9.91-2.78,14.35-2.09,3.33-4.75,6.11-7.75,8.62-4.15,3.47-8.43,6.8-12.42,10.45-2.04,1.87-3.96,3.84-5.5,6.15-.07.11-.15.24-.28.44h0Z"/>
    <path class="st0" d="M394.66,78.81h23.26c1.27,0,2.52.14,3.71.61,1.73.68,2.92,1.87,3.19,3.76.29,2.05-.3,3.79-2.02,5.05-.93.68-2.03.86-3.14.95-.18.01-.37.01-.56.01-10.95,0-21.91,0-32.86-.01-1.81,0-3.51-.42-4.88-1.7-1.85-1.72-2.43-3.83-1.71-6.24.82-2.74,2.14-5.2,4.19-7.25,2.9-2.9,5.77-5.83,8.75-8.65,3.23-3.06,6.63-5.89,10.19-8.55,2.94-2.2,5.48-4.82,7.2-8.12,1.38-2.63,2.07-5.42,1.35-8.36-.99-4.05-3.68-6.44-7.7-7.27-3.12-.64-6.06-.07-8.63,1.92-1.82,1.41-3.03,3.25-3.74,5.44-.54,1.66-1.22,3.26-2.07,4.8-1.88,3.39-6.5,3.07-8.35.94-1.05-1.21-1.4-2.63-1.33-4.16.15-3.6,1.34-6.87,3.46-9.77,2.91-3.99,6.92-6.34,11.64-7.56,3.09-.79,6.23-.92,9.41-.74,3.02.18,5.99.64,8.78,1.84,5.6,2.41,9.09,6.67,10.46,12.54,1.24,5.29.21,10.24-2.68,14.84-2.09,3.33-4.75,6.11-7.75,8.62-4.15,3.47-8.43,6.8-12.42,10.45-2.02,1.85-3.93,3.82-5.47,6.11-.07.15-.15.29-.28.5h0Z"/>
    <path class="st5" d="M198.07,56.66v25.51c0,1.39-.13,2.75-.6,4.06-1.08,2.96-3.83,4.42-6.91,4.01-3.1-.41-5.12-2.64-5.52-5.86-.09-.74-.13-1.47-.13-2.21V31.19c0-1.39.12-2.75.61-4.06,1.02-2.73,3.6-4.32,6.8-3.95,2.98.34,5.21,2.36,5.65,6.06.09.79.1,1.57.1,2.36v25.06h0Z"/>
    <g class="st3">
      <text class="st1" transform="translate(428.47 90.31)"><tspan x="0" y="0">6</tspan></text>
    </g>
  </g>
</svg>