<svg width="171" height="30" viewBox="0 0 171 30" fill="none" xmlns="http://www.w3.org/2000/svg">
<path d="M46.3264 26.1585L37.0015 4.62188C36.886 4.41979 36.8572 4.24657 36.8572 3.98675C36.8572 3.29388 37.4923 2.62988 38.2429 2.62988C38.9358 2.62988 39.4266 3.09179 39.6575 3.66918L48.0297 23.7335L56.4307 3.61144C56.6616 3.12066 57.1524 2.62988 57.7875 2.62988C58.5381 2.62988 59.1444 3.26501 59.1444 3.95788C59.1444 4.15996 59.1155 4.33318 59.0289 4.5064L49.6463 26.1585C49.3288 26.8514 48.838 27.3133 48.0585 27.3133H47.9142C47.1058 27.2844 46.5862 26.8514 46.3264 26.1585Z"
fill="white" />
<path d="M63.879 4.01562C63.879 3.26501 64.5142 2.62988 65.2359 2.62988C65.9865 2.62988 66.6216 3.26501 66.6216 4.01562V25.7832C66.6216 26.5338 65.9865 27.1689 65.2359 27.1689C64.5142 27.1689 63.879 26.5338 63.879 25.7832V4.01562Z"
fill="white" />
<path d="M72.2223 24.1091C71.9047 23.907 71.7026 23.5317 71.7026 23.0698C71.7026 22.3192 72.28 21.7129 73.0306 21.7129C73.3771 21.7129 73.6946 21.8572 73.8678 22.0305C76.1485 23.9647 78.4292 24.8885 81.5183 24.8885C84.7805 24.8885 86.9168 23.1564 86.9168 20.7602V20.7313C86.9168 18.4795 85.7043 17.2093 80.6233 16.1411C75.0515 14.9286 72.511 13.1387 72.511 9.15468V9.09694C72.511 5.28618 75.8598 2.48584 80.4501 2.48584C83.6257 2.48584 85.9353 3.29418 88.1582 4.882C88.4469 5.08409 88.7356 5.45939 88.7356 5.97904C88.7356 6.70078 88.1582 7.30704 87.4076 7.30704C87.0901 7.30704 86.8591 7.2493 86.5993 7.07608C84.5495 5.60374 82.5864 4.96861 80.3346 4.96861C77.1878 4.96861 75.1958 6.70078 75.1958 8.86599V8.89486C75.1958 11.1755 76.4372 12.4458 81.7781 13.6006C87.1767 14.7842 89.6594 16.7473 89.6594 20.4426V20.5004C89.6594 24.6576 86.1951 27.3424 81.4028 27.3424C77.8518 27.3713 74.936 26.2454 72.2223 24.1091Z"
fill="white" />
<path d="M10.0502 10.0338C9.13307 10.951 7.66185 10.951 6.74473 10.0338C5.8276 9.11671 5.8276 7.64549 6.74473 6.72837C7.66185 5.81125 9.13307 5.81125 10.0502 6.72837C10.9673 7.64549 10.9673 9.13582 10.0502 10.0338Z"
fill="white" />
<path d="M19.9474 19.9305C20.8646 19.0134 22.3358 19.0134 23.2529 19.9305C24.17 20.8476 24.17 22.3189 23.2529 23.236C22.3358 24.1531 20.8646 24.1531 19.9474 23.236C19.0494 22.3189 19.0494 20.8476 19.9474 19.9305Z"
fill="white" />
<path d="M19.9474 6.74692C20.8646 5.8298 22.3358 5.8298 23.2529 6.74692C24.17 7.66405 24.17 9.13527 23.2529 10.0524C22.3358 10.9695 20.8646 10.9695 19.9474 10.0524C19.0494 9.13527 19.0494 7.64494 19.9474 6.74692Z"
fill="white" />
<path d="M6.76377 19.9305C7.68089 19.0134 9.15211 19.0134 10.0692 19.9305C10.9864 20.8476 10.9864 22.3189 10.0692 23.236C9.15211 24.1531 7.68089 24.1531 6.76377 23.236C5.84665 22.3189 5.84665 20.8476 6.76377 19.9305Z"
fill="white" />
<path d="M18.2852 17.1223C18.2279 17.1223 18.1896 17.1223 18.1323 17.1415C17.5973 17.1797 17.1006 16.8166 16.9286 16.6256C16.9286 16.6256 16.8713 16.5682 16.7948 16.4918C17.5209 15.632 17.5209 14.3519 16.7757 13.4921C16.8713 13.3965 16.9095 13.3392 16.9286 13.3392C17.1197 13.1481 17.6355 12.766 18.1132 12.8615H18.1323C18.1896 12.8615 18.2279 12.8806 18.2852 12.8806C18.9348 12.8806 19.4507 12.3648 19.4507 11.7151C19.4507 11.0655 18.9348 10.5496 18.2852 10.5496C17.6355 10.5496 17.1197 11.0655 17.1197 11.7151C17.1197 11.7533 17.1197 11.8107 17.1197 11.8489C17.177 12.3839 16.7948 12.8806 16.6038 13.0526C16.6038 13.0526 16.5465 13.1099 16.47 13.1864C15.5911 12.4603 14.3301 12.4794 13.4703 13.2055C13.3747 13.1099 13.3174 13.0526 13.3174 13.0526C13.1263 12.8615 12.7442 12.3457 12.8397 11.868V11.8489C12.8397 11.7916 12.8589 11.7533 12.8589 11.696C12.8589 11.0464 12.343 10.5305 11.6933 10.5305C11.0437 10.5305 10.5278 11.0464 10.5278 11.696C10.5278 12.3457 11.0437 12.8615 11.6933 12.8615C11.7507 12.8615 11.7889 12.8615 11.8271 12.8424C12.3621 12.8042 12.8589 13.1672 13.0308 13.3583C13.0308 13.3583 13.0881 13.4156 13.1837 13.5112C12.4767 14.371 12.4767 15.632 13.2028 16.4727C13.1072 16.5682 13.0499 16.6256 13.0499 16.6256C12.8589 16.8166 12.343 17.1797 11.8653 17.1032H11.8462C11.7889 17.1032 11.7507 17.0841 11.6933 17.0841C11.0437 17.0841 10.5278 17.6 10.5278 18.2496C10.5278 18.8993 11.0437 19.4152 11.6933 19.4152C12.343 19.4152 12.8589 18.8993 12.8589 18.2496C12.8589 18.1923 12.8589 18.1541 12.8589 18.1159C12.8015 17.5809 13.1837 17.0841 13.3747 16.9122C13.3747 16.9122 13.4321 16.8549 13.5276 16.7593C14.3874 17.4854 15.6675 17.4854 16.5273 16.7593C16.6229 16.8357 16.6611 16.8931 16.6802 16.9122C16.8713 17.1032 17.2343 17.6191 17.1579 18.0968V18.1159C17.1579 18.1732 17.1388 18.2114 17.1388 18.2688C17.1388 18.9184 17.6546 19.4343 18.3043 19.4343C18.9539 19.4343 19.4698 18.9184 19.4698 18.2688C19.4507 17.6382 18.9348 17.1223 18.2852 17.1223Z"
fill="white" />
<path d="M29.2715 13.3389C28.3544 12.4218 26.8832 12.4218 25.9661 13.3389C25.7368 13.5682 25.5648 13.8548 25.4502 14.1414C25.1636 14.6764 24.4375 14.7146 24.1891 14.7146C24.17 14.7146 24.17 14.7146 24.1509 14.7146C24.0936 14.3707 23.9408 14.0268 23.6542 13.7593C22.9663 13.0714 21.8581 13.0714 21.1894 13.7593C20.5015 14.4471 20.5015 15.5553 21.1894 16.224C21.8772 16.9119 22.9854 16.9119 23.6542 16.224C23.9408 15.9374 24.0936 15.5935 24.1509 15.2305C24.17 15.2305 24.1891 15.2305 24.2082 15.2305C24.4757 15.2305 25.2018 15.2878 25.4502 15.7846C25.5648 16.0903 25.7368 16.3769 25.9852 16.6253C26.9023 17.5424 28.3735 17.5424 29.2906 16.6253C30.1887 15.7273 30.1887 14.256 29.2715 13.3389ZM13.3556 0.69025C12.4385 1.60737 12.4385 3.07859 13.3556 3.99572C13.604 4.2441 13.8906 4.41607 14.1963 4.53071C14.7122 4.81731 14.7504 5.52426 14.7504 5.79175C14.7504 5.81086 14.7504 5.82996 14.7504 5.84907C14.3874 5.90639 14.0435 6.05925 13.776 6.34585C13.0881 7.03369 13.0881 8.14188 13.776 8.81062C14.4638 9.49846 15.572 9.49846 16.2407 8.81062C16.9286 8.12277 16.9286 7.01458 16.2407 6.34585C15.9732 6.07835 15.6293 5.90639 15.2663 5.84907C15.2663 5.81086 15.2663 5.79175 15.2663 5.77264C15.2663 5.48604 15.3427 4.70267 15.8968 4.49249C15.9541 4.47339 15.9923 4.45428 16.0306 4.41607C16.2598 4.30142 16.4509 4.16768 16.642 3.97661C17.5591 3.05949 17.5591 1.58827 16.642 0.671143C15.744 -0.226874 14.2727 -0.226874 13.3556 0.69025ZM15.8013 25.4526C15.2854 25.166 15.2472 24.4399 15.2663 24.1915C15.2663 24.1724 15.2663 24.1533 15.2663 24.1342C15.6293 24.0769 15.9732 23.9241 16.2407 23.6375C16.9286 22.9496 16.9286 21.8414 16.2407 21.1727C15.5529 20.4848 14.4447 20.4848 13.776 21.1727C13.0881 21.8605 13.0881 22.9687 13.776 23.6375C14.0435 23.9049 14.3874 24.0769 14.7504 24.1342C14.7504 24.1533 14.7504 24.1915 14.7504 24.2107C14.7504 24.4973 14.674 25.2806 14.1199 25.4908C14.0626 25.5099 14.0244 25.529 13.9861 25.5672C13.7569 25.6819 13.5658 25.8156 13.3747 26.0067C12.4576 26.9238 12.4576 28.395 13.3747 29.3122C14.2918 30.2293 15.7631 30.2293 16.6802 29.3122C17.5973 28.395 17.5973 26.9238 16.6802 26.0067C16.4127 25.7392 16.107 25.5672 15.8013 25.4526ZM6.32433 13.7402C6.03773 14.0268 5.88488 14.3707 5.82756 14.7337C5.80845 14.7337 5.78934 14.7337 5.77024 14.7337C5.50274 14.7337 4.77669 14.6764 4.5283 14.1796C4.41366 13.8739 4.2417 13.5873 3.99331 13.3389C3.07619 12.4218 1.60497 12.4218 0.687843 13.3389C-0.229281 14.256 -0.229281 15.7273 0.687843 16.6444C1.60497 17.5615 3.07619 17.5615 3.99331 16.6444C4.22259 16.4151 4.39455 16.1285 4.50919 15.8419C4.77669 15.3069 5.52185 15.2687 5.77024 15.2687C5.77024 15.2687 5.78934 15.2687 5.80845 15.2687C5.86577 15.6126 6.01862 15.9565 6.30523 16.224C6.99307 16.9119 8.10126 16.9119 8.76999 16.224C9.45784 15.5362 9.45784 14.428 8.76999 13.7593C8.12037 13.0714 7.01217 13.0714 6.32433 13.7402Z"
fill="white" />
<path d="M97.1215 24.4841L105.306 17.2522C109.03 13.961 110.33 12.0989 110.33 9.71709C110.33 6.90226 108.121 5.12675 105.479 5.12675C102.924 5.12675 101.235 6.33929 99.5032 8.63446C99.2867 8.89429 98.9403 9.11082 98.5072 9.11082C97.8143 9.11082 97.2514 8.54786 97.2514 7.85497C97.2514 7.59514 97.338 7.292 97.5112 7.11878C99.5033 4.34725 101.712 2.70166 105.653 2.70166C109.983 2.70166 113.101 5.6031 113.101 9.50056V9.58718C113.101 13.0949 111.239 15.2602 107.038 18.8978L100.629 24.5708H112.235C112.928 24.5708 113.491 25.1337 113.491 25.8266C113.491 26.5195 112.928 27.0391 112.235 27.0391H97.8144C97.0349 27.0391 96.4286 26.5195 96.4286 25.7833C96.4719 25.2203 96.6451 24.8306 97.1215 24.4841Z"
fill="white" />
<path d="M116.306 15.0867V15.0001C116.306 8.28781 120.333 2.57153 126.482 2.57153C132.675 2.57153 136.572 8.2012 136.572 14.9135V15.0001C136.572 21.7124 132.588 27.4287 126.439 27.4287C120.246 27.4287 116.306 21.799 116.306 15.0867ZM133.758 15.0867V15.0001C133.758 9.76019 130.856 5.03993 126.439 5.03993C121.935 5.03993 119.12 9.63027 119.12 14.9135V15.0001C119.12 20.24 122.022 24.9603 126.482 24.9603C130.986 24.9603 133.758 20.3266 133.758 15.0867Z"
fill="white" />
<path d="M143.371 5.5598L139.994 6.64243C139.777 6.72904 139.56 6.72904 139.431 6.72904C138.824 6.72904 138.261 6.20938 138.261 5.5598C138.261 4.99683 138.651 4.60709 139.214 4.39056L143.155 3.0048C143.718 2.83158 144.194 2.70166 144.627 2.70166H144.714C145.493 2.70166 146.056 3.30793 146.056 4.04412V25.7833C146.056 26.5195 145.493 27.1691 144.714 27.1691C143.978 27.1691 143.371 26.5628 143.371 25.7833V5.5598Z"
fill="white" />
<path d="M153.375 25.0036C152.985 24.7438 152.768 24.3973 152.768 23.921C152.768 23.1848 153.331 22.6218 154.068 22.6218C154.371 22.6218 154.631 22.7084 154.934 22.8816C156.623 24.2674 158.268 24.917 160.13 24.917C164.461 24.917 167.362 20.5432 167.276 14.3938C165.977 16.4725 163.811 18.248 160.477 18.248C155.54 18.248 152.119 15.13 152.119 10.7995V10.7129C152.119 6.16586 155.67 2.57153 160.78 2.57153C163.508 2.57153 165.543 3.48094 167.102 5.03993C168.921 6.85874 170.091 9.54366 170.091 14.3505V14.4371C170.091 22.0588 166.063 27.4287 160.13 27.4287C157.316 27.4287 155.194 26.3893 153.375 25.0036ZM166.713 10.4964V10.4098C166.713 7.3784 164.201 4.95331 160.607 4.95331C157.012 4.95331 154.847 7.59492 154.847 10.583V10.6696C154.847 13.701 157.229 15.9095 160.737 15.9095C164.418 15.9528 166.713 13.2679 166.713 10.4964Z"
fill="white" />
</svg>