<?xml version="1.0" encoding="utf-8"?>
<!-- Generator: Adobe Illustrator 24.0.1, SVG Export Plug-In . SVG Version: 6.00 Build 0)  -->
<svg version="1.1" id="Layer_1" xmlns="http://www.w3.org/2000/svg" xmlns:xlink="http://www.w3.org/1999/xlink" x="0px" y="0px"
	 viewBox="0 0 2471.1 841.8" style="enable-background:new 0 0 2471.1 841.8;" xml:space="preserve">
<style type="text/css">
	.st0{fill:#1C54A8;}
	.st1{fill:#385438;}
	.st2{fill:#C47000;}
	.st3{fill:#8C3800;}
	.st4{fill:#FBCF0C;}
	.st5{fill:#E0C48C;}
	.st6{fill:#E0E0E0;}
	.st7{fill:#A85400;}
	.st8{fill:#701C00;}
	.st9{fill:#38381D;}
	.st10{fill:#C48C1C;}
	.st11{fill:#708CA8;}
	.st12{fill:none;}
	.st13{enable-background:new    ;}
	.st14{fill:#E0A81C;}
</style>
<title>vis2023_logo1</title>
<g id="Canvas_1">
	<g id="Canvas_1_Layer_1">
		<g id="Group_2">
			<g id="Graphic_68">
				<path class="st0" d="M109.6,278h-0.8c-4.9,0-18.8-1-23.2-10.4c-2-6.1-5.6-11.5-10.4-15.8c-17.2-17.3-45.1-17.4-62.4-0.2
					s-17.4,45.1-0.2,62.4s45.1,17.4,62.4,0.2c4.4-4.4,7.9-9.7,10.1-15.5c4.9-9.9,19.2-10.9,24.2-10.9h0.3
					C109.1,284.6,109.1,281.3,109.6,278"/>
			</g>
			<g id="Graphic_65">
				<path class="st1" d="M298.3,480.3c-9.4-5.4-10.4-18.8-10.4-23.7v-0.9c-3.5,0.5-7,0.5-10.4-0.1v1.4c0,5.4-1.5,20.2-11.8,24.2
					c-0.9,0.4-1.7,0.9-2.5,1.5c-4.2,2.2-8,5-11.3,8.4c-17.2,17.2-17.2,45,0,62.2s45,17.2,62.2,0c17.2-17.2,17.2-45,0-62.2l0,0
					C309.9,486.2,304.4,482.4,298.3,480.3"/>
			</g>
			<g id="Graphic_62">
				<path class="st2" d="M552.9,251.9c-17.1-17.2-44.9-17.2-62.1-0.1c-4.4,4.4-7.8,9.6-10,15.4c-5.4,9.9-19.2,10.9-24.2,10.9h-0.2
					c0.5,3.3,0.5,6.6,0,9.9h0.8c4.9,0,18.8,1,23.2,10.4c2,6.1,5.6,11.5,10.4,15.8c17,17.2,44.7,17.3,61.9,0.3
					c0.1-0.1,0.2-0.2,0.3-0.3C569.7,296.8,569.7,269.3,552.9,251.9"/>
			</g>
			<g id="Graphic_59">
				<path class="st3" d="M252.4,13c-17.2,17-17.3,44.7-0.3,61.9c0.1,0.1,0.2,0.2,0.3,0.3c4.9,4.9,10.4,7.9,15.8,10.4
					c9.4,5.4,10.4,18.8,10.4,23.7v0.7c3.5-0.5,7-0.5,10.4,0.1v-1.3c0-5.4,1.5-20.2,11.8-24.2c0.9-0.4,1.7-0.9,2.5-1.5
					c4.2-2.2,8-5,11.3-8.4c17.2-17,17.3-44.7,0.3-61.9c-0.1-0.1-0.2-0.2-0.3-0.3C297.3-4.3,269.2-4.3,252.4,13"/>
			</g>
			<g id="Graphic_56">
				<path class="st4" d="M189.7,189.7c-17.2,17.2-45,17.2-62.2,0s-17.2-45,0-62.2s45-17.2,62.2,0l0,0
					C207,144.3,207,172.4,189.7,189.7"/>
			</g>
			<g id="Graphic_53">
				<path class="st0" d="M376.7,376.2c17.2-17.2,45-17.2,62.2,0s17.2,45,0,62.2s-45,17.2-62.2,0l0,0c-17.2-17-17.3-44.7-0.3-61.9
					C376.5,376.4,376.6,376.3,376.7,376.2"/>
			</g>
			<g id="Graphic_50">
				<path class="st5" d="M376.7,127c17.2-17.2,45-17.2,62.2,0s17.2,45,0,62.2s-45,17.2-62.2,0l0,0
					C359.5,172.4,359.5,144.3,376.7,127"/>
			</g>
			<g id="Graphic_47">
				<path class="st3" d="M127.5,376.2c17.2-17.2,45-17.2,62.2,0s17.2,45,0,62.2s-45,17.2-62.2,0l0,0c-17.2-17-17.3-44.7-0.3-61.9
					C127.3,376.4,127.4,376.3,127.5,376.2"/>
			</g>
			<g id="Graphic_44">
				<path class="st6" d="M166.6,306.6c-13.1,13.1-34.3,13.1-47.4,0s-13.1-34.3,0-47.4s34.3-13.1,47.4,0l0,0
					C179.8,272,179.8,293.5,166.6,306.6"/>
			</g>
			<g id="Graphic_41">
				<path class="st7" d="M307.4,167.1c-13.1,13.1-34.5,13.1-47.6,0s-13.1-34.5,0-47.6s34.5-13.1,47.6,0l0,0
					c13.1,13.1,13.2,34.3,0.1,47.5L307.4,167.1"/>
			</g>
			<g id="Graphic_38">
				<path class="st1" d="M447.1,306.8c-13.1,13.1-34.5,13.1-47.6,0s-13.1-34.5,0-47.6s34.5-13.1,47.6,0l0,0
					C460.3,272,460.3,293.5,447.1,306.8"/>
			</g>
			<g id="Graphic_35">
				<path class="st5" d="M306.9,446.2c-13.1,13.1-34.5,13.1-47.6,0s-13.1-34.5,0-47.6s34.5-13.1,47.6,0l0,0
					c13.1,13.1,13.2,34.3,0.1,47.5L306.9,446.2"/>
			</g>
			<g id="Graphic_32">
				<path class="st8" d="M252.4,244.5c-3.1-3.1-9.2-11.2-9.5-19.5c-2.4,8-9,14-17.2,15.6c9.6,0,18,6.2,20.8,9.4l2.7,2.7
					c0.9-1.1,1.8-2.1,2.8-3.1c0.9-0.9,1.9-1.8,2.8-2.6C253.9,246.3,253.1,245.5,252.4,244.5"/>
			</g>
			<g id="Graphic_29">
				<path class="st6" d="M323.9,222.2c0.7,10.2-6,19.3-9.4,22.2l-2.3,2.3c1,0.9,2,1.7,3,2.7s2,2.1,2.9,3.3l1.9-1.9
					c3.5-3.5,13.3-10.9,22.7-9.4h2.6C334.5,241,325.5,232.9,323.9,222.2"/>
			</g>
			<g id="Graphic_26">
				<path class="st1" d="M323.6,338.9c2.4-8.3,9.2-14.5,17.7-16c-10,0.5-18.9-6.5-21.8-9.9l-2.2-2.2c-0.7,0.8-1.4,1.6-2.1,2.3
					c-1,1-2.1,2-3.2,2.9c0.6,1,1.3,2,2.1,2.9C317.2,322.1,323.5,330.4,323.6,338.9"/>
			</g>
			<g id="Graphic_23">
				<path class="st3" d="M251.9,313.2c-1.1-1.1-2.2-2.3-3.2-3.4l-2.3,2.3c-3.3,3.3-12.3,10-21.3,9.4c9.3,2.1,16.2,9.9,17.3,19.4
					c-0.8-10.2,6-19.5,9.4-22.4l2.8-2.8C253.7,314.9,252.8,314.1,251.9,313.2"/>
			</g>
			<g id="Graphic_20">
				<path class="st8" d="M243.7,218.5c0,12.4-10.1,22.5-22.5,22.5s-22.5-10.1-22.5-22.5s10.1-22.5,22.5-22.5l0,0
					C233.6,196.1,243.7,206.1,243.7,218.5"/>
			</g>
			<g id="Graphic_17">
				<path class="st6" d="M368.6,219c0,12.5-10.1,22.6-22.6,22.6s-22.6-10.1-22.6-22.6s10.1-22.6,22.6-22.6S368.6,206.5,368.6,219
					L368.6,219"/>
			</g>
			<g id="Graphic_14">
				<path class="st9" d="M367.7,345.2c0,12.5-10.1,22.6-22.6,22.6s-22.6-10.1-22.6-22.6s10.1-22.6,22.6-22.6
					S367.7,332.7,367.7,345.2L367.7,345.2"/>
			</g>
			<g id="Graphic_11">
				<path class="st10" d="M242.8,343.6c0,12.5-10.1,22.6-22.6,22.6s-22.6-10.1-22.6-22.6s10.1-22.6,22.6-22.6l0,0
					C232.7,321,242.8,331.1,242.8,343.6L242.8,343.6"/>
			</g>
			<g id="Graphic_8">
				<path class="st11" d="M251.7,249.2c17.2-17.6,45.4-17.8,63-0.6c0.2,0.2,0.4,0.4,0.6,0.6c17.7,17.6,17.7,46.3,0.1,63.9
					c0,0,0,0-0.1,0.1c-17.2,17.6-45.4,17.8-63,0.6c-0.2-0.2-0.4-0.4-0.6-0.6C234,295.9,234,266.9,251.7,249.2"/>
			</g>
		</g>
	</g>
</g>
<rect x="2231.1" y="77.5" class="st12" width="23" height="1"/>
<g class="st13">
	<path class="st9" d="M748.1,443.7L636.5,166.2c-1.3-2.3-2-4.9-2-7.8c0-5.9,2-10.9,6.1-15.1c4.1-4.2,9.2-6.3,15.4-6.3
		c10.7,0,17.4,4.6,20,13.7l105.3,269.1l105.3-269.1c3.9-9.1,10.6-13.7,20-13.7c5.9,0,10.9,2.1,15.1,6.3c4.2,4.2,6.3,9.3,6.3,15.1
		c0,2.3-0.7,4.9-2,7.8L814.5,443.7c-5.9,15-16.9,22.4-33.2,22.4C765.4,466.1,754.3,458.6,748.1,443.7z"/>
	<path class="st9" d="M979.7,446.1V157c0-5.5,2-10.2,5.9-14.1c3.9-3.9,8.8-5.9,14.6-5.9c5.5,0,10.2,2,14.1,5.9
		c3.9,3.9,5.9,8.6,5.9,14.1v289.1c0,5.2-2,9.8-5.9,13.9c-3.9,4.1-8.6,6.1-14.1,6.1c-5.9,0-10.7-2-14.6-5.9
		C981.7,456.3,979.7,451.6,979.7,446.1z"/>
</g>
<g class="st13">
	<path class="st9" d="M1082.1,415.4c0-5.5,1.9-10.2,5.6-14.1c3.7-3.9,8.4-5.9,13.9-5.9c5.2,0,9.3,1.5,12.2,4.4
		c26,22.8,55.7,34.1,89.2,34.1c25,0,44-5.4,57-16.1c13-10.7,19.5-24,19.5-40c0-12-3.7-21.8-11.2-29.3c-6.5-7.1-14.8-12.8-24.9-17.1
		c-10.1-4.2-25.5-9.3-46.3-15.1c-25.7-6.8-45-12.8-58-18c-34.8-14.3-52.2-39-52.2-74.1c0-26.3,10.7-47.9,32.2-64.8
		c21.5-16.9,48.9-25.4,82.4-25.4c38.3,0,71.8,11.2,100.4,33.6c5.5,3.6,8.3,8.8,8.3,15.6c0,5.2-1.9,9.8-5.6,13.7
		c-3.7,3.9-8.2,5.9-13.4,5.9c-4.6,0-8.5-1.5-11.7-4.4c-22.8-18.8-49.7-28.3-80.9-28.3c-20.8,0-37.6,4.8-50.5,14.4
		c-12.8,9.6-19.3,22-19.3,37.3c0,10.1,3.4,18.5,10.2,25.4c6.5,6.2,14.5,11.1,23.9,14.6c9.4,3.6,24.4,8.1,44.9,13.7
		c21.8,5.9,41.3,12.4,58.5,19.5c36.7,14.6,55.1,41.1,55.1,79.5c0,27.3-10.1,50.1-30.2,68.3c-20.2,18.2-50.1,27.3-89.7,27.3
		c-45.2,0-82.6-13.2-112.1-39.5C1084.5,426,1082.1,420.9,1082.1,415.4z"/>
</g>
<g class="st13">
	<path class="st14" d="M1420.5,442.4c0-6.9,3-12.8,8.9-17.8c41.1-32.2,74.6-59.7,100.6-82.4c50.3-44.1,75.5-82.5,75.5-115.4
		c0-19.1-6.5-33.9-19.5-44.4c-13-10.5-29.3-15.8-49.1-15.8c-30.9,0-57.1,10.2-78.4,30.6c-4.6,3-8.7,4.4-12.3,4.4
		c-5.3,0-9.6-1.8-13.1-5.4c-3.5-3.6-5.2-8.1-5.2-13.3c0-5.9,2.1-10.5,6.4-13.8c27-26,61.2-39,102.6-39c30.2,0,56.2,8.6,77.9,25.9
		c21.7,17.3,32.6,40.9,32.6,70.8c0,21.7-6.6,43.1-19.7,64.1c-12.5,20.1-29.6,40.4-51.3,61.2c-21.7,20.7-51.3,45.9-88.8,75.5h145
		c4.9,0,9.2,1.8,12.8,5.4c3.6,3.6,5.4,7.9,5.4,12.8c0,4.9-1.8,9.2-5.4,12.8c-3.6,3.6-7.9,5.4-12.8,5.4h-190.4
		c-5.6,0-10.6-2.1-15-6.4C1422.7,453.5,1420.5,448.4,1420.5,442.4z"/>
	<path class="st14" d="M1818.5,130.2c20.4-0.3,38.9,4.4,55.5,14.1c16.6,9.7,29.9,22.7,40,39c10,16.3,17.6,34.4,22.7,54.5
		c5.1,20.1,7.6,40.8,7.6,62.1c0.3,29.3-3.9,56.6-12.8,81.9c-8.9,25.3-23.2,46.4-42.9,63.4c-19.7,16.9-43.1,25.2-70,24.9
		c-20.7,0.3-39.3-4.4-55.7-14.1c-16.4-9.7-29.7-22.8-39.7-39.2c-10-16.4-17.6-34.7-22.7-54.7c-5.1-20.1-7.6-40.8-7.6-62.1
		c0-21.7,2.5-42.5,7.6-62.4c5.1-19.9,12.6-38,22.4-54.3c9.9-16.3,23.1-29.3,39.7-39C1779.1,134.6,1797.8,129.9,1818.5,130.2z
		 M1818.5,166.7c-29.3,0-50.5,13-63.6,39c-13.5,26-20.2,57.4-20.2,94.2c0,37.2,6.7,68.9,20.2,95.2c13.5,25.6,34.7,38.5,63.6,38.5
		c28.9,0,50.1-12.8,63.6-38.5c13.5-26.3,20.2-58,20.2-95.2c0-36.8-6.7-68.2-20.2-94.2C1869,179.7,1847.8,166.7,1818.5,166.7z"/>
	<path class="st14" d="M1971.9,442.4c0-6.9,3-12.8,8.9-17.8c41.1-32.2,74.6-59.7,100.6-82.4c50.3-44.1,75.5-82.5,75.5-115.4
		c0-19.1-6.5-33.9-19.5-44.4c-13-10.5-29.3-15.8-49.1-15.8c-30.9,0-57.1,10.2-78.4,30.6c-4.6,3-8.7,4.4-12.3,4.4
		c-5.3,0-9.6-1.8-13.1-5.4c-3.5-3.6-5.2-8.1-5.2-13.3c0-5.9,2.1-10.5,6.4-13.8c27-26,61.2-39,102.6-39c30.2,0,56.2,8.6,77.9,25.9
		c21.7,17.3,32.6,40.9,32.6,70.8c0,21.7-6.6,43.1-19.7,64.1c-12.5,20.1-29.6,40.4-51.3,61.2s-51.3,45.9-88.8,75.5h145
		c4.9,0,9.2,1.8,12.8,5.4c3.6,3.6,5.4,7.9,5.4,12.8c0,4.9-1.8,9.2-5.4,12.8c-3.6,3.6-7.9,5.4-12.8,5.4h-190.4
		c-5.6,0-10.6-2.1-15-6.4C1974.1,453.5,1971.9,448.4,1971.9,442.4z"/>
	<path class="st14" d="M2243.7,428.6c-3.9-3.9-5.9-8.5-5.9-13.8c0-5.3,1.8-9.6,5.4-13.1c3.6-3.5,8.1-5.2,13.3-5.2
		c4.6,0,8.5,1.5,11.8,4.4c22.7,21.7,49.6,32.6,80.9,32.6c24,0,42.8-5.5,56.5-16.5c13.6-11,20.5-26.1,20.5-45.1
		c0-19.4-7.2-33.9-21.5-43.7c-14.3-9.7-34.4-14.6-60.4-14.6h-17.8c-4.9,0-9.2-1.7-12.8-5.2c-3.6-3.5-5.4-7.8-5.4-13.1
		c0-4.9,1.8-9.2,5.4-12.8c3.6-3.6,7.9-5.4,12.8-5.4h17.8c23,0,41.5-4.7,55.5-14.1c14-9.4,21-22.8,21-40.2c0-17.1-6.9-30.7-20.7-40.9
		c-13.8-10.2-31.4-15.3-52.8-15.3c-28.6,0-53.9,10-76,30.1c-3.6,2.6-7.4,3.9-11.3,3.9c-4.9,0-9.1-1.7-12.6-5.2
		c-3.5-3.5-5.2-7.6-5.2-12.6c0-4.6,2.1-9,6.4-13.3c28.3-26.3,62.1-39.5,101.6-39.5c32.6,0,59.2,7.9,79.9,23.7
		c21,15.1,31.6,36.5,31.6,64.1c0,21.4-7.2,38.8-21.7,52.3c-14.1,12.5-30.6,20.6-49.3,24.2c18.7,1.6,36.1,9.8,52,24.4
		c15.9,14.6,23.9,33.5,23.9,56.5c0,28-10.6,50.7-31.8,68.3c-21.2,17.6-49.4,26.4-84.6,26.4C2305.8,470.1,2270.3,456.2,2243.7,428.6z
		"/>
</g>
<text transform="matrix(1 0 0 1 1799 -432.5039)" style="display:none;enable-background:new    ; font-family:'MyriadCAD'; font-size:12px;">Lorem ipsum</text>
</svg>
