<?xml version="1.0" encoding="UTF-8" standalone="no"?>
<svg
   xmlns:dc="http://purl.org/dc/elements/1.1/"
   xmlns:cc="http://creativecommons.org/ns#"
   xmlns:rdf="http://www.w3.org/1999/02/22-rdf-syntax-ns#"
   xmlns:svg="http://www.w3.org/2000/svg"
   xmlns="http://www.w3.org/2000/svg"
   viewBox="0 0 755.14667 181.21333"
   height="181.21333"
   width="755.14667"
   xml:space="preserve"
   id="svg2"
   version="1.1"><metadata
     id="metadata8"><rdf:RDF><cc:Work
         rdf:about=""><dc:format>image/svg+xml</dc:format><dc:type
           rdf:resource="http://purl.org/dc/dcmitype/StillImage" /></cc:Work></rdf:RDF></metadata><defs
     id="defs6" /><g
     transform="matrix(1.3333333,0,0,-1.3333333,0,181.21333)"
     id="g10"><g
       transform="scale(0.1)"
       id="g12"><path
         id="path14"
         style="fill:#ffffff;fill-opacity:1;fill-rule:nonzero;stroke:none"
         d="m 1795.7,275.059 -304.36,703.472 c -3.56,7.11 -4.74,11.844 -4.74,20.137 0,22.502 20.13,43.812 45,43.812 22.51,0 37.9,-14.21 46.19,-34.34 l 273.58,-654.921 274.75,657.291 c 8.29,15.39 23.69,31.97 43.82,31.97 24.87,0 43.82,-20.13 43.82,-42.632 0,-7.106 -1.18,-11.84 -3.55,-17.762 L 1904.66,275.059 C 1894,252.551 1878.6,238.34 1852.55,238.34 h -4.74 c -26.05,0 -42.63,14.211 -52.11,36.719" /><path
         id="path16"
         style="fill:#ffffff;fill-opacity:1;fill-rule:nonzero;stroke:none"
         d="m 2370.09,997.48 c 0,24.87 20.13,45 43.82,45 24.87,0 45,-20.13 45,-45 V 285.711 c 0,-24.871 -20.13,-45 -45,-45 -23.69,0 -43.82,20.129 -43.82,45 V 997.48" /><path
         id="path18"
         style="fill:#ffffff;fill-opacity:1;fill-rule:nonzero;stroke:none"
         d="m 2642.48,341.379 c -10.66,7.109 -16.58,18.941 -16.58,34.344 0,24.875 18.95,43.82 42.64,43.82 11.84,0 21.31,-4.738 27.24,-10.664 74.61,-62.77 149.22,-93.559 249.88,-93.559 106.59,0 176.46,56.848 176.46,135.012 v 2.371 c 0,73.422 -39.08,114.875 -204.88,150.402 -181.2,39.083 -265.29,98.301 -265.29,228.575 v 2.367 c 0,124.351 108.96,215.543 259.36,215.543 104.22,0 180.02,-26.05 252.27,-78.164 9.47,-7.106 18.94,-18.949 18.94,-35.528 0,-23.687 -18.94,-42.636 -42.63,-42.636 -10.66,0 -17.77,2.367 -26.06,8.293 -66.32,48.55 -131.45,68.687 -204.88,68.687 -103.04,0 -168.17,-56.847 -168.17,-127.902 v -2.367 c 0,-74.618 40.27,-116.067 214.36,-153.961 176.46,-37.899 256.99,-103.035 256.99,-223.832 v -2.375 c 0,-135.016 -112.51,-223.825 -270.02,-223.825 -116.06,0 -211.99,35.52 -299.63,105.399" /><path
         id="path20"
         style="fill:#ffffff;fill-opacity:1;fill-rule:nonzero;stroke:none"
         d="m 455.07,903.922 c -41.453,-41.449 -107.773,-41.449 -149.226,0 -41.449,41.449 -41.449,107.778 0,149.218 41.453,41.45 107.773,41.45 149.226,0 41.45,-40.26 41.45,-107.769 0,-149.218" /><path
         id="path22"
         style="fill:#ffffff;fill-opacity:1;fill-rule:nonzero;stroke:none"
         d="m 903.922,456.25 c 41.449,41.453 107.768,41.453 149.218,0 41.45,-41.445 41.45,-107.762 0,-149.219 -41.45,-41.453 -107.769,-41.453 -149.218,0 -41.449,41.457 -41.449,107.774 0,149.219" /><path
         id="path24"
         style="fill:#ffffff;fill-opacity:1;fill-rule:nonzero;stroke:none"
         d="m 903.922,1054.32 c 41.449,41.46 107.768,41.46 149.218,0 41.45,-41.44 41.45,-107.761 0,-149.215 -41.45,-41.449 -107.769,-41.449 -149.218,0 -41.449,40.266 -41.449,107.775 0,149.215" /><path
         id="path26"
         style="fill:#ffffff;fill-opacity:1;fill-rule:nonzero;stroke:none"
         d="m 305.844,456.25 c 41.453,41.453 107.773,41.453 149.226,0 41.45,-41.445 41.45,-107.762 0,-149.219 -41.453,-41.453 -107.773,-41.453 -149.226,0 -41.449,41.457 -41.449,107.774 0,149.219" /><path
         id="path28"
         style="fill:#ffffff;fill-opacity:1;fill-rule:nonzero;stroke:none"
         d="m 828.125,584.16 c -2.367,0 -4.734,0 -7.105,0 -24.872,-2.375 -47.372,15.391 -54.477,23.684 0,0 -2.367,2.371 -5.922,5.926 33.16,39.082 33.16,95.925 0,136.191 3.555,3.555 5.922,5.922 7.106,7.105 8.289,8.289 31.976,26.055 54.476,22.504 0,0 0,0 1.188,0 2.367,0 4.734,0 7.101,0 29.61,0 53.297,23.688 53.297,53.289 0,29.614 -23.687,53.297 -53.297,53.297 -29.609,0 -53.289,-23.683 -53.289,-53.297 0,-2.367 0,-4.734 0,-5.918 v 0 c 2.367,-24.871 -14.215,-47.371 -22.508,-54.476 0,0 -2.367,-2.371 -5.922,-5.922 -39.082,33.16 -97.109,31.977 -136.191,-1.188 -4.734,3.555 -7.109,7.11 -7.109,7.11 -8.285,8.289 -26.055,31.973 -22.5,54.476 0,0 0,0 0,1.184 0,2.367 0,4.734 0,7.105 0,29.61 -23.688,53.293 -52.11,53.293 -29.609,0 -53.293,-23.683 -53.293,-53.293 0,-29.605 23.684,-53.292 53.293,-53.292 2.371,0 4.739,0 5.922,0 v 0 c 24.871,2.367 47.375,-14.215 54.481,-22.504 0,0 2.367,-2.368 7.101,-7.106 -31.976,-39.082 -31.976,-95.922 0,-135.004 -4.734,-4.746 -7.101,-7.109 -7.101,-7.109 -8.293,-8.289 -31.981,-26.055 -54.481,-22.5 0,0 0,0 -1.183,0 -2.368,0 -4.739,0 -7.106,0 -29.609,0 -53.297,-23.692 -53.297,-53.301 0,-29.601 23.688,-52.109 53.297,-52.109 29.609,0 53.297,23.691 53.297,52.109 0,2.371 0,4.734 0,5.93 v 0 c -2.375,24.859 14.207,47.371 22.5,54.469 0,0 2.367,2.375 7.105,7.113 39.082,-33.164 97.114,-33.164 136.196,0 3.554,-5.918 5.922,-8.293 5.922,-8.293 8.285,-8.289 26.054,-31.973 22.5,-54.473 0,0 0,0 0,-1.191 0,-2.364 0,-4.739 0,-7.102 0,-29.605 23.687,-52.105 53.297,-52.105 29.605,0 53.289,23.679 53.289,52.105 -1.18,29.602 -24.868,53.293 -54.477,53.293" /><path
         id="path30"
         style="fill:#ffffff;fill-opacity:1;fill-rule:nonzero;stroke:none"
         d="m 285.715,736.934 c -13.027,-13.028 -20.133,-28.422 -22.5,-45.004 -1.188,0 -1.188,0 -2.371,0 -11.844,0 -45.004,2.367 -55.664,24.871 -4.735,14.211 -13.028,27.238 -24.867,37.894 -41.454,41.453 -107.7739,41.453 -149.2232,0 -41.4492,-41.449 -41.4492,-107.769 0,-149.218 41.4493,-41.454 107.7692,-41.454 149.2232,0 10.656,10.656 18.945,23.683 23.679,36.711 11.848,23.691 46.196,26.054 58.035,26.054 h 1.188 c 2.367,-15.39 9.473,-30.793 22.5,-43.816 30.789,-30.793 81.719,-30.793 112.508,0 30.793,30.789 30.793,80.531 0,112.508 -30.789,30.789 -81.719,30.789 -112.508,0 z M 715.613,206.371 c -22.5,13.02 -24.867,45 -24.867,56.84 0,1.18 0,1.18 0,2.367 16.578,2.371 31.973,9.481 43.82,22.512 30.789,30.789 30.789,81.707 0,112.508 -30.793,30.789 -81.718,30.789 -112.511,0 -30.789,-30.801 -30.789,-81.719 0,-112.508 11.847,-11.852 28.425,-20.141 43.82,-22.512 0,-1.187 0,-2.367 0,-3.547 0,-13.031 -3.551,-48.562 -28.426,-58.043 -2.367,-1.179 -4.734,-2.359 -5.922,-3.547 -9.472,-4.742 -18.945,-11.839 -27.234,-20.132 -41.449,-41.45 -41.449,-107.7699 0,-149.2309 41.449,-41.4375 107.773,-41.4375 149.223,0 41.449,41.461 41.449,107.7809 0,149.2309 -10.661,13.031 -23.688,21.32 -37.903,26.062 z M 605.473,1327.9 c -41.45,-41.45 -41.45,-107.77 0,-149.22 11.847,-11.84 24.875,-18.95 37.902,-24.87 22.5,-13.03 24.867,-45.01 24.867,-56.85 0,-1.18 0,-1.18 0,-2.37 -16.578,-2.36 -31.972,-9.47 -43.816,-22.5 -30.793,-30.79 -30.793,-80.531 0,-112.504 30.789,-30.793 81.719,-30.793 112.508,0 30.793,30.789 30.793,81.714 0,112.504 -11.84,11.84 -28.422,20.14 -43.821,22.5 0,1.19 0,2.37 0,3.56 0,13.03 3.551,48.55 28.426,58.03 2.367,1.18 4.734,2.37 5.922,3.55 9.473,4.74 18.945,11.84 27.234,20.13 41.453,41.45 41.453,107.78 0,149.23 -41.449,40.27 -108.953,40.27 -149.222,-1.19 z M 1326.72,754.695 c -41.45,41.453 -107.77,41.453 -149.22,0 -10.66,-10.656 -18.95,-23.683 -23.69,-36.711 -13.03,-23.687 -46.19,-26.054 -58.03,-26.054 h -1.19 c -2.36,15.394 -9.47,30.793 -22.5,43.824 -30.79,30.789 -81.715,30.789 -112.504,0 -30.797,-30.797 -30.797,-81.723 0,-112.512 30.789,-30.793 81.714,-30.793 112.504,0 13.03,13.028 20.14,28.418 22.5,45 1.19,0 1.19,0 2.37,0 11.84,0 45.01,-2.363 55.67,-24.863 4.73,-14.219 13.02,-27.246 24.87,-37.902 41.45,-41.454 107.77,-41.454 149.22,0 40.26,41.449 40.26,107.769 0,149.218" /><path
         id="path32"
         style="fill:#ffffff;fill-opacity:1;fill-rule:nonzero;stroke:none"
         d="m 3443.07,331.898 248.7,236.864 c 112.51,107.769 151.59,168.172 151.59,247.523 0,92.371 -67.5,150.403 -146.85,150.403 -76.97,0 -129.08,-40.266 -181.19,-114.875 -5.93,-9.473 -16.58,-15.395 -29.61,-15.395 -21.32,0 -37.9,17.762 -37.9,40.266 0,9.472 3.55,17.765 8.29,24.871 60.4,91.187 126.72,144.485 246.34,144.485 131.45,0 225.02,-94.747 225.02,-222.649 v -2.371 c 0,-114.879 -55.67,-185.93 -183.58,-305.551 L 3549.66,328.352 h 352.92 c 21.32,0 37.9,-17.762 37.9,-40.262 0,-22.512 -17.77,-40.281 -37.9,-40.281 h -438.19 c -23.69,0 -41.46,16.582 -41.46,41.461 1.2,18.941 7.11,30.789 20.14,42.628" /><path
         id="path34"
         style="fill:#ffffff;fill-opacity:1;fill-rule:nonzero;stroke:none"
         d="m 4594.21,641.008 v 2.371 c 0,171.719 -87.63,325.68 -222.64,325.68 -136.2,0 -221.47,-150.407 -221.47,-324.5 v -2.371 c 0,-171.719 87.64,-325.688 223.83,-325.688 136.2,0 220.28,151.598 220.28,324.508 z m -529.38,0 v 2.371 c 0,220.277 121.98,407.401 309.1,407.401 187.13,0 305.56,-184.757 305.56,-405.038 v -2.363 c 0,-220.281 -120.8,-407.399 -307.92,-407.399 -188.31,0 -306.74,184.743 -306.74,405.028" /><path
         id="path36"
         style="fill:#ffffff;fill-opacity:1;fill-rule:nonzero;stroke:none"
         d="m 4799.1,331.898 248.71,236.864 c 112.51,107.769 151.59,168.172 151.59,247.523 0,92.371 -67.51,150.403 -146.86,150.403 -76.98,0 -129.09,-40.266 -181.2,-114.875 -5.91,-9.473 -16.58,-15.395 -29.61,-15.395 -21.31,0 -37.9,17.762 -37.9,40.266 0,9.472 3.56,17.765 8.29,24.871 60.4,91.187 126.73,144.485 246.34,144.485 131.46,0 225.02,-94.747 225.02,-222.649 v -2.371 c 0,-114.879 -55.66,-185.93 -183.56,-305.551 L 4905.69,328.352 h 352.92 c 21.32,0 37.9,-17.762 37.9,-40.262 0,-22.512 -17.76,-40.281 -37.9,-40.281 h -438.19 c -23.69,0 -41.45,16.582 -41.45,41.461 0,18.941 5.92,30.789 20.13,42.628" /><path
         id="path38"
         style="fill:#ffffff;fill-opacity:1;fill-rule:nonzero;stroke:none"
         d="m 5580.98,951.965 -104,-35.633 c -6.66,-2.855 -13.33,-2.855 -17.34,-2.855 -18.65,0 -35.98,17.109 -35.98,38.488 0,18.527 11.99,31.355 29.32,38.484 l 121.33,45.611 c 17.34,5.7 32,9.98 45.33,9.98 h 2.67 c 24,0 41.34,-19.95 41.34,-44.19 l -0.01,-715.53 c 0,-24.23 -17.33,-45.609 -41.33,-45.609 -22.68,0 -41.33,19.949 -41.33,45.609 v 665.645" /></g></g></svg>