<?xml version="1.0" encoding="UTF-8" standalone="no"?>
<!DOCTYPE svg PUBLIC "-//W3C//DTD SVG 1.1//EN" "http://www.w3.org/Graphics/SVG/1.1/DTD/svg11.dtd">
<svg xmlns:xl="http://www.w3.org/1999/xlink" xmlns="http://www.w3.org/2000/svg" version="1.1" xmlns:dc="http://purl.org/dc/elements/1.1/" viewBox="-89415e-10 42096423e-12 2468.1413 566.31186" width="2468.1413" height="566.31186">
  <g id="Canvas_1" stroke="none" fill-opacity="1" stroke-dasharray="none" fill="none" stroke-opacity="1">
    <title>Canvas 1</title>
    <g id="Canvas_1_Layer_1">
      <title>Layer 1</title>
      <g id="Group_2">
        <title>Group</title>
        <g id="Graphic_86">
          <path d="M 748.2108 451.70306 L 621.3899 158.59032 C 619.9107 155.62782 619.41486 153.65282 619.41486 150.19865 C 619.41486 140.82364 627.8065 131.9403 638.16904 131.9403 C 647.54405 131.9403 653.9607 137.86531 657.4107 146.25282 L 771.4025 419.13637 L 885.8859 145.26531 C 889.3401 138.85281 895.7567 131.9403 904.1443 131.9403 C 914.5068 131.9403 922.4026 140.32781 922.4026 149.70698 C 922.4026 152.66532 921.9109 154.64032 920.9234 157.10699 L 793.6108 451.70306 C 789.1692 461.08223 782.7525 467.00307 771.8983 467.00307 L 769.9233 467.00307 C 759.065 467.00307 752.1566 461.08223 748.2108 451.70306" fill="#1c3160"/>
        </g>
        <g id="Graphic_83">
          <path d="M 987.5402 150.69282 C 987.5402 140.33031 995.9318 131.9428 1005.7985 131.9428 C 1016.161 131.9428 1024.5485 140.33031 1024.5485 150.69282 L 1024.5485 447.2639 C 1024.5485 457.6264 1016.161 466.0139 1005.7985 466.0139 C 995.9318 466.0139 987.5402 457.6264 987.5402 447.2639 Z" fill="#1c3160"/>
        </g>
        <g id="Graphic_80">
          <path d="M 1101.0361 424.07054 C 1096.5944 421.10803 1094.1277 416.1747 1094.1277 409.75803 C 1094.1277 399.3955 1102.0236 391.50384 1111.8903 391.50384 C 1116.8278 391.50384 1120.7736 393.4747 1123.2444 395.9455 C 1154.332 422.09554 1185.4153 434.9247 1227.3612 434.9247 C 1271.7737 434.9247 1300.8862 411.24136 1300.8862 378.6705 L 1300.8862 377.683 C 1300.8862 347.0913 1284.6029 329.82046 1215.5195 315.0163 C 1140.0194 298.73294 1104.9819 274.05792 1104.9819 219.7787 L 1104.9819 218.7912 C 1104.9819 166.97867 1150.382 128.9828 1213.0528 128.9828 C 1256.4737 128.9828 1288.057 139.83698 1318.1613 161.5495 C 1322.1071 164.512 1326.053 169.44533 1326.053 176.35367 C 1326.053 186.22035 1318.1613 194.12035 1308.2904 194.12035 C 1303.8487 194.12035 1300.8862 193.13285 1297.432 190.66202 C 1269.7987 170.43283 1242.6612 162.04116 1212.0653 162.04116 C 1169.132 162.04116 1141.9944 185.72868 1141.9944 215.33704 L 1141.9944 216.32454 C 1141.9944 247.41206 1158.7695 264.6829 1231.3112 280.4746 C 1304.8362 296.26627 1338.3904 323.4038 1338.3904 373.73716 L 1338.3904 374.72466 C 1338.3904 430.9789 1291.5112 467.98724 1225.882 467.98724 C 1177.5236 467.98724 1137.5528 453.18306 1101.0361 424.07054" fill="#1c3160"/>
        </g>
        <g id="Graphic_77">
          <path d="M 1434.6155 428.0176 L 1538.2406 329.32588 C 1585.1198 284.42168 1601.4031 259.255 1601.4031 226.19246 C 1601.4031 187.70493 1573.2781 163.52158 1540.2156 163.52158 C 1508.1406 163.52158 1486.4322 180.30076 1464.7197 211.38828 C 1462.2489 215.33829 1457.8072 217.80496 1452.3822 217.80496 C 1443.4989 217.80496 1436.5905 210.40078 1436.5905 201.02578 C 1436.5905 197.07994 1438.0697 193.62577 1440.0447 190.66327 C 1465.2114 152.6674 1492.8447 130.45905 1542.6864 130.45905 C 1597.4573 130.45905 1636.4407 169.93825 1636.4407 223.23413 L 1636.4407 224.21746 C 1636.4407 272.08417 1613.249 301.69252 1559.9531 351.53423 L 1479.028 429.4968 L 1626.0782 429.4968 C 1634.9615 429.4968 1641.8698 436.90096 1641.8698 446.27597 C 1641.8698 455.65515 1634.4657 463.05515 1626.0782 463.05515 L 1443.4989 463.05515 C 1433.628 463.05515 1426.2238 456.1468 1426.2238 445.7843 C 1426.7197 437.88847 1429.1863 432.95513 1434.6155 428.0176" fill="#a20a35"/>
        </g>
        <g id="Graphic_74">
          <path d="M 1914.2576 299.22502 L 1914.2576 298.23752 C 1914.2576 226.68746 1877.7409 162.53741 1821.4867 162.53741 C 1764.7366 162.53741 1729.2116 225.20413 1729.2116 297.74585 L 1729.2116 298.73335 C 1729.2116 370.2834 1765.7283 434.43346 1822.4742 434.43346 C 1879.2242 434.43346 1914.2576 371.2709 1914.2576 299.22502 M 1693.6824 299.22502 L 1693.6824 298.23752 C 1693.6824 206.45411 1744.5074 128.48738 1822.4742 128.48738 C 1900.445 128.48738 1949.7868 205.46661 1949.7868 297.25002 L 1949.7868 298.23752 C 1949.7868 390.02093 1899.4534 467.98766 1821.4867 467.98766 C 1743.024 467.98766 1693.6824 391.00843 1693.6824 299.22502" fill="#a20a35"/>
        </g>
        <g id="Graphic_71">
          <path d="M 1999.6243 428.0176 L 2103.2535 329.32588 C 2150.1328 284.42168 2166.416 259.255 2166.416 226.19246 C 2166.416 187.70493 2138.287 163.52158 2105.2286 163.52158 C 2073.1494 163.52158 2051.441 180.30076 2029.7285 211.38828 C 2027.2618 215.33829 2022.816 217.80496 2017.391 217.80496 C 2008.5076 217.80496 2001.5993 210.40078 2001.5993 201.02578 C 2001.5993 197.07994 2003.0785 193.62577 2005.0535 190.66327 C 2030.2202 152.6674 2057.8577 130.45905 2107.6952 130.45905 C 2162.466 130.45905 2201.4495 169.93825 2201.4495 223.23413 L 2201.4495 224.21746 C 2201.4495 272.08417 2178.2578 301.69252 2124.966 351.53423 L 2044.0368 429.4968 L 2191.087 429.4968 C 2199.9703 429.4968 2206.8786 436.90096 2206.8786 446.27597 C 2206.8786 455.65515 2199.4786 463.05515 2191.087 463.05515 L 2008.5076 463.05515 C 1998.641 463.05515 1991.2368 456.1468 1991.2368 445.7843 C 1991.2368 437.88847 1993.7035 432.95513 1999.6243 428.0176" fill="#a20a35"/>
        </g>
        <g id="Graphic_68">
          <path d="M 109.4782 278.0071 L 108.68654 278.0071 C 103.74903 278.0071 89.93652 277.0196 85.49485 267.64458 C 83.51985 261.71957 80.06568 256.29457 75.12818 251.8529 C 57.85733 234.58205 30.223974 234.58205 12.953126 251.8529 C -4.3177207 269.12375 -4.3177207 296.7571 12.953126 314.02795 C 30.223974 331.30296 57.85733 331.30296 75.12818 314.02795 C 79.57401 309.59045 83.02402 304.16127 84.99902 298.7321 C 89.93652 288.86126 104.24487 287.87793 109.1782 287.87793 L 109.4782 287.87793 C 108.98654 284.60293 108.98654 281.2821 109.4782 278.0071" fill="#a20a35"/>
        </g>
        <g id="Graphic_65">
          <path d="M 298.1746 480.3264 C 288.7996 474.89724 287.8121 461.5764 287.8121 456.6389 L 287.8121 455.75973 C 284.3746 456.2764 280.88292 456.25556 277.4496 455.69306 L 277.4496 457.13473 C 277.4496 462.55973 275.97042 477.3639 265.6079 481.3139 C 264.6204 481.8056 263.6329 482.3014 263.13708 482.7931 C 259.19124 484.7681 255.2454 487.7264 251.79123 491.1806 C 234.5204 508.4556 234.5204 536.08896 251.79123 553.35564 C 269.06208 570.63065 296.69544 570.63065 313.9663 553.35564 C 331.23713 536.08896 331.23713 508.4556 313.9663 491.1806 C 309.5246 485.7556 304.09544 482.3014 298.1746 480.3264" fill="#a20a35"/>
        </g>
        <g id="Graphic_62">
          <path d="M 552.8023 251.85373 C 535.53146 234.57872 507.8981 234.57872 490.62726 251.85373 C 486.1856 256.29124 482.7314 261.7204 480.7564 267.14958 C 475.32725 277.02042 461.51057 278.00792 456.57723 278.00792 L 456.35223 278.00792 C 456.82306 281.2746 456.81056 284.59543 456.31473 287.87876 L 457.0689 287.87876 C 462.00224 287.87876 475.8231 288.8621 480.2606 298.2371 C 482.2356 304.1621 485.68975 309.5871 490.62726 314.0288 C 507.8981 331.29963 535.53146 331.29963 552.8023 314.0288 C 569.5773 296.75794 569.5773 269.12458 552.8023 251.85373" fill="#a20a35"/>
        </g>
        <g id="Graphic_59">
          <path d="M 252.28207 13.018959 C 235.01122 30.289806 235.01122 57.92316 252.28207 75.19401 C 257.21957 80.12735 262.64458 83.08985 268.07375 85.55652 C 277.44875 90.98569 278.43626 104.30653 278.43626 109.24404 L 278.43626 109.98154 C 281.87376 109.46904 285.36543 109.48987 288.79876 110.05654 L 288.79876 108.7482 C 288.79876 103.31903 290.27793 88.51902 300.64044 84.56902 C 301.62794 84.07735 302.61544 83.58568 303.11128 83.08985 C 307.0571 81.11485 311.00295 78.15651 314.4571 74.70234 C 331.72796 57.431494 331.72796 29.793972 314.4571 12.523125 C 297.18627 -4.2560553 269.06125 -4.2560553 252.28207 13.018959" fill="#a20a35"/>
        </g>
        <g id="Graphic_56">
          <path d="M 189.61175 189.6757 C 172.34065 206.9468 144.71042 206.9468 127.43932 189.6757 C 110.16821 172.4046 110.16821 144.77438 127.43932 127.50328 C 144.71042 110.23217 172.34065 110.23217 189.61175 127.50328 C 206.8858 144.27646 206.88285 172.4046 189.61175 189.6757" fill="#2672b9"/>
        </g>
        <g id="Graphic_53">
          <path d="M 376.63493 376.20264 C 393.90603 358.93154 421.5392 358.9286 438.8103 376.2056 C 456.0814 393.4767 456.0814 421.1069 438.8103 438.378 C 421.5392 455.6491 393.90603 455.65207 376.63493 438.38097 C 359.36383 421.10397 359.36383 393.47374 376.63493 376.20264" fill="#2672b9"/>
        </g>
        <g id="Graphic_50">
          <path d="M 376.63493 127.00952 C 393.90603 109.73842 421.53626 109.73842 438.80736 127.00952 C 456.07847 144.28063 456.07847 171.91086 438.80736 189.18196 C 421.53626 206.45306 393.90603 206.45306 376.63493 189.18196 C 359.36383 172.40583 359.36383 144.28063 376.63493 127.00952" fill="#2672b9"/>
        </g>
        <g id="Graphic_47">
          <path d="M 127.4364 376.20264 C 144.7075 358.93154 172.34068 358.9286 189.61178 376.2056 C 206.88288 393.4767 206.88288 421.1069 189.61178 438.378 C 172.34068 455.6491 144.7075 455.65207 127.4364 438.38097 C 110.1653 421.10397 110.1653 393.47374 127.4364 376.20264" fill="#2672b9"/>
        </g>
        <g id="Graphic_44">
          <path d="M 166.49187 306.64405 C 153.32437 319.8104 132.25845 319.80948 119.09799 306.64197 C 105.92574 293.47446 105.92667 272.40855 119.09712 259.24514 C 132.26168 246.07584 153.3276 246.07676 166.49395 259.24427 C 179.66032 272.02876 179.65938 293.4777 166.49187 306.64405" fill="#1c3160"/>
        </g>
        <g id="Graphic_41">
          <path d="M 307.3388 167.1418 C 294.1041 180.3765 272.93507 180.37355 259.70038 167.13886 C 246.46863 153.9071 246.47157 132.73807 259.70038 119.50338 C 272.93507 106.27457 294.1041 106.27163 307.33586 119.50338 C 320.57055 132.35506 320.5735 153.9071 307.3388 167.1418" fill="#1c3160"/>
        </g>
        <g id="Graphic_38">
          <path d="M 446.9589 306.7619 C 433.7242 319.9966 412.5552 319.99366 399.3205 306.75897 C 386.08874 293.52722 386.0917 272.3582 399.3205 259.1235 C 412.5552 245.89468 433.7242 245.89174 446.95597 259.1235 C 460.19066 271.97517 460.1936 293.52722 446.9589 306.7619" fill="#1c3160"/>
        </g>
        <g id="Graphic_35">
          <path d="M 306.84464 446.2441 C 293.60994 459.4788 272.4409 459.47586 259.2062 446.24116 C 245.97446 433.0094 245.9774 411.8404 259.2062 398.6057 C 272.4409 385.3769 293.60994 385.37393 306.8417 398.6057 C 320.0764 411.45736 320.07933 433.0094 306.84464 446.2441" fill="#1c3160"/>
        </g>
        <g id="Graphic_32">
          <path d="M 252.28207 244.45206 C 249.2154 241.3854 243.07373 233.26038 242.76123 224.9187 C 240.36956 232.82705 233.8279 238.91456 225.5987 240.49372 C 235.16955 240.4604 243.5904 246.64373 246.36123 249.88123 C 246.36123 249.88123 247.28206 250.7979 249.05707 252.57707 C 249.93207 251.51873 250.8404 250.4854 251.82373 249.49373 C 252.73207 248.57706 253.68624 247.73956 254.6529 246.91456 C 253.1029 245.6229 252.28207 244.45206 252.28207 244.45206" fill="#a20a35"/>
        </g>
        <g id="Graphic_29">
          <path d="M 323.83796 222.22704 C 324.5713 232.39788 317.8588 241.5354 314.4588 244.45206 C 314.4588 244.45206 313.5213 245.38956 312.1171 246.79373 C 313.1296 247.65206 314.12545 248.5354 315.0796 249.49373 C 316.1213 250.54373 317.08795 251.63123 318.00462 252.7479 C 318.85045 251.90207 319.53796 251.21457 319.88796 250.86457 C 323.34212 247.4104 333.21297 240.0104 342.58797 241.48956 L 345.17964 241.48956 C 334.26713 241.0229 325.37963 232.82705 323.83796 222.22704" fill="#a20a35"/>
        </g>
        <g id="Graphic_26">
          <path d="M 323.46962 338.9263 C 325.80713 330.72213 332.65297 324.43462 341.16547 322.90962 C 331.17796 323.3888 322.26546 316.39295 319.39462 313.04295 C 319.39462 313.04295 318.51545 312.1596 317.19045 310.84295 C 316.50712 311.63045 315.8321 312.4346 315.0821 313.1846 C 314.05295 314.2221 312.97795 315.1888 311.87795 316.10545 C 313.1321 318.09295 313.96545 318.9638 313.96545 318.9638 C 317.0863 322.08046 323.35712 330.43046 323.46962 338.9263" fill="#a20a35"/>
        </g>
        <g id="Graphic_23">
          <path d="M 251.82248 313.1846 C 250.69748 312.0846 249.65165 310.9346 248.66831 309.7471 C 247.15998 311.25545 246.35998 312.05545 246.35998 312.05545 C 243.0808 315.3346 234.02664 322.0763 225.0933 321.49712 C 234.27664 323.61796 241.30998 331.3263 242.41414 340.8638 C 241.58914 330.6263 248.3683 321.4013 251.78915 318.47212 C 251.78915 318.47212 252.73082 317.5263 254.56832 315.69295 C 253.635 314.8888 252.70582 314.0763 251.82248 313.1846" fill="#a20a35"/>
        </g>
        <g id="Graphic_20">
          <path d="M 243.62123 218.53246 C 243.62123 230.9408 233.55872 241.0033 221.15038 241.0033 C 208.73787 241.0033 198.67953 230.9408 198.67953 218.53246 C 198.67953 206.11995 208.73787 196.0616 221.15038 196.0616 C 233.55872 196.0616 243.62123 206.11995 243.62123 218.53246" fill="#f15722"/>
        </g>
        <g id="Graphic_17">
          <path d="M 368.54424 219.03704 C 368.54424 231.50788 358.4359 241.6204 345.9609 241.6204 C 333.4859 241.6204 323.37754 231.50788 323.37754 219.03704 C 323.37754 206.56203 333.49005 196.4537 345.9609 196.4537 C 358.4359 196.4537 368.54424 206.5662 368.54424 219.03704" fill="#f15722"/>
        </g>
        <g id="Graphic_14">
          <path d="M 367.5555 345.2009 C 367.5555 357.67173 357.44715 367.78424 344.97214 367.78424 C 332.5013 367.78424 322.3888 357.67173 322.3888 345.2009 C 322.3888 332.73005 332.5013 322.61754 344.97214 322.61754 C 357.44715 322.61754 367.5555 332.73005 367.5555 345.2009" fill="#f15722"/>
        </g>
        <g id="Graphic_11">
          <path d="M 242.6754 343.5609 C 242.6754 356.03173 232.56289 366.14424 220.09204 366.14424 C 207.61703 366.14424 197.5087 356.03173 197.5087 343.5609 C 197.5087 331.09005 207.61703 320.97754 220.09204 320.97754 C 232.56289 320.97754 242.6754 331.09005 242.6754 343.5609" fill="#f15722"/>
        </g>
        <g id="Graphic_8">
          <path d="M 251.58516 249.1707 C 269.2414 231.39435 297.49934 231.39402 315.15448 249.17064 C 332.81844 266.95024 332.8181 295.40263 315.15598 313.17895 C 297.50267 330.95826 269.24473 330.9586 251.5837 313.18195 C 233.9239 295.90913 233.92597 266.94998 251.58516 249.1707" fill="#fdbb30"/>
        </g>
        <g id="Graphic_5">
          <path d="M 2260.8912 428.0176 L 2364.5163 329.32588 C 2411.3955 284.42168 2427.6788 259.255 2427.6788 226.19246 C 2427.6788 187.70493 2399.5496 163.52158 2366.4913 163.52158 C 2334.4162 163.52158 2312.7037 180.30076 2290.9912 211.38828 C 2288.5245 215.33829 2284.0787 217.80496 2278.6537 217.80496 C 2269.7703 217.80496 2262.8662 210.40078 2262.8662 201.02578 C 2262.8662 197.07994 2264.3412 193.62577 2266.3203 190.66327 C 2291.483 152.6674 2319.1204 130.45905 2368.958 130.45905 C 2423.733 130.45905 2462.7163 169.93825 2462.7163 223.23413 L 2462.7163 224.21746 C 2462.7163 272.08417 2439.5205 301.69252 2386.2288 351.53423 L 2305.2995 429.4968 L 2452.3497 429.4968 C 2461.233 429.4968 2468.1413 436.90096 2468.1413 446.27597 C 2468.1413 455.65515 2460.7413 463.05515 2452.3497 463.05515 L 2269.7703 463.05515 C 2259.9037 463.05515 2252.4995 456.1468 2252.4995 445.7843 C 2252.4995 437.88847 2254.9662 432.95513 2260.8912 428.0176" fill="#a20a35"/>
        </g>
      </g>
    </g>
  </g>
</svg>
