<?xml version="1.0" encoding="utf-8"?>
<!-- Generator: Adobe Illustrator 24.0.1, SVG Export Plug-In . SVG Version: 6.00 Build 0)  -->
<svg version="1.1" id="Layer_1" xmlns="http://www.w3.org/2000/svg" xmlns:xlink="http://www.w3.org/1999/xlink" x="0px" y="0px"
	 viewBox="0 0 2502.9 619.9" style="enable-background:new 0 0 2502.9 619.9;" xml:space="preserve">
<style type="text/css">
	.st0{fill:#FFFFFF;}
	.st1{enable-background:new    ;}
</style>
<title>vis2023_logo_white</title>
<g id="Canvas_1">
	<g id="Canvas_1_Layer_1">
		<g id="Group_2">
			<g id="Graphic_68">
				<path class="st0" d="M109.6,278h-0.8c-4.9,0-18.8-1-23.2-10.4c-2-6.1-5.6-11.5-10.4-15.8c-17.2-17.3-45.1-17.4-62.4-0.2
					s-17.4,45.1-0.2,62.4s45.1,17.4,62.4,0.2c4.4-4.4,7.9-9.7,10.1-15.5c4.9-9.9,19.2-10.9,24.2-10.9h0.3
					C109.1,284.6,109.1,281.3,109.6,278"/>
			</g>
			<g id="Graphic_65">
				<path class="st0" d="M298.3,480.3c-9.4-5.4-10.4-18.8-10.4-23.7v-0.9c-3.5,0.5-7,0.5-10.4-0.1v1.4c0,5.4-1.5,20.2-11.8,24.2
					c-0.9,0.4-1.7,0.9-2.5,1.5c-4.2,2.2-8,5-11.3,8.4c-17.2,17.2-17.2,45,0,62.2c17.2,17.2,45,17.2,62.2,0c17.2-17.2,17.2-45,0-62.2
					c0,0,0,0,0,0C309.9,486.2,304.4,482.4,298.3,480.3"/>
			</g>
			<g id="Graphic_62">
				<path class="st0" d="M552.9,251.9c-17.1-17.2-44.9-17.2-62.1-0.1c-4.4,4.4-7.8,9.6-10,15.4c-5.4,9.9-19.2,10.9-24.2,10.9h-0.2
					c0.5,3.3,0.5,6.6,0,9.9h0.8c4.9,0,18.8,1,23.2,10.4c2,6.1,5.6,11.5,10.4,15.8c17,17.2,44.7,17.3,61.9,0.3
					c0.1-0.1,0.2-0.2,0.3-0.3C569.7,296.8,569.7,269.3,552.9,251.9"/>
			</g>
			<g id="Graphic_59">
				<path class="st0" d="M252.4,13c-17.2,17-17.3,44.7-0.3,61.9c0.1,0.1,0.2,0.2,0.3,0.3c4.9,4.9,10.4,7.9,15.8,10.4
					c9.4,5.4,10.4,18.8,10.4,23.7v0.7c3.5-0.5,7-0.5,10.4,0.1v-1.3c0-5.4,1.5-20.2,11.8-24.2c0.9-0.4,1.7-0.9,2.5-1.5
					c4.2-2.2,8-5,11.3-8.4c17.2-17,17.3-44.7,0.3-61.9c-0.1-0.1-0.2-0.2-0.3-0.3C297.3-4.3,269.2-4.3,252.4,13"/>
			</g>
			<g id="Graphic_56">
				<path class="st0" d="M189.7,189.7c-17.2,17.2-45,17.2-62.2,0s-17.2-45,0-62.2s45-17.2,62.2,0c0,0,0,0,0,0
					C207,144.3,207,172.4,189.7,189.7"/>
			</g>
			<g id="Graphic_53">
				<path class="st0" d="M376.7,376.2c17.2-17.2,45-17.2,62.2,0c17.2,17.2,17.2,45,0,62.2s-45,17.2-62.2,0c0,0,0,0,0,0
					c-17.2-17-17.3-44.7-0.3-61.9C376.5,376.4,376.6,376.3,376.7,376.2"/>
			</g>
			<g id="Graphic_50">
				<path class="st0" d="M376.7,127c17.2-17.2,45-17.2,62.2,0c17.2,17.2,17.2,45,0,62.2s-45,17.2-62.2,0c0,0,0,0,0,0
					C359.5,172.4,359.5,144.3,376.7,127"/>
			</g>
			<g id="Graphic_47">
				<path class="st0" d="M127.5,376.2c17.2-17.2,45-17.2,62.2,0s17.2,45,0,62.2s-45,17.2-62.2,0c0,0,0,0,0,0
					c-17.2-17-17.3-44.7-0.3-61.9C127.3,376.4,127.4,376.3,127.5,376.2"/>
			</g>
			<g id="Graphic_44">
				<path class="st0" d="M166.6,306.6c-13.1,13.1-34.3,13.1-47.4,0s-13.1-34.3,0-47.4s34.3-13.1,47.4,0c0,0,0,0,0,0
					C179.8,272,179.8,293.5,166.6,306.6"/>
			</g>
			<g id="Graphic_41">
				<path class="st0" d="M307.4,167.1c-13.1,13.1-34.5,13.1-47.6,0s-13.1-34.5,0-47.6c13.1-13.1,34.5-13.1,47.6,0c0,0,0,0,0,0
					c13.1,13.1,13.2,34.3,0.1,47.5C307.5,167,307.4,167.1,307.4,167.1"/>
			</g>
			<g id="Graphic_38">
				<path class="st0" d="M447.1,306.8c-13.1,13.1-34.5,13.1-47.6,0c-13.1-13.1-13.1-34.5,0-47.6c13.1-13.1,34.5-13.1,47.6,0
					c0,0,0,0,0,0C460.3,272,460.3,293.5,447.1,306.8"/>
			</g>
			<g id="Graphic_35">
				<path class="st0" d="M306.9,446.2c-13.1,13.1-34.5,13.1-47.6,0c-13.1-13.1-13.1-34.5,0-47.6c13.1-13.1,34.5-13.1,47.6,0
					c0,0,0,0,0,0c13.1,13.1,13.2,34.3,0.1,47.5C307,446.1,306.9,446.2,306.9,446.2"/>
			</g>
			<g id="Graphic_32">
				<path class="st0" d="M252.4,244.5c-3.1-3.1-9.2-11.2-9.5-19.5c-2.4,8-9,14-17.2,15.6c9.6,0,18,6.2,20.8,9.4l2.7,2.7
					c0.9-1.1,1.8-2.1,2.8-3.1c0.9-0.9,1.9-1.8,2.8-2.6C253.9,246.3,253.1,245.5,252.4,244.5"/>
			</g>
			<g id="Graphic_29">
				<path class="st0" d="M323.9,222.2c0.7,10.2-6,19.3-9.4,22.2l-2.3,2.3c1,0.9,2,1.7,3,2.7s2,2.1,2.9,3.3l1.9-1.9
					c3.5-3.5,13.3-10.9,22.7-9.4h2.6C334.5,241,325.5,232.9,323.9,222.2"/>
			</g>
			<g id="Graphic_26">
				<path class="st0" d="M323.6,338.9c2.4-8.3,9.2-14.5,17.7-16c-10,0.5-18.9-6.5-21.8-9.9l-2.2-2.2c-0.7,0.8-1.4,1.6-2.1,2.3
					c-1,1-2.1,2-3.2,2.9c0.6,1,1.3,2,2.1,2.9C317.2,322.1,323.5,330.4,323.6,338.9"/>
			</g>
			<g id="Graphic_23">
				<path class="st0" d="M251.9,313.2c-1.1-1.1-2.2-2.2-3.2-3.4l-2.3,2.3c-3.3,3.3-12.3,10-21.3,9.4c9.3,2.1,16.2,9.9,17.3,19.4
					c-0.8-10.2,6-19.5,9.4-22.4l2.8-2.8C253.7,314.9,252.8,314.1,251.9,313.2"/>
			</g>
			<g id="Graphic_20">
				<path class="st0" d="M243.7,218.5c0,12.4-10.1,22.5-22.5,22.5s-22.5-10.1-22.5-22.5s10.1-22.5,22.5-22.5l0,0
					C233.6,196.1,243.7,206.1,243.7,218.5"/>
			</g>
			<g id="Graphic_17">
				<path class="st0" d="M368.6,219c0,12.5-10.1,22.6-22.6,22.6s-22.6-10.1-22.6-22.6c0-12.5,10.1-22.6,22.6-22.6
					C358.5,196.4,368.6,206.5,368.6,219C368.6,219,368.6,219,368.6,219"/>
			</g>
			<g id="Graphic_14">
				<path class="st0" d="M367.7,345.2c0,12.5-10.1,22.6-22.6,22.6s-22.6-10.1-22.6-22.6s10.1-22.6,22.6-22.6
					C357.6,322.6,367.7,332.7,367.7,345.2C367.7,345.2,367.7,345.2,367.7,345.2"/>
			</g>
			<g id="Graphic_11">
				<path class="st0" d="M242.8,343.6c0,12.5-10.1,22.6-22.6,22.6s-22.6-10.1-22.6-22.6c0-12.5,10.1-22.6,22.6-22.6l0,0
					C232.7,321,242.8,331.1,242.8,343.6C242.8,343.6,242.8,343.6,242.8,343.6"/>
			</g>
			<g id="Graphic_8">
				<path class="st0" d="M251.7,249.2c17.2-17.6,45.4-17.8,63-0.6c0.2,0.2,0.4,0.4,0.6,0.6c17.7,17.6,17.7,46.3,0.1,63.9
					c0,0,0,0-0.1,0.1c-17.2,17.6-45.4,17.8-63,0.6c-0.2-0.2-0.4-0.4-0.6-0.6C234,295.9,234,266.9,251.7,249.2"/>
			</g>
		</g>
	</g>
</g>
<g class="st1">
	<path class="st0" d="M745.5,442.8L632.6,162.2c-1.3-2.3-2-4.9-2-7.9c0-5.9,2-11,6.2-15.3c4.1-4.3,9.3-6.4,15.5-6.4
		c10.9,0,17.6,4.6,20.2,13.8l106.5,272.3l106.5-272.3c3.9-9.2,10.7-13.8,20.2-13.8c5.9,0,11,2.1,15.3,6.4c4.3,4.3,6.4,9.4,6.4,15.3
		c0,2.3-0.7,4.9-2,7.9L812.6,442.8c-5.9,15.1-17.1,22.7-33.5,22.7C763,465.5,751.8,458,745.5,442.8z"/>
	<path class="st0" d="M979.8,445.3V152.8c0-5.6,2-10.4,5.9-14.3c3.9-3.9,8.9-5.9,14.8-5.9c5.6,0,10.4,2,14.3,5.9
		c3.9,3.9,5.9,8.7,5.9,14.3v292.5c0,5.3-2,9.9-5.9,14.1c-3.9,4.1-8.7,6.2-14.3,6.2c-5.9,0-10.9-2-14.8-5.9
		C981.8,455.7,979.8,450.9,979.8,445.3z"/>
</g>
<g class="st1">
	<path class="st0" d="M1083.4,414.2c0-5.6,1.9-10.4,5.7-14.3c3.8-3.9,8.5-5.9,14.1-5.9c5.3,0,9.4,1.5,12.3,4.4
		c26.3,23,56.4,34.5,90.3,34.5c25.3,0,44.6-5.4,57.7-16.3c13.1-10.9,19.7-24.3,19.7-40.4c0-12.2-3.8-22-11.3-29.6
		c-6.6-7.2-15-13-25.2-17.3c-10.2-4.3-25.8-9.4-46.9-15.3c-26-6.9-45.5-13-58.7-18.3c-35.2-14.5-52.8-39.5-52.8-75
		c0-26.6,10.9-48.5,32.6-65.6c21.7-17.1,49.5-25.6,83.4-25.6c38.8,0,72.7,11.3,101.6,34c5.6,3.6,8.4,8.9,8.4,15.8
		c0,5.3-1.9,9.9-5.7,13.8c-3.8,3.9-8.3,5.9-13.6,5.9c-4.6,0-8.6-1.5-11.8-4.4c-23-19.1-50.3-28.6-81.9-28.6c-21,0-38.1,4.9-51,14.6
		c-13,9.7-19.5,22.3-19.5,37.7c0,10.2,3.5,18.7,10.4,25.6c6.6,6.3,14.6,11.2,24.2,14.8c9.5,3.6,24.7,8.2,45.4,13.8
		c22,5.9,41.8,12.5,59.2,19.7c37.2,14.8,55.7,41.6,55.7,80.4c0,27.6-10.2,50.6-30.6,69.1c-20.4,18.4-50.6,27.6-90.8,27.6
		c-45.7,0-83.5-13.3-113.4-40C1085.9,424.9,1083.4,419.8,1083.4,414.2z"/>
</g>
<g class="st1">
	<path class="st0" d="M1373.4,441.8c0-6.9,3-12.8,8.9-17.8c41.1-32.2,74.6-59.7,100.6-82.4c50.3-44.1,75.5-82.5,75.5-115.4
		c0-19.1-6.5-33.9-19.5-44.4c-13-10.5-29.3-15.8-49.1-15.8c-30.9,0-57.1,10.2-78.4,30.6c-4.6,3-8.7,4.4-12.3,4.4
		c-5.3,0-9.6-1.8-13.1-5.4c-3.5-3.6-5.2-8.1-5.2-13.3c0-5.9,2.1-10.5,6.4-13.8c27-26,61.2-39,102.6-39c30.2,0,56.2,8.6,77.9,25.9
		c21.7,17.3,32.6,40.9,32.6,70.8c0,21.7-6.6,43.1-19.7,64.1c-12.5,20.1-29.6,40.4-51.3,61.2s-51.3,45.9-88.8,75.5h145
		c4.9,0,9.2,1.8,12.8,5.4c3.6,3.6,5.4,7.9,5.4,12.8c0,4.9-1.8,9.2-5.4,12.8c-3.6,3.6-7.9,5.4-12.8,5.4h-190.4
		c-5.6,0-10.6-2.1-15-6.4C1375.6,452.9,1373.4,447.8,1373.4,441.8z"/>
	<path class="st0" d="M1790.2,129.6c20.4-0.3,38.9,4.4,55.5,14.1c16.6,9.7,29.9,22.7,40,39c10,16.3,17.6,34.4,22.7,54.5
		c5.1,20.1,7.6,40.8,7.6,62.1c0.3,29.3-3.9,56.6-12.8,81.9c-8.9,25.3-23.2,46.4-42.9,63.4c-19.7,16.9-43.1,25.2-70,24.9
		c-20.7,0.3-39.3-4.4-55.7-14.1c-16.4-9.7-29.7-22.8-39.7-39.2c-10-16.4-17.6-34.7-22.7-54.7c-5.1-20.1-7.6-40.8-7.6-62.1
		c0-21.7,2.5-42.5,7.6-62.4c5.1-19.9,12.6-38,22.4-54.3c9.9-16.3,23.1-29.3,39.7-39C1750.8,134,1769.5,129.3,1790.2,129.6z
		 M1790.2,166.1c-29.3,0-50.5,13-63.6,39c-13.5,26-20.2,57.4-20.2,94.2c0,37.2,6.7,68.9,20.2,95.2c13.5,25.6,34.7,38.5,63.6,38.5
		c28.9,0,50.1-12.8,63.6-38.5c13.5-26.3,20.2-58,20.2-95.2c0-36.8-6.7-68.2-20.2-94.2C1840.7,179.1,1819.4,166.1,1790.2,166.1z"/>
	<path class="st0" d="M1962.3,441.8c0-6.9,3-12.8,8.9-17.8c41.1-32.2,74.6-59.7,100.6-82.4c50.3-44.1,75.5-82.5,75.5-115.4
		c0-19.1-6.5-33.9-19.5-44.4c-13-10.5-29.3-15.8-49.1-15.8c-30.9,0-57.1,10.2-78.4,30.6c-4.6,3-8.7,4.4-12.3,4.4
		c-5.3,0-9.6-1.8-13.1-5.4c-3.5-3.6-5.2-8.1-5.2-13.3c0-5.9,2.1-10.5,6.4-13.8c27-26,61.2-39,102.6-39c30.2,0,56.2,8.6,77.9,25.9
		c21.7,17.3,32.6,40.9,32.6,70.8c0,21.7-6.6,43.1-19.7,64.1c-12.5,20.1-29.6,40.4-51.3,61.2s-51.3,45.9-88.8,75.5h145
		c4.9,0,9.2,1.8,12.8,5.4c3.6,3.6,5.4,7.9,5.4,12.8c0,4.9-1.8,9.2-5.4,12.8c-3.6,3.6-7.9,5.4-12.8,5.4H1984c-5.6,0-10.6-2.1-15-6.4
		C1964.5,452.9,1962.3,447.8,1962.3,441.8z"/>
	<path class="st0" d="M2252.8,428c-3.9-3.9-5.9-8.5-5.9-13.8c0-5.3,1.8-9.6,5.4-13.1c3.6-3.5,8.1-5.2,13.3-5.2
		c4.6,0,8.5,1.5,11.8,4.4c22.7,21.7,49.6,32.6,80.9,32.6c24,0,42.8-5.5,56.5-16.5c13.6-11,20.5-26.1,20.5-45.1
		c0-19.4-7.2-33.9-21.5-43.7c-14.3-9.7-34.4-14.6-60.4-14.6h-17.8c-4.9,0-9.2-1.7-12.8-5.2c-3.6-3.5-5.4-7.8-5.4-13.1
		c0-4.9,1.8-9.2,5.4-12.8c3.6-3.6,7.9-5.4,12.8-5.4h17.8c23,0,41.5-4.7,55.5-14.1c14-9.4,21-22.8,21-40.2c0-17.1-6.9-30.7-20.7-40.9
		c-13.8-10.2-31.4-15.3-52.8-15.3c-28.6,0-53.9,10-76,30.1c-3.6,2.6-7.4,3.9-11.3,3.9c-4.9,0-9.1-1.7-12.6-5.2
		c-3.5-3.5-5.2-7.6-5.2-12.6c0-4.6,2.1-9,6.4-13.3c28.3-26.3,62.1-39.5,101.6-39.5c32.6,0,59.2,7.9,79.9,23.7
		c21,15.1,31.6,36.5,31.6,64.1c0,21.4-7.2,38.8-21.7,52.3c-14.1,12.5-30.6,20.6-49.3,24.2c18.7,1.6,36.1,9.8,52,24.4
		c15.9,14.6,23.9,33.5,23.9,56.5c0,28-10.6,50.7-31.8,68.3c-21.2,17.6-49.4,26.4-84.6,26.4C2315,469.5,2279.5,455.7,2252.8,428z"/>
</g>
</svg>
