<svg xmlns="http://www.w3.org/2000/svg" viewBox="0 0 509.51 114.63"><defs><style>.cls-1{fill:#c60509;}.cls-2{fill:#db4400;}.cls-3{fill:#4e3a2a;}</style></defs><title>Asset 1as</title><g id="Layer_2" data-name="Layer 2"><g id="Layer_1-2" data-name="Layer 1"><path class="cls-1" d="M151.55,91.53,125.81,32.12a3.44,3.44,0,0,1-.39-1.71,3.87,3.87,0,0,1,3.82-3.72,4.23,4.23,0,0,1,3.91,2.86l23.07,55.3,23.17-55.49a4.43,4.43,0,0,1,3.72-2.67,3.7,3.7,0,0,1,3.72,3.62,4,4,0,0,1-.29,1.53L160.7,91.53c-.86,1.9-2.19,3.14-4.38,3.14h-.38a4.52,4.52,0,0,1-4.39-3.14"/><path class="cls-1" d="M200,30.5a3.77,3.77,0,1,1,7.54,0V90.57a3.77,3.77,0,1,1-7.54,0Z"/><path class="cls-1" d="M223,85.9A3.41,3.41,0,0,1,221.59,83a3.64,3.64,0,0,1,3.63-3.72,3.29,3.29,0,0,1,2.28.86c6.3,5.34,12.59,7.91,21.08,7.91,9,0,14.87-4.76,14.87-11.34v-.19c0-6.2-3.34-9.73-17.35-12.69-15.35-3.33-22.41-8.29-22.41-19.26v-.19c0-10.49,9.25-18.21,21.93-18.21,8.77,0,15.16,2.19,21.26,6.58a3.86,3.86,0,0,1,1.63,3.05,3.63,3.63,0,0,1-3.63,3.62,3.55,3.55,0,0,1-2.19-.66A27.93,27.93,0,0,0,245.43,33c-8.68,0-14.21,4.77-14.21,10.78V44c0,6.29,3.44,9.82,18.12,13,14.87,3.25,21.74,8.68,21.74,18.88V76c0,11.45-9.54,18.88-22.79,18.88a39,39,0,0,1-25.27-9"/><path class="cls-2" d="M38.4,38.39a8.92,8.92,0,1,1,0-12.62,8.92,8.92,0,0,1,0,12.62"/><path class="cls-2" d="M76.24,76.23a8.92,8.92,0,1,1,0,12.61,8.9,8.9,0,0,1,0-12.61"/><path class="cls-2" d="M76.24,25.77a8.92,8.92,0,1,1,0,12.62,8.92,8.92,0,0,1,0-12.62"/><path class="cls-2" d="M25.79,76.23a8.92,8.92,0,1,1,0,12.61,8.9,8.9,0,0,1,0-12.61"/><path class="cls-2" d="M69.9,65.45a5.27,5.27,0,0,0-.56,0,6.39,6.39,0,0,1-4.63-1.95L64.18,63a8.91,8.91,0,0,0-.05-11.45l.58-.58c.72-.7,2.7-2.15,4.56-1.85h.06a5.85,5.85,0,0,0,.59,0,4.45,4.45,0,1,0-4.44-4.45,5.21,5.21,0,0,0,0,.55h0a6.4,6.4,0,0,1-2,4.64l-.53.54a8.93,8.93,0,0,0-11.49.08l-.6-.59c-.7-.72-2.16-2.71-1.86-4.56v-.07a3.9,3.9,0,0,0,0-.59,4.45,4.45,0,1,0-4.44,4.45,3.19,3.19,0,0,0,.54,0h0a6.48,6.48,0,0,1,4.64,1.95l.57.57a8.91,8.91,0,0,0,0,11.36l-.62.63c-.73.7-2.71,2.15-4.56,1.86h-.06a5.85,5.85,0,0,0-.6,0,4.45,4.45,0,1,0,4.45,4.45,4.89,4.89,0,0,0,0-.54h0A6.41,6.41,0,0,1,51,64.72l.59-.59a8.89,8.89,0,0,0,11.47,0l.57.56c.7.73,2.15,2.71,1.86,4.56v.07a3.92,3.92,0,0,0,0,.59,4.45,4.45,0,1,0,4.46-4.45"/><path class="cls-2" d="M111.93,51a8.91,8.91,0,0,0-14.62,3.08c-1.06,2-3.87,2.17-4.85,2.16H92.3a6.71,6.71,0,1,0,0,2h.18c1,0,3.8.25,4.75,2.14a8.76,8.76,0,0,0,2.06,3.24A8.92,8.92,0,0,0,111.93,51M51,2.61a8.9,8.9,0,0,0,0,12.61,8.79,8.79,0,0,0,3.24,2.07c1.94,1.09,2.09,3.84,2.08,4.8v.22a6.69,6.69,0,1,0,5.71,1.89,6.61,6.61,0,0,0-3.72-1.88v-.27c0-1.09.27-4.09,2.43-4.88a2.62,2.62,0,0,0,.53-.27,8.41,8.41,0,0,0,2.34-1.68A8.92,8.92,0,0,0,51,2.61m9.37,94.74c-1.94-1.1-2.09-3.84-2.08-4.82v-.21a6.69,6.69,0,1,0-5.71-1.89,6.52,6.52,0,0,0,3.72,1.88v.27c0,1.09-.27,4.09-2.43,4.88a2.47,2.47,0,0,0-.54.27,9,9,0,1,0,7-.38M24.1,52.57a6.74,6.74,0,0,0-1.89,3.81H22c-1,0-3.8-.24-4.74-2.14a8.92,8.92,0,1,0-2.07,9.38,9,9,0,0,0,2-3.08c1.06-2,3.86-2.18,4.85-2.17h.15a6.69,6.69,0,1,0,1.87-5.81"/><path class="cls-3" d="M290.68,86.69l21-20c9.48-9.12,12.82-14.25,12.82-20.89C324.48,38,318.77,33,312.1,33c-6.5,0-10.89,3.42-15.27,9.68a3.07,3.07,0,0,1-2.55,1.34,3.28,3.28,0,0,1-3.16-3.42,3.48,3.48,0,0,1,.7-2.09c5.09-7.7,10.71-12.26,20.81-12.26,11.06,0,19.05,8,19.05,18.81v.19c0,9.69-4.74,15.67-15.54,25.84L299.72,86.88h29.76a3.42,3.42,0,0,1,0,6.84h-37A3.37,3.37,0,0,1,289,90.21a4.46,4.46,0,0,1,1.67-3.52"/><path class="cls-3" d="M343.17,60.67v-.19c0-18.62,10.27-34.39,26.07-34.39s25.81,15.58,25.81,34.2v.19c0,18.61-10.18,34.38-26,34.38s-25.9-15.58-25.9-34.19m44.68,0v-.19c0-14.54-7.37-27.55-18.78-27.55s-18.7,12.73-18.7,27.36v.19C350.37,75,357.74,88,369.24,88s18.61-12.82,18.61-27.35"/><path class="cls-3" d="M405.14,86.69l21-20c9.48-9.12,12.82-14.25,12.82-20.89C438.94,38,433.23,33,426.56,33c-6.5,0-10.89,3.42-15.27,9.68a3.07,3.07,0,0,1-2.55,1.34,3.28,3.28,0,0,1-3.16-3.42,3.48,3.48,0,0,1,.7-2.09c5.09-7.7,10.71-12.26,20.81-12.26,11.06,0,19.05,8,19.05,18.81v.19c0,9.69-4.74,15.67-15.54,25.84L414.18,86.88h29.76a3.42,3.42,0,0,1,0,6.84H407a3.37,3.37,0,0,1-3.51-3.51,4.46,4.46,0,0,1,1.67-3.52"/><path class="cls-3" d="M457.63,60.67v-.19c0-18.62,10.27-34.39,26.07-34.39s25.81,15.58,25.81,34.2v.19c0,18.61-10.18,34.38-26,34.38s-25.9-15.58-25.9-34.19m44.68,0v-.19c0-14.54-7.37-27.55-18.78-27.55s-18.7,12.73-18.7,27.36v.19C464.83,75,472.2,88,483.7,88s18.61-12.82,18.61-27.35"/></g></g></svg>