<?xml version="1.0" encoding="utf-8"?>
<!-- Generator: Adobe Illustrator 24.0.1, SVG Export Plug-In . SVG Version: 6.00 Build 0)  -->
<svg version="1.1" id="Layer_1" xmlns:dc="http://purl.org/dc/elements/1.1/" xmlns:xl="http://www.w3.org/1999/xlink"
	 xmlns="http://www.w3.org/2000/svg" xmlns:xlink="http://www.w3.org/1999/xlink" x="0px" y="0px" viewBox="0 0 2468.1 566.3"
	 style="enable-background:new 0 0 2468.1 566.3;" xml:space="preserve">
<style type="text/css">
	.st0{fill:#1C3160;}
	.st1{fill:#A20A35;}
	.st2{fill:#2672B9;}
	.st3{fill:#F15722;}
	.st4{fill:#FDBB30;}
	.st5{display:none;}
	.st6{display:inline;fill:#A20A35;}
	.st7{font-family:'ProximaSoft-Regular';}
	.st8{font-size:481.8898px;}
	.st9{fill:none;}
</style>
<g id="Canvas_1">
	<title>Canvas 1</title>
	<g id="Canvas_1_Layer_1">
		<title>Layer 1</title>
		<g id="Group_2">
			<title>Group</title>
			<g id="Graphic_86">
				<path class="st0" d="M748.2,451.7L621.4,158.6c-1.5-3-2-4.9-2-8.4c0-9.4,8.4-18.3,18.8-18.3c9.4,0,15.8,5.9,19.2,14.3l114,272.9
					l114.5-273.9c3.5-6.4,9.9-13.3,18.3-13.3c10.4,0,18.3,8.4,18.3,17.8c0,3-0.5,4.9-1.5,7.4L793.6,451.7
					c-4.4,9.4-10.9,15.3-21.7,15.3h-2C759.1,467,752.2,461.1,748.2,451.7"/>
			</g>
			<g id="Graphic_83">
				<path class="st0" d="M987.5,150.7c0-10.4,8.4-18.8,18.3-18.8c10.4,0,18.7,8.4,18.7,18.8v296.6c0,10.4-8.4,18.8-18.7,18.8
					c-9.9,0-18.3-8.4-18.3-18.8V150.7z"/>
			</g>
			<g id="Graphic_80">
				<path class="st0" d="M1101,424.1c-4.4-3-6.9-7.9-6.9-14.3c0-10.4,7.9-18.3,17.8-18.3c4.9,0,8.9,2,11.4,4.4
					c31.1,26.2,62.2,39,104.1,39c44.4,0,73.5-23.7,73.5-56.3v-1c0-30.6-16.3-47.9-85.4-62.7c-75.5-16.3-110.5-41-110.5-95.2v-1
					c0-51.8,45.4-89.8,108.1-89.8c43.4,0,75,10.9,105.1,32.6c3.9,3,7.9,7.9,7.9,14.8c0,9.9-7.9,17.8-17.8,17.8
					c-4.4,0-7.4-1-10.9-3.5c-27.6-20.2-54.8-28.6-85.4-28.6c-42.9,0-70.1,23.7-70.1,53.3v1c0,31.1,16.8,48.4,89.3,64.2
					c73.5,15.8,107.1,42.9,107.1,93.3v1c0,56.3-46.9,93.3-112.5,93.3C1177.5,468,1137.6,453.2,1101,424.1"/>
			</g>
			<g id="Graphic_77">
				<path class="st1" d="M1434.6,428l103.6-98.7c46.9-44.9,63.2-70.1,63.2-103.1c0-38.5-28.1-62.7-61.2-62.7
					c-32.1,0-53.8,16.8-75.5,47.9c-2.5,4-6.9,6.4-12.3,6.4c-8.9,0-15.8-7.4-15.8-16.8c0-3.9,1.5-7.4,3.5-10.4
					c25.2-38,52.8-60.2,102.6-60.2c54.8,0,93.8,39.5,93.8,92.8v1c0,47.9-23.2,77.5-76.5,127.3l-80.9,78h147.1
					c8.9,0,15.8,7.4,15.8,16.8c0,9.4-7.4,16.8-15.8,16.8h-182.6c-9.9,0-17.3-6.9-17.3-17.3C1426.7,437.9,1429.2,433,1434.6,428"/>
			</g>
			<g id="Graphic_74">
				<path class="st1" d="M1914.3,299.2v-1c0-71.6-36.5-135.7-92.8-135.7c-56.8,0-92.3,62.7-92.3,135.2v1
					c0,71.6,36.5,135.7,93.3,135.7C1879.2,434.4,1914.3,371.3,1914.3,299.2 M1693.7,299.2v-1c0-91.8,50.8-169.8,128.8-169.8
					c78,0,127.3,77,127.3,168.8v1c0,91.8-50.3,169.8-128.3,169.8C1743,468,1693.7,391,1693.7,299.2"/>
			</g>
			<g id="Graphic_71">
				<path class="st1" d="M1999.6,428l103.6-98.7c46.9-44.9,63.2-70.1,63.2-103.1c0-38.5-28.1-62.7-61.2-62.7
					c-32.1,0-53.8,16.8-75.5,47.9c-2.5,4-6.9,6.4-12.3,6.4c-8.9,0-15.8-7.4-15.8-16.8c0-3.9,1.5-7.4,3.5-10.4
					c25.2-38,52.8-60.2,102.6-60.2c54.8,0,93.8,39.5,93.8,92.8v1c0,47.9-23.2,77.5-76.5,127.3l-80.9,78h147.1
					c8.9,0,15.8,7.4,15.8,16.8c0,9.4-7.4,16.8-15.8,16.8h-182.6c-9.9,0-17.3-6.9-17.3-17.3C1991.2,437.9,1993.7,433,1999.6,428"/>
			</g>
			<g id="Graphic_68">
				<path class="st1" d="M109.5,278h-0.8c-4.9,0-18.8-1-23.2-10.4c-2-5.9-5.4-11.4-10.4-15.8c-17.3-17.3-44.9-17.3-62.2,0
					s-17.3,44.9,0,62.2c17.3,17.3,44.9,17.3,62.2,0c4.4-4.4,7.9-9.9,9.9-15.3c4.9-9.9,19.2-10.9,24.2-10.9h0.3
					C109,284.6,109,281.3,109.5,278"/>
			</g>
			<g id="Graphic_65">
				<path class="st1" d="M298.2,480.3c-9.4-5.4-10.4-18.8-10.4-23.7v-0.9c-3.4,0.5-6.9,0.5-10.4-0.1v1.4c0,5.4-1.5,20.2-11.8,24.2
					c-1,0.5-2,1-2.5,1.5c-3.9,2-7.9,4.9-11.3,8.4c-17.3,17.3-17.3,44.9,0,62.2c17.3,17.3,44.9,17.3,62.2,0
					c17.3-17.3,17.3-44.9,0-62.2C309.5,485.8,304.1,482.3,298.2,480.3"/>
			</g>
			<g id="Graphic_62">
				<path class="st1" d="M552.8,251.9c-17.3-17.3-44.9-17.3-62.2,0c-4.4,4.4-7.9,9.9-9.9,15.3c-5.4,9.9-19.2,10.9-24.2,10.9h-0.2
					c0.5,3.3,0.5,6.6,0,9.9h0.8c4.9,0,18.8,1,23.2,10.4c2,5.9,5.4,11.4,10.4,15.8c17.3,17.3,44.9,17.3,62.2,0
					C569.6,296.8,569.6,269.1,552.8,251.9"/>
			</g>
			<g id="Graphic_59">
				<path class="st1" d="M252.3,13c-17.3,17.3-17.3,44.9,0,62.2c4.9,4.9,10.4,7.9,15.8,10.4c9.4,5.4,10.4,18.8,10.4,23.7v0.7
					c3.4-0.5,6.9-0.5,10.4,0.1v-1.3c0-5.4,1.5-20.2,11.8-24.2c1-0.5,2-1,2.5-1.5c3.9-2,7.9-4.9,11.3-8.4c17.3-17.3,17.3-44.9,0-62.2
					C297.2-4.3,269.1-4.3,252.3,13"/>
			</g>
			<g id="Graphic_56">
				<path class="st2" d="M189.6,189.7c-17.3,17.3-44.9,17.3-62.2,0s-17.3-44.9,0-62.2s44.9-17.3,62.2,0
					C206.9,144.3,206.9,172.4,189.6,189.7"/>
			</g>
			<g id="Graphic_53">
				<path class="st2" d="M376.6,376.2c17.3-17.3,44.9-17.3,62.2,0c17.3,17.3,17.3,44.9,0,62.2c-17.3,17.3-44.9,17.3-62.2,0
					C359.4,421.1,359.4,393.5,376.6,376.2"/>
			</g>
			<g id="Graphic_50">
				<path class="st2" d="M376.6,127c17.3-17.3,44.9-17.3,62.2,0c17.3,17.3,17.3,44.9,0,62.2c-17.3,17.3-44.9,17.3-62.2,0
					C359.4,172.4,359.4,144.3,376.6,127"/>
			</g>
			<g id="Graphic_47">
				<path class="st2" d="M127.4,376.2c17.3-17.3,44.9-17.3,62.2,0c17.3,17.3,17.3,44.9,0,62.2c-17.3,17.3-44.9,17.3-62.2,0
					C110.2,421.1,110.2,393.5,127.4,376.2"/>
			</g>
			<g id="Graphic_44">
				<path class="st0" d="M166.5,306.6c-13.2,13.2-34.2,13.2-47.4,0c-13.2-13.2-13.2-34.2,0-47.4c13.2-13.2,34.2-13.2,47.4,0
					C179.7,272,179.7,293.5,166.5,306.6"/>
			</g>
			<g id="Graphic_41">
				<path class="st0" d="M307.3,167.1c-13.2,13.2-34.4,13.2-47.6,0c-13.2-13.2-13.2-34.4,0-47.6c13.2-13.2,34.4-13.2,47.6,0
					C320.6,132.4,320.6,153.9,307.3,167.1"/>
			</g>
			<g id="Graphic_38">
				<path class="st0" d="M447,306.8c-13.2,13.2-34.4,13.2-47.6,0c-13.2-13.2-13.2-34.4,0-47.6c13.2-13.2,34.4-13.2,47.6,0
					C460.2,272,460.2,293.5,447,306.8"/>
			</g>
			<g id="Graphic_35">
				<path class="st0" d="M306.8,446.2c-13.2,13.2-34.4,13.2-47.6,0c-13.2-13.2-13.2-34.4,0-47.6c13.2-13.2,34.4-13.2,47.6,0
					C320.1,411.5,320.1,433,306.8,446.2"/>
			</g>
			<g id="Graphic_32">
				<path class="st1" d="M252.3,244.5c-3.1-3.1-9.2-11.2-9.5-19.5c-2.4,7.9-8.9,14-17.2,15.6c9.6,0,18,6.2,20.8,9.4
					c0,0,0.9,0.9,2.7,2.7c0.9-1.1,1.8-2.1,2.8-3.1c0.9-0.9,1.9-1.8,2.8-2.6C253.1,245.6,252.3,244.5,252.3,244.5"/>
			</g>
			<g id="Graphic_29">
				<path class="st1" d="M323.8,222.2c0.7,10.2-6,19.3-9.4,22.2c0,0-0.9,0.9-2.3,2.3c1,0.9,2,1.7,3,2.7c1,1.1,2,2.1,2.9,3.3
					c0.8-0.8,1.5-1.5,1.9-1.9c3.5-3.5,13.3-10.9,22.7-9.4h2.6C334.3,241,325.4,232.8,323.8,222.2"/>
			</g>
			<g id="Graphic_26">
				<path class="st1" d="M323.5,338.9c2.3-8.2,9.2-14.5,17.7-16c-10,0.5-18.9-6.5-21.8-9.9c0,0-0.9-0.9-2.2-2.2
					c-0.7,0.8-1.4,1.6-2.1,2.3c-1,1-2.1,2-3.2,2.9c1.3,2,2.1,2.9,2.1,2.9C317.1,322.1,323.4,330.4,323.5,338.9"/>
			</g>
			<g id="Graphic_23">
				<path class="st1" d="M251.8,313.2c-1.1-1.1-2.2-2.3-3.2-3.4c-1.5,1.5-2.3,2.3-2.3,2.3c-3.3,3.3-12.3,10-21.3,9.4
					c9.2,2.1,16.2,9.8,17.3,19.4c-0.8-10.2,6-19.5,9.4-22.4c0,0,0.9-0.9,2.8-2.8C253.6,314.9,252.7,314.1,251.8,313.2"/>
			</g>
			<g id="Graphic_20">
				<path class="st3" d="M243.6,218.5c0,12.4-10.1,22.5-22.5,22.5c-12.4,0-22.5-10.1-22.5-22.5c0-12.4,10.1-22.5,22.5-22.5
					C233.6,196.1,243.6,206.1,243.6,218.5"/>
			</g>
			<g id="Graphic_17">
				<path class="st3" d="M368.5,219c0,12.5-10.1,22.6-22.6,22.6s-22.6-10.1-22.6-22.6c0-12.5,10.1-22.6,22.6-22.6
					C358.4,196.5,368.5,206.6,368.5,219"/>
			</g>
			<g id="Graphic_14">
				<path class="st3" d="M367.6,345.2c0,12.5-10.1,22.6-22.6,22.6c-12.5,0-22.6-10.1-22.6-22.6c0-12.5,10.1-22.6,22.6-22.6
					C357.4,322.6,367.6,332.7,367.6,345.2"/>
			</g>
			<g id="Graphic_11">
				<path class="st3" d="M242.7,343.6c0,12.5-10.1,22.6-22.6,22.6c-12.5,0-22.6-10.1-22.6-22.6c0-12.5,10.1-22.6,22.6-22.6
					C232.6,321,242.7,331.1,242.7,343.6"/>
			</g>
			<g id="Graphic_8">
				<path class="st4" d="M251.6,249.2c17.7-17.8,45.9-17.8,63.6,0c17.7,17.8,17.7,46.2,0,64c-17.7,17.8-45.9,17.8-63.6,0
					C233.9,295.9,233.9,266.9,251.6,249.2"/>
			</g>
			<g id="Graphic_5" class="st5">
				<path class="st6" d="M2260.9,428l103.6-98.7c46.9-44.9,63.2-70.1,63.2-103.1c0-38.5-28.1-62.7-61.2-62.7
					c-32.1,0-53.8,16.8-75.5,47.9c-2.5,4-6.9,6.4-12.3,6.4c-8.9,0-15.8-7.4-15.8-16.8c0-3.9,1.5-7.4,3.5-10.4
					c25.2-38,52.8-60.2,102.6-60.2c54.8,0,93.8,39.5,93.8,92.8v1c0,47.9-23.2,77.5-76.5,127.3l-80.9,78h147.1
					c8.9,0,15.8,7.4,15.8,16.8c0,9.4-7.4,16.8-15.8,16.8h-182.6c-9.9,0-17.3-6.9-17.3-17.3C2252.5,437.9,2255,433,2260.9,428"/>
			</g>
		</g>
	</g>
</g>
<text transform="matrix(1 0 0 1 2225.9504 455.8126)" class="st1 st7 st8">3</text>
<rect x="2231" y="77.5" class="st9" width="23" height="1"/>
</svg>
